{"glyphs":{"0":{"ha":897,"x_min":74,"x_max":822,"o":"m 74 506 q 74 758 74 506 q 448 1010 74 1010 q 822 506 822 1010 q 448 3 822 3 q 74 506 74 3 m 531 811 q 513 820 531 811 q 449 829 496 829 q 367 811 401 829 q 313 765 332 793 q 283 692 294 738 q 269 606 272 647 q 265 507 265 564 q 269 408 265 450 q 283 322 272 367 q 313 248 294 276 q 367 201 332 219 q 449 183 401 183 q 531 201 496 183 q 584 248 565 219 q 614 322 603 276 q 628 408 625 367 q 632 507 632 450 q 628 606 632 564 q 614 692 625 647 q 584 765 603 738 q 531 811 565 793 z "},"1":{"ha":532,"x_min":51,"x_max":399,"o":"m 199 0 l 199 807 l 51 807 l 51 986 l 399 986 l 399 0 l 199 0 z "},"2":{"ha":797,"x_min":61,"x_max":749,"o":"m 64 14 l 64 157 q 175 253 100 189 q 288 351 250 318 q 380 440 325 385 q 461 532 435 494 q 529 704 529 629 q 393 851 529 851 q 289 807 326 851 q 250 685 251 763 l 61 685 q 156 932 63 847 q 401 1017 250 1017 q 639 931 553 1017 q 725 714 725 844 q 675 533 725 617 q 626 455 650 489 q 559 376 603 421 q 490 307 515 332 q 415 237 465 282 q 344 174 364 192 l 749 174 l 749 14 l 64 14 z "},"3":{"ha":832,"x_min":63,"x_max":753,"o":"m 78 747 q 174 959 82 883 q 416 1035 267 1035 q 650 959 565 1035 q 735 768 735 883 q 689 619 735 679 q 586 539 643 558 l 586 533 q 753 282 753 476 q 664 74 753 153 q 419 -6 575 -6 q 165 74 264 -6 q 63 306 67 153 l 251 306 q 298 197 254 238 q 415 156 342 156 q 527 195 489 156 q 565 308 565 235 q 513 417 565 382 q 349 453 461 453 l 308 453 l 308 613 l 349 613 q 546 744 546 613 q 510 835 546 801 q 407 868 474 868 q 307 831 340 868 q 268 747 274 793 l 78 747 z "},"4":{"ha":918,"x_min":67,"x_max":868,"o":"m 564 367 l 564 789 l 286 367 l 564 367 m 551 0 l 551 197 l 67 197 l 67 350 l 519 1000 l 746 1000 l 746 367 l 868 367 l 868 197 l 746 197 l 746 0 l 551 0 z "},"5":{"ha":894,"x_min":103,"x_max":819,"o":"m 126 1015 l 747 1015 l 747 844 l 304 844 l 304 614 q 385 667 333 646 q 510 689 436 689 q 649 658 583 689 q 750 576 715 628 q 819 354 819 476 q 727 97 819 193 q 471 0 635 0 q 213 77 307 0 q 103 279 119 154 l 294 279 q 352 193 307 225 q 473 161 397 161 q 590 213 549 161 q 632 349 632 264 q 590 479 632 433 q 476 525 547 525 q 313 418 343 525 l 126 418 l 126 1015 z "},"6":{"ha":889,"x_min":93,"x_max":808,"o":"m 619 331 q 619 370 619 331 q 578 458 619 408 q 458 507 536 507 q 331 463 379 507 q 282 338 282 418 q 331 208 282 257 q 456 160 379 160 q 576 207 533 160 q 619 331 619 254 m 454 876 q 313 801 360 876 q 264 561 265 726 q 364 642 300 614 q 497 669 428 669 q 722 582 636 669 q 808 340 808 494 q 719 93 808 186 q 472 0 631 0 q 180 129 267 0 q 93 522 93 258 q 457 1038 93 1038 q 683 959 603 1038 q 779 764 764 881 l 599 764 q 454 876 572 876 z "},"7":{"ha":778,"x_min":57,"x_max":726,"o":"m 57 1006 l 726 1006 l 726 861 l 351 0 l 139 0 l 532 844 l 57 844 l 57 1006 z "},"8":{"ha":893,"x_min":81,"x_max":813,"o":"m 572 419 q 549 441 572 419 q 446 463 526 463 q 317 421 365 463 q 268 304 268 379 q 315 184 268 229 q 445 139 363 139 q 573 185 528 139 q 618 303 618 231 q 572 419 618 376 m 599 745 q 599 777 599 745 q 558 847 599 810 q 447 885 517 885 q 336 847 378 885 q 294 745 294 810 q 338 642 294 681 q 447 603 381 603 q 556 642 513 603 q 599 745 599 681 m 104 771 q 193 966 104 886 q 447 1046 282 1046 q 699 965 611 1046 q 788 769 788 885 q 650 547 788 619 q 813 293 813 478 q 710 63 813 149 q 447 -22 607 -22 q 184 63 288 -22 q 81 293 81 149 q 124 449 81 383 q 243 547 167 514 q 104 771 104 621 z "},"9":{"ha":883,"x_min":99,"x_max":799,"o":"m 286 707 q 286 671 286 707 q 328 587 286 635 q 447 539 369 539 q 567 583 525 539 q 608 706 608 626 q 565 830 608 785 q 447 875 522 875 q 329 827 372 875 q 286 707 286 779 m 463 161 q 588 229 549 161 q 628 458 628 297 q 541 399 597 421 q 421 376 485 376 q 188 458 278 376 q 99 697 99 540 q 190 944 99 853 q 440 1036 282 1036 q 719 908 639 1036 q 799 515 799 779 q 724 126 799 251 q 450 0 650 0 q 213 83 293 0 q 125 292 132 167 l 306 292 q 463 161 328 161 z "},"\u0000":{"ha":0,"x_min":0,"x_max":0,"o":""},"\r":{"ha":417,"x_min":0,"x_max":0,"o":""}," ":{"ha":417,"x_min":0,"x_max":0,"o":""},"!":{"ha":582,"x_min":194,"x_max":418,"o":"m 418 111 q 418 88 418 111 q 385 32 418 64 q 306 0 353 0 q 227 32 260 0 q 194 111 194 64 q 227 190 194 158 q 306 222 260 222 q 385 190 353 222 q 418 111 418 158 m 219 326 l 197 1043 l 406 1043 l 383 326 l 219 326 z "},"\"":{"ha":506,"x_min":51,"x_max":454,"o":"m 304 814 l 286 1110 l 454 1110 l 436 814 l 304 814 m 69 814 l 51 1110 l 219 1110 l 201 814 l 69 814 z "},"#":{"ha":1247,"x_min":32,"x_max":1164,"o":"m 1164 631 l 951 631 l 903 403 l 1078 403 l 1078 229 l 865 229 l 817 0 l 633 0 l 682 229 l 428 229 l 379 0 l 196 0 l 244 229 l 32 229 l 32 403 l 282 403 l 331 631 l 118 631 l 118 804 l 368 804 l 415 1028 l 599 1028 l 551 804 l 806 804 l 853 1028 l 1036 1028 l 989 804 l 1164 804 l 1164 631 m 719 403 l 768 631 l 514 631 l 465 403 l 719 403 z "},"$":{"ha":899,"x_min":83,"x_max":783,"o":"m 783 282 q 699 87 783 171 q 476 -8 615 3 l 476 -121 l 396 -121 l 396 -8 q 169 75 254 1 q 83 274 83 149 l 292 274 q 396 150 300 168 l 396 415 q 204 481 254 453 q 83 693 83 547 q 172 892 83 814 q 396 982 260 971 l 396 1094 l 476 1094 l 476 982 q 691 905 611 974 q 778 706 771 836 l 574 706 q 544 778 569 747 q 476 821 518 808 l 476 558 q 671 492 618 522 q 783 282 783 425 m 286 706 q 396 582 286 619 l 396 824 q 286 706 286 807 m 582 271 q 476 392 582 351 l 476 150 q 554 192 526 160 q 582 271 582 225 z "},"%":{"ha":1063,"x_min":50,"x_max":1013,"o":"m 869 209 q 869 262 869 209 q 792 315 869 315 q 714 209 714 315 q 792 103 714 103 q 869 209 869 103 m 793 -14 q 744 -14 793 -14 q 634 45 696 -14 q 572 209 572 104 q 634 373 572 314 q 792 432 696 432 q 951 373 889 432 q 1013 209 1013 314 q 951 45 1013 104 q 793 -14 890 -14 m 164 0 l 708 972 l 899 972 l 353 0 l 164 0 m 349 763 q 349 816 349 763 q 270 869 349 869 q 192 763 192 869 q 270 657 192 657 q 349 763 349 657 m 112 600 q 81 630 112 600 q 50 764 50 660 q 112 927 50 868 q 270 986 174 986 q 428 927 367 986 q 490 764 490 868 q 429 600 490 660 q 271 540 368 540 q 112 600 174 540 z "},"&":{"ha":956,"x_min":46,"x_max":947,"o":"m 349 -10 q 134 77 222 -10 q 46 286 46 164 q 115 490 46 408 q 285 586 185 572 q 203 795 203 706 q 275 956 203 885 q 474 1028 347 1028 q 674 961 600 1028 q 747 804 747 894 q 731 725 747 758 l 543 725 q 556 781 556 747 q 533 839 556 815 q 474 863 510 863 q 415 839 438 863 q 393 777 393 815 q 435 683 393 739 l 947 0 l 719 0 l 613 147 q 505 34 576 78 q 349 -10 433 -10 m 253 192 q 273 171 253 192 q 350 150 293 150 q 448 192 407 150 q 489 294 489 235 q 448 395 489 354 q 350 436 407 436 q 253 395 293 436 q 213 294 213 354 q 253 192 213 235 z "},"'":{"ha":271,"x_min":51,"x_max":219,"o":"m 69 814 l 51 1110 l 219 1110 l 201 814 l 69 814 z "},"(":{"ha":710,"x_min":138,"x_max":708,"o":"m 511 -258 q 240 84 343 -132 q 138 559 138 300 q 240 1033 138 818 q 511 1375 343 1249 l 708 1375 l 708 1357 q 422 997 517 1203 q 326 558 326 792 q 422 120 326 325 q 708 -240 517 -85 l 708 -258 l 511 -258 z "},")":{"ha":711,"x_min":4,"x_max":574,"o":"m 200 1375 q 472 1033 369 1249 q 574 559 574 818 q 472 84 574 300 q 200 -258 369 -132 l 4 -258 l 4 -240 q 290 120 196 -85 q 385 558 385 325 q 290 997 385 792 q 4 1357 196 1203 l 4 1375 l 200 1375 z "},"*":{"ha":719,"x_min":94,"x_max":624,"o":"m 435 1025 l 401 831 l 554 954 l 624 828 l 442 763 l 624 697 l 550 568 l 401 692 l 433 500 l 289 500 l 319 692 l 171 567 l 94 699 l 275 764 l 96 826 l 167 954 l 321 831 l 289 1025 l 435 1025 z "},"+":{"ha":951,"x_min":121,"x_max":829,"o":"m 829 582 l 829 406 l 568 406 l 568 140 l 382 140 l 382 406 l 121 406 l 121 582 l 382 582 l 382 849 l 568 849 l 568 582 l 829 582 z "},",":{"ha":306,"x_min":46,"x_max":268,"o":"m 46 126 l 217 126 q 239 -121 268 -17 q 180 -203 224 -172 q 67 -233 136 -233 l 67 -156 q 119 -139 103 -156 q 136 -81 136 -122 l 136 -54 l 46 -54 l 46 126 z "},"-":{"ha":810,"x_min":110,"x_max":700,"o":"m 110 414 l 110 576 l 700 576 l 700 414 l 110 414 z "},".":{"ha":340,"x_min":60,"x_max":282,"o":"m 282 111 q 282 88 282 111 q 249 32 282 64 q 170 0 217 0 q 92 32 124 0 q 60 111 60 64 q 92 190 60 158 q 170 222 124 222 q 249 190 217 222 q 282 111 282 158 z "},"/":{"ha":675,"x_min":51,"x_max":617,"o":"m 51 -251 l 426 1315 l 617 1315 l 242 -251 l 51 -251 z "},":":{"ha":435,"x_min":103,"x_max":325,"o":"m 293 601 q 277 585 293 601 q 214 569 261 569 q 135 601 167 569 q 103 680 103 633 q 135 759 103 726 q 214 792 167 792 q 293 759 261 792 q 325 680 325 726 q 293 601 325 633 m 293 32 q 277 16 293 32 q 214 0 261 0 q 135 32 167 0 q 103 111 103 64 q 135 190 103 158 q 214 222 167 222 q 293 190 261 222 q 325 111 325 158 q 293 32 325 64 z "},";":{"ha":467,"x_min":136,"x_max":371,"o":"m 358 681 q 358 657 358 681 q 326 601 358 633 q 247 569 293 569 q 168 601 200 569 q 136 681 136 633 q 168 760 136 728 q 247 792 200 792 q 326 760 293 792 q 358 681 358 728 m 149 126 l 319 126 q 342 -121 371 -17 q 283 -203 326 -172 q 169 -233 239 -233 l 169 -156 q 222 -139 206 -156 q 239 -81 239 -122 l 239 -54 l 149 -54 l 149 126 z "},"<":{"ha":813,"x_min":114,"x_max":663,"o":"m 358 494 l 663 183 l 417 183 l 114 494 l 417 806 l 663 806 l 358 494 z "},"=":{"ha":1079,"x_min":161,"x_max":918,"o":"m 161 574 l 161 749 l 918 749 l 918 574 l 161 574 m 161 240 l 161 414 l 918 414 l 918 240 l 161 240 z "},">":{"ha":800,"x_min":125,"x_max":672,"o":"m 125 183 l 428 494 l 125 806 l 369 806 l 672 494 l 369 183 l 125 183 z "},"?":{"ha":890,"x_min":126,"x_max":768,"o":"m 283 28 q 266 44 283 28 q 250 107 250 60 q 283 186 250 154 q 362 218 315 218 q 441 186 408 218 q 474 107 474 154 q 441 28 474 60 q 362 -4 408 -4 q 283 28 315 -4 m 129 754 q 212 965 126 883 q 444 1047 297 1047 q 679 968 590 1047 q 768 747 768 889 q 688 540 768 604 q 449 474 607 476 l 449 322 l 265 322 l 265 603 l 344 603 q 522 633 464 603 q 579 753 579 664 q 544 850 579 814 q 447 886 508 886 q 349 851 385 886 q 314 754 314 815 l 129 754 z "},"@":{"ha":1710,"x_min":60,"x_max":1651,"o":"m 60 307 q 181 728 60 543 q 507 1015 301 914 q 964 1115 713 1115 q 1463 949 1275 1115 q 1651 499 1651 783 q 1524 137 1651 285 q 1232 -11 1396 -11 q 1089 35 1139 -11 q 1032 161 1039 81 q 757 -11 933 -11 q 526 101 615 -11 q 460 388 436 214 q 610 670 483 561 q 901 779 738 779 q 1156 679 1065 779 q 1225 417 1247 579 l 1197 228 q 1246 157 1189 157 q 1383 253 1315 157 q 1451 499 1451 350 q 1314 835 1451 708 q 940 961 1176 961 q 451 772 644 961 q 258 307 258 583 q 409 -67 258 71 q 831 -208 560 -206 l 792 -362 q 260 -178 461 -360 q 60 307 60 3 m 651 384 q 643 333 651 384 q 684 219 636 282 q 809 157 732 157 q 952 219 886 157 q 1032 385 1018 282 q 999 549 1047 488 q 874 611 950 611 q 731 549 797 611 q 651 384 665 486 z "},"A":{"ha":979,"x_min":31,"x_max":947,"o":"m 740 0 l 678 182 l 300 182 l 238 0 l 31 0 l 374 972 l 606 972 l 947 0 l 740 0 m 351 332 l 628 332 l 489 736 l 351 332 z "},"B":{"ha":903,"x_min":104,"x_max":839,"o":"m 104 969 l 497 969 q 731 897 646 969 q 817 714 817 825 q 628 496 817 551 q 781 413 724 482 q 839 254 839 344 q 753 70 839 140 q 519 0 667 0 l 104 0 l 104 969 m 300 819 l 300 568 l 476 568 q 580 601 542 568 q 618 693 618 633 q 580 786 618 753 q 476 819 542 819 l 300 819 m 300 150 l 497 150 q 602 185 563 150 q 642 283 642 221 q 601 382 642 346 q 496 418 561 418 l 300 418 l 300 150 z "},"C":{"ha":1068,"x_min":50,"x_max":1003,"o":"m 193 132 q 122 202 193 132 q 50 488 50 272 q 194 843 50 703 q 546 983 338 983 q 827 903 704 983 q 1003 676 950 822 l 768 676 q 546 804 703 804 q 331 717 414 804 q 249 487 249 631 q 331 256 249 343 q 546 169 414 169 q 768 297 701 169 l 1003 297 q 827 72 950 151 q 546 -8 704 -8 q 193 132 336 -8 z "},"D":{"ha":1004,"x_min":104,"x_max":954,"o":"m 300 149 l 433 149 q 671 239 586 149 q 756 483 756 329 q 671 728 756 638 q 433 818 586 818 l 300 818 l 300 149 m 433 969 q 810 836 667 969 q 954 483 954 703 q 810 132 954 264 q 433 0 667 0 l 104 0 l 104 969 l 433 969 z "},"E":{"ha":760,"x_min":104,"x_max":664,"o":"m 664 972 l 664 822 l 300 822 l 300 568 l 622 568 l 622 418 l 300 418 l 300 150 l 664 150 l 664 0 l 104 0 l 104 972 l 664 972 z "},"F":{"ha":754,"x_min":104,"x_max":704,"o":"m 104 0 l 104 969 l 704 969 l 704 819 l 300 819 l 300 565 l 608 565 l 608 415 l 300 415 l 300 0 l 104 0 z "},"G":{"ha":1068,"x_min":50,"x_max":1018,"o":"m 193 132 q 122 202 193 132 q 50 488 50 272 q 194 843 50 703 q 546 983 338 983 q 827 903 704 983 q 1003 676 950 822 l 768 676 q 546 804 703 804 q 331 717 414 804 q 249 487 249 631 q 331 256 249 343 q 534 169 414 169 q 723 228 654 169 q 808 388 792 288 l 486 388 l 486 536 l 1018 536 l 1018 388 q 863 110 993 229 q 534 -8 732 -8 q 193 132 336 -8 z "},"H":{"ha":1017,"x_min":104,"x_max":913,"o":"m 717 969 l 913 969 l 913 0 l 717 0 l 717 415 l 300 415 l 300 0 l 104 0 l 104 969 l 300 969 l 300 565 l 717 565 l 717 969 z "},"I":{"ha":404,"x_min":104,"x_max":300,"o":"m 104 0 l 104 969 l 300 969 l 300 0 l 104 0 z "},"J":{"ha":803,"x_min":51,"x_max":656,"o":"m 461 289 l 461 969 l 656 969 l 656 289 q 572 69 656 149 q 354 -10 488 -10 q 136 69 221 -10 q 51 289 51 149 l 247 289 q 276 197 249 229 q 354 164 304 164 q 433 197 404 164 q 461 289 461 229 z "},"K":{"ha":936,"x_min":104,"x_max":906,"o":"m 300 0 l 104 0 l 104 969 l 300 969 l 300 536 l 650 969 l 906 969 l 485 483 l 906 0 l 651 0 l 300 431 l 300 0 z "},"L":{"ha":639,"x_min":104,"x_max":611,"o":"m 104 969 l 300 969 l 300 149 l 611 149 l 611 0 l 104 0 l 104 969 z "},"M":{"ha":1265,"x_min":104,"x_max":1161,"o":"m 1161 969 l 1161 0 l 967 0 l 967 613 l 703 0 l 563 0 l 300 610 l 300 0 l 104 0 l 104 969 l 322 969 l 633 251 l 944 969 l 1161 969 z "},"N":{"ha":1039,"x_min":104,"x_max":935,"o":"m 739 972 l 935 972 l 935 0 l 739 0 l 300 672 l 300 0 l 104 0 l 104 972 l 300 972 l 739 300 l 739 972 z "},"O":{"ha":1092,"x_min":50,"x_max":1042,"o":"m 760 256 q 801 300 760 256 q 842 488 842 343 q 760 718 842 632 q 546 804 678 804 q 331 717 414 804 q 249 487 249 631 q 331 256 249 343 q 546 169 414 169 q 760 256 678 169 m 546 -10 q 441 -10 546 -10 q 193 131 336 -10 q 50 487 50 271 q 194 843 50 703 q 547 983 338 983 q 899 843 756 983 q 1042 487 1042 703 q 899 131 1042 271 q 546 -10 756 -10 z "},"P":{"ha":854,"x_min":104,"x_max":811,"o":"m 738 486 q 628 413 700 440 q 461 386 557 386 l 300 386 l 300 0 l 104 0 l 104 969 l 461 969 q 720 885 629 969 q 811 688 811 801 q 738 486 811 574 m 300 536 l 461 536 q 574 574 535 536 q 613 678 613 613 q 574 781 613 743 q 461 819 535 819 l 300 819 l 300 536 z "},"Q":{"ha":1097,"x_min":50,"x_max":1056,"o":"m 546 -10 q 193 131 336 -10 q 50 487 50 271 q 194 843 50 703 q 547 983 338 983 q 899 843 756 983 q 1042 488 1042 703 q 988 254 1042 360 q 840 82 935 149 l 1056 -168 l 814 -168 l 671 6 q 546 -10 607 -10 m 546 804 q 480 804 546 804 q 331 717 414 804 q 249 487 249 631 q 331 256 249 343 q 546 169 414 169 q 760 256 678 169 q 842 488 842 343 q 760 718 842 632 q 546 804 678 804 z "},"R":{"ha":901,"x_min":104,"x_max":828,"o":"m 300 386 l 300 0 l 104 0 l 104 969 l 461 969 q 720 885 629 969 q 811 678 811 801 q 756 507 811 586 q 581 399 700 428 l 828 0 l 596 0 l 364 386 l 300 386 m 300 819 l 300 536 l 461 536 q 574 574 535 536 q 613 678 613 613 q 574 781 613 743 q 461 819 535 819 l 300 819 z "},"S":{"ha":867,"x_min":83,"x_max":783,"o":"m 418 826 q 389 826 418 826 q 323 797 360 826 q 286 714 286 767 q 313 631 286 661 q 385 585 340 601 q 482 557 429 569 q 588 526 535 544 q 685 482 640 508 q 756 405 729 456 q 783 282 783 354 q 688 76 783 163 q 435 -10 593 -10 q 181 65 278 -10 q 83 274 83 139 l 292 274 q 438 146 303 146 q 543 181 504 146 q 582 273 582 215 q 531 364 582 331 q 406 414 479 397 q 260 454 333 431 q 135 537 186 478 q 83 693 83 596 q 179 904 83 825 q 426 983 275 983 q 668 915 576 983 q 768 706 760 846 l 554 706 q 513 794 549 761 q 418 826 476 826 z "},"T":{"ha":811,"x_min":47,"x_max":765,"o":"m 47 819 l 47 969 l 765 969 l 765 819 l 503 819 l 503 0 l 308 0 l 308 819 l 47 819 z "},"U":{"ha":985,"x_min":101,"x_max":885,"o":"m 101 372 l 101 969 l 297 969 l 297 372 q 348 221 297 272 q 493 169 399 169 q 639 221 588 169 q 690 372 690 272 l 690 969 l 885 969 l 885 372 q 769 90 885 189 q 489 -10 654 -10 q 213 89 324 -10 q 101 372 101 188 z "},"V":{"ha":985,"x_min":19,"x_max":965,"o":"m 374 0 l 19 969 l 226 969 l 492 196 l 757 969 l 965 969 l 610 0 l 374 0 z "},"W":{"ha":1417,"x_min":18,"x_max":1399,"o":"m 1189 969 l 1399 969 l 1118 0 l 896 0 l 708 676 l 515 0 l 293 0 l 18 969 l 226 969 l 413 221 l 608 969 l 829 969 l 1014 228 l 1189 969 z "},"X":{"ha":967,"x_min":69,"x_max":897,"o":"m 897 969 l 594 485 l 897 0 l 676 0 l 476 319 l 290 0 l 69 0 l 374 485 l 69 969 l 290 969 l 490 650 l 678 969 l 897 969 z "},"Y":{"ha":893,"x_min":21,"x_max":872,"o":"m 544 0 l 349 0 l 349 333 l 21 969 l 240 969 l 447 513 l 653 969 l 872 969 l 544 333 l 544 0 z "},"Z":{"ha":800,"x_min":69,"x_max":731,"o":"m 731 969 l 731 819 l 294 150 l 731 150 l 731 0 l 69 0 l 69 150 l 506 819 l 69 819 l 69 969 l 731 969 z "},"[":{"ha":690,"x_min":188,"x_max":536,"o":"m 188 -251 l 188 1315 l 536 1315 l 536 1156 l 371 1156 l 371 -92 l 536 -92 l 536 -251 l 188 -251 z "},"\\":{"ha":1051,"x_min":240,"x_max":825,"o":"m 431 1315 l 825 -251 l 636 -251 l 240 1315 l 431 1315 z "},"]":{"ha":688,"x_min":153,"x_max":501,"o":"m 501 1315 l 501 -251 l 153 -251 l 153 -92 l 318 -92 l 318 1156 l 153 1156 l 153 1315 l 501 1315 z "},"^":{"ha":944,"x_min":46,"x_max":899,"o":"m 699 232 l 472 742 l 244 232 l 46 232 l 379 972 l 567 972 l 899 232 l 699 232 z "},"_":{"ha":1097,"x_min":149,"x_max":964,"o":"m 149 -242 l 149 -57 l 964 -57 l 964 -242 l 149 -242 z "},"`":{"ha":376,"x_min":14,"x_max":333,"o":"m 14 969 l 14 1128 l 333 961 l 333 824 l 14 969 z "},"a":{"ha":954,"x_min":50,"x_max":850,"o":"m 594 219 q 625 249 594 219 q 656 385 656 279 q 594 551 656 490 q 451 611 533 611 q 309 551 369 611 q 249 386 249 492 q 310 219 249 281 q 452 158 371 158 q 594 219 533 158 m 153 101 q 102 157 153 101 q 50 386 50 213 q 153 670 50 560 q 414 781 256 781 q 656 650 572 781 l 656 769 l 850 769 l 850 0 l 656 0 l 656 129 q 413 -11 568 -11 q 153 101 257 -11 z "},"b":{"ha":954,"x_min":104,"x_max":904,"o":"m 645 219 q 675 250 645 219 q 706 386 706 281 q 645 551 706 492 q 503 611 585 611 q 360 551 421 611 q 300 385 300 490 q 360 219 300 279 q 503 158 421 158 q 645 219 585 158 m 300 650 q 540 781 382 781 q 801 670 699 781 q 904 385 904 560 q 801 100 904 211 q 542 -11 699 -11 q 300 129 386 -11 l 300 0 l 104 0 l 104 1028 l 300 1028 l 300 650 z "},"c":{"ha":833,"x_min":50,"x_max":790,"o":"m 156 97 q 103 151 156 97 q 50 385 50 206 q 156 672 50 564 q 429 781 261 781 q 664 713 569 781 q 790 519 758 644 l 579 519 q 429 615 542 615 q 297 553 344 615 q 249 385 249 492 q 297 216 249 278 q 429 154 344 154 q 579 251 540 154 l 790 251 q 662 60 757 131 q 429 -11 567 -11 q 156 97 261 -11 z "},"d":{"ha":954,"x_min":50,"x_max":850,"o":"m 594 219 q 625 249 594 219 q 656 385 656 279 q 594 551 656 490 q 451 611 533 611 q 309 551 369 611 q 249 386 249 492 q 310 219 249 281 q 452 158 371 158 q 594 219 533 158 m 153 101 q 102 157 153 101 q 50 386 50 213 q 153 670 50 560 q 414 781 256 781 q 656 650 572 781 l 656 1028 l 850 1028 l 850 0 l 656 0 l 656 129 q 413 -11 568 -11 q 153 101 257 -11 z "},"e":{"ha":867,"x_min":50,"x_max":817,"o":"m 429 -11 q 156 98 261 -11 q 50 386 50 207 q 156 673 50 565 q 431 781 263 781 q 708 676 600 781 q 817 396 817 571 q 811 321 817 356 l 250 321 q 306 200 257 246 q 429 154 354 154 q 579 238 531 154 l 790 238 q 661 58 757 128 q 429 -11 565 -11 m 614 447 q 558 569 610 524 q 432 615 506 615 q 309 569 358 615 q 250 447 260 524 l 614 447 z "},"f":{"ha":464,"x_min":33,"x_max":433,"o":"m 433 769 l 433 610 l 311 610 l 311 0 l 117 0 l 117 610 l 33 610 l 33 769 l 117 769 l 117 813 q 190 1015 117 951 q 422 1079 264 1079 l 422 915 q 336 892 361 915 q 311 813 311 868 l 311 769 l 433 769 z "},"g":{"ha":954,"x_min":50,"x_max":850,"o":"m 153 101 q 102 157 153 101 q 50 386 50 213 q 153 670 50 560 q 414 781 256 781 q 656 650 572 781 l 656 769 l 850 769 l 850 -6 q 753 -276 850 -171 q 480 -381 656 -381 q 201 -308 304 -381 q 83 -100 97 -235 l 275 -100 q 344 -181 293 -151 q 474 -211 396 -211 q 603 -160 551 -211 q 656 -6 656 -108 l 656 129 q 413 -11 568 -11 q 153 101 257 -11 m 594 219 q 625 249 594 219 q 656 385 656 279 q 594 551 656 490 q 451 611 533 611 q 309 551 369 611 q 249 386 249 492 q 310 219 249 281 q 452 158 371 158 q 594 219 533 158 z "},"h":{"ha":935,"x_min":104,"x_max":838,"o":"m 300 1028 l 300 654 q 539 781 374 781 q 754 694 671 781 q 838 453 838 607 l 838 0 l 643 0 l 643 425 q 597 563 643 515 q 472 611 551 611 q 347 563 393 611 q 300 425 300 515 l 300 0 l 104 0 l 104 1028 l 300 1028 z "},"i":{"ha":404,"x_min":83,"x_max":321,"o":"m 321 965 q 321 940 321 965 q 286 881 321 915 q 202 846 251 846 q 118 881 153 846 q 83 965 83 915 q 118 1050 83 1015 q 202 1085 153 1085 q 286 1050 251 1085 q 321 965 321 1015 m 104 0 l 104 769 l 300 769 l 300 0 l 104 0 z "},"j":{"ha":404,"x_min":-32,"x_max":321,"o":"m 104 769 l 300 769 l 300 -133 q 236 -312 300 -258 q 54 -367 172 -367 l -32 -367 l -32 -201 l 24 -201 q 86 -185 68 -201 q 104 -133 104 -169 l 104 769 m 321 965 q 321 940 321 965 q 286 881 321 915 q 202 846 251 846 q 118 881 153 846 q 83 965 83 915 q 118 1050 83 1015 q 202 1085 153 1085 q 286 1050 251 1085 q 321 965 321 1015 z "},"k":{"ha":833,"x_min":104,"x_max":825,"o":"m 300 0 l 104 0 l 104 1028 l 300 1028 l 300 440 l 560 769 l 825 769 l 483 381 l 825 0 l 564 0 l 300 321 l 300 0 z "},"l":{"ha":404,"x_min":104,"x_max":300,"o":"m 104 0 l 104 1028 l 300 1028 l 300 0 l 104 0 z "},"m":{"ha":1472,"x_min":104,"x_max":1375,"o":"m 300 769 l 300 654 q 539 781 374 781 q 695 740 626 781 q 801 625 764 700 q 912 739 842 697 q 1069 781 982 781 q 1291 694 1207 781 q 1375 453 1375 608 l 1375 0 l 1181 0 l 1181 425 q 1135 563 1181 515 q 1010 611 1089 611 q 884 563 931 611 q 838 425 838 515 l 838 0 l 643 0 l 643 425 q 597 563 643 515 q 472 611 551 611 q 347 563 393 611 q 300 425 300 515 l 300 0 l 104 0 l 104 769 l 300 769 z "},"n":{"ha":935,"x_min":104,"x_max":838,"o":"m 300 769 l 300 654 q 539 781 374 781 q 754 694 671 781 q 838 453 838 607 l 838 0 l 643 0 l 643 425 q 597 563 643 515 q 472 611 551 611 q 347 563 393 611 q 300 425 300 515 l 300 0 l 104 0 l 104 769 l 300 769 z "},"o":{"ha":896,"x_min":51,"x_max":844,"o":"m 446 154 q 487 154 446 154 q 587 215 528 154 q 646 385 646 275 q 588 556 646 496 q 447 615 529 615 q 307 556 364 615 q 250 385 250 496 q 307 214 250 274 q 446 154 364 154 m 164 99 q 108 153 164 99 q 51 386 51 208 q 165 672 51 564 q 448 781 279 781 q 731 672 617 781 q 844 386 844 564 q 730 99 844 208 q 446 -11 615 -11 q 164 99 276 -11 z "},"p":{"ha":954,"x_min":104,"x_max":904,"o":"m 645 219 q 675 250 645 219 q 706 386 706 281 q 645 551 706 492 q 503 611 585 611 q 360 551 421 611 q 300 385 300 490 q 360 219 300 279 q 503 158 421 158 q 645 219 585 158 m 300 650 q 540 781 382 781 q 801 670 699 781 q 904 385 904 560 q 801 100 904 211 q 542 -11 699 -11 q 300 129 386 -11 l 300 -367 l 104 -367 l 104 769 l 300 769 l 300 650 z "},"q":{"ha":954,"x_min":50,"x_max":850,"o":"m 594 219 q 625 249 594 219 q 656 385 656 279 q 594 551 656 490 q 451 611 533 611 q 309 551 369 611 q 249 386 249 492 q 310 219 249 281 q 452 158 371 158 q 594 219 533 158 m 153 101 q 102 157 153 101 q 50 386 50 213 q 153 670 50 560 q 414 781 256 781 q 656 650 572 781 l 656 769 l 850 769 l 850 -367 l 656 -367 l 656 129 q 413 -11 568 -11 q 153 101 257 -11 z "},"r":{"ha":560,"x_min":104,"x_max":525,"o":"m 300 769 l 300 633 q 525 781 378 781 l 525 581 l 476 581 q 344 537 389 581 q 300 386 300 493 l 300 0 l 104 0 l 104 769 l 300 769 z "},"s":{"ha":756,"x_min":60,"x_max":693,"o":"m 61 544 q 146 713 61 644 q 371 781 231 781 q 596 713 511 781 q 686 531 681 646 l 486 531 q 367 628 478 628 q 281 606 311 628 q 250 544 250 583 q 296 483 250 506 q 407 449 342 461 q 537 417 472 436 q 647 351 601 399 q 693 224 693 303 q 605 54 693 119 q 380 -11 517 -11 q 156 53 243 -11 q 60 239 68 118 l 260 239 q 383 142 271 142 q 471 166 438 142 q 504 230 504 190 q 458 292 504 269 q 347 328 413 315 q 217 358 282 340 q 107 423 153 376 q 61 544 61 469 z "},"t":{"ha":544,"x_min":44,"x_max":496,"o":"m 403 164 l 496 164 l 496 0 l 372 0 q 190 54 254 0 q 126 233 126 108 l 126 610 l 44 610 l 44 769 l 126 769 l 126 960 l 322 960 l 322 769 l 494 769 l 494 610 l 322 610 l 322 233 q 340 180 322 196 q 403 164 358 164 z "},"u":{"ha":935,"x_min":97,"x_max":831,"o":"m 635 769 l 831 769 l 831 0 l 635 0 l 635 117 q 394 -10 561 -10 q 181 77 264 -10 q 97 318 97 164 l 97 769 l 292 769 l 292 346 q 338 207 292 256 q 463 158 383 158 q 588 207 542 158 q 635 346 635 256 l 635 769 z "},"v":{"ha":832,"x_min":10,"x_max":822,"o":"m 10 769 l 218 769 l 417 168 l 614 769 l 822 769 l 539 0 l 293 0 l 10 769 z "},"w":{"ha":1172,"x_min":10,"x_max":1164,"o":"m 976 769 l 1164 769 l 928 0 l 719 0 l 588 517 l 454 0 l 246 0 l 10 769 l 207 769 l 349 185 l 490 769 l 696 769 l 835 186 l 976 769 z "},"x":{"ha":725,"x_min":10,"x_max":717,"o":"m 717 769 l 467 393 l 715 0 l 496 0 l 349 232 l 207 0 l 10 0 l 258 375 l 10 769 l 229 769 l 376 536 l 518 769 l 717 769 z "},"y":{"ha":846,"x_min":10,"x_max":836,"o":"m 311 14 l 10 769 l 229 769 l 425 222 l 632 769 l 836 769 l 356 -364 l 151 -364 l 311 14 z "},"z":{"ha":683,"x_min":65,"x_max":617,"o":"m 617 769 l 617 610 l 293 161 l 617 161 l 617 0 l 65 0 l 65 161 l 390 610 l 65 610 l 65 769 l 617 769 z "},"{":{"ha":744,"x_min":144,"x_max":635,"o":"m 472 342 q 461 215 472 299 q 450 75 450 132 q 501 -156 450 -62 q 635 -279 551 -249 l 635 -301 l 436 -301 q 257 51 257 -221 q 269 188 257 101 q 281 322 281 275 q 144 481 281 465 l 144 553 q 281 711 281 567 q 269 845 281 758 q 257 982 257 932 q 436 1335 257 1254 l 635 1335 l 635 1313 q 501 1189 551 1282 q 450 958 450 1096 q 461 818 450 901 q 472 692 472 735 q 326 518 472 546 l 326 515 q 472 342 472 488 z "},"|":{"ha":488,"x_min":146,"x_max":342,"o":"m 146 1122 l 342 1122 l 342 -167 l 146 -167 l 146 1122 z "},"}":{"ha":729,"x_min":111,"x_max":600,"o":"m 274 692 q 285 818 274 735 q 296 958 296 901 q 245 1189 296 1096 q 111 1313 194 1282 l 111 1335 l 308 1335 q 488 982 488 1254 q 476 845 488 932 q 464 706 464 758 q 494 606 464 653 q 600 553 525 560 l 600 481 q 494 426 525 472 q 464 328 464 381 q 476 188 464 275 q 488 51 488 101 q 308 -301 488 -221 l 111 -301 l 111 -279 q 245 -156 194 -249 q 296 75 296 -62 q 285 215 296 132 q 274 342 274 299 q 419 515 274 488 l 419 518 q 274 692 274 546 z "},"~":{"ha":818,"x_min":46,"x_max":772,"o":"m 289 574 q 428 528 351 574 q 540 483 504 483 q 601 506 576 483 q 632 572 626 529 l 772 572 q 528 310 729 310 q 389 355 465 310 q 276 400 313 400 q 215 377 240 400 q 185 311 190 354 l 46 311 q 289 574 89 574 z "}," ":{"ha":417,"x_min":0,"x_max":0,"o":""},"¡":{"ha":610,"x_min":194,"x_max":418,"o":"m 197 -262 l 219 454 l 383 454 l 406 -262 l 197 -262 m 194 669 q 194 693 194 669 q 227 749 194 717 q 306 781 260 781 q 385 749 353 781 q 418 669 418 717 q 385 590 418 622 q 306 558 353 558 q 227 590 260 558 q 194 669 194 622 z "},"¢":{"ha":919,"x_min":85,"x_max":792,"o":"m 456 563 q 320 508 369 563 q 271 358 271 454 q 320 208 271 263 q 456 154 369 154 q 611 251 582 154 l 792 251 q 704 79 783 149 q 504 -3 625 10 l 504 -121 l 404 -121 l 404 -3 q 167 110 250 11 q 85 358 85 208 q 167 606 85 508 q 404 718 250 704 l 404 836 l 504 836 l 504 718 q 704 637 625 706 q 792 464 783 568 l 611 464 q 456 563 582 563 z "},"£":{"ha":908,"x_min":54,"x_max":794,"o":"m 794 151 l 794 -4 l 121 -4 l 90 97 q 181 220 153 157 q 210 378 210 283 q 207 410 210 388 l 54 410 l 54 543 l 168 543 q 142 707 142 631 q 232 937 142 856 q 474 1018 322 1018 q 706 932 626 1018 q 788 713 786 846 l 608 713 q 471 857 608 857 q 365 818 403 857 q 326 706 326 779 q 356 543 326 633 l 619 543 l 619 410 l 393 410 q 396 376 396 388 q 303 151 396 243 l 794 151 z "},"¤":{"ha":781,"x_min":83,"x_max":697,"o":"m 617 671 q 661 525 661 608 q 618 379 661 442 l 697 300 l 617 219 l 531 306 q 389 275 467 275 q 250 306 311 275 l 164 219 l 83 300 l 163 379 q 119 524 119 439 q 164 671 119 608 l 83 751 l 164 833 l 253 744 q 390 772 315 772 q 528 744 465 772 l 617 833 l 697 751 l 617 671 m 306 421 q 323 403 306 421 q 389 385 340 385 q 473 421 438 385 q 508 524 508 457 q 474 628 508 592 q 390 664 439 664 q 306 628 340 664 q 271 524 271 592 q 306 421 271 457 z "},"¥":{"ha":893,"x_min":21,"x_max":872,"o":"m 822 568 l 822 433 l 596 432 l 544 333 l 544 329 l 822 329 l 822 193 l 544 193 l 544 0 l 349 0 l 349 193 l 71 193 l 71 329 l 349 329 l 349 333 l 297 432 l 71 433 l 71 568 l 228 568 l 21 969 l 240 969 l 447 513 l 653 969 l 872 969 l 665 568 l 822 568 z "},"¦":{"ha":488,"x_min":146,"x_max":342,"o":"m 342 569 l 146 569 l 146 1122 l 342 1122 l 342 569 m 146 386 l 342 386 l 342 -167 l 146 -167 l 146 386 z "},"§":{"ha":808,"x_min":50,"x_max":760,"o":"m 707 735 l 508 735 q 401 846 500 846 q 296 756 296 846 q 338 679 296 710 q 508 599 381 649 q 697 488 635 549 q 760 339 760 428 q 604 121 760 199 q 711 -56 711 47 q 627 -231 711 -160 q 406 -303 543 -303 q 186 -238 269 -303 q 103 -57 103 -174 l 301 -57 q 407 -168 310 -168 q 513 -78 513 -168 q 470 -1 513 -32 q 301 80 428 31 q 112 190 174 129 q 50 339 50 250 q 204 557 50 489 q 99 733 99 629 q 183 909 99 838 q 403 981 267 981 q 623 916 539 981 q 707 735 707 851 m 296 248 q 317 230 296 248 q 406 211 338 211 q 515 248 474 211 q 556 339 556 285 q 514 430 556 393 q 404 467 472 467 q 295 430 336 467 q 254 339 254 393 q 296 248 254 285 z "},"¨":{"ha":468,"x_min":14,"x_max":454,"o":"m 428 888 q 415 874 428 888 q 363 861 401 861 q 297 888 324 861 q 271 953 271 914 q 297 1018 271 992 q 363 1044 324 1044 q 428 1018 401 1044 q 454 953 454 992 q 428 888 454 914 m 171 888 q 158 874 171 888 q 106 861 144 861 q 40 888 67 861 q 14 953 14 914 q 40 1018 14 992 q 106 1044 67 1044 q 171 1018 144 1044 q 197 953 197 992 q 171 888 197 914 z "},"©":{"ha":1096,"x_min":61,"x_max":1033,"o":"m 548 983 q 656 983 548 983 q 899 844 764 983 q 1033 487 1033 706 q 898 128 1033 268 q 547 -11 763 -11 q 197 128 332 -11 q 61 487 61 268 q 197 844 61 706 q 548 983 332 983 m 547 914 q 453 914 547 914 q 248 798 358 914 q 138 487 138 682 q 248 174 138 292 q 547 57 358 57 q 847 174 736 57 q 958 487 958 292 q 847 798 958 682 q 547 914 736 914 m 831 379 q 727 228 804 285 q 530 171 650 171 q 324 258 410 171 q 238 488 238 344 q 323 717 238 631 q 530 803 408 803 q 728 748 651 803 q 831 594 804 693 l 660 594 q 542 668 632 668 q 439 620 476 668 q 401 488 401 572 q 439 354 401 403 q 542 306 476 306 q 660 379 626 306 l 831 379 z "},"ª":{"ha":642,"x_min":39,"x_max":592,"o":"m 317 594 q 343 594 317 594 q 405 631 368 594 q 442 733 442 667 q 405 835 442 799 q 317 872 368 872 q 230 835 267 872 q 193 733 193 799 q 230 631 193 668 q 317 594 267 594 m 108 554 q 73 590 108 554 q 39 735 39 626 q 108 914 39 843 q 284 985 176 985 q 442 900 392 985 l 442 978 l 592 978 l 592 489 l 442 489 l 442 568 q 285 482 393 482 q 108 554 176 482 z "},"«":{"ha":722,"x_min":63,"x_max":653,"o":"m 526 410 l 653 167 l 471 167 l 347 410 l 471 653 l 653 653 l 526 410 m 242 410 l 368 167 l 186 167 l 63 410 l 186 653 l 368 653 l 242 410 z "},"¬":{"ha":1054,"x_min":50,"x_max":975,"o":"m 50 458 l 50 608 l 975 608 l 975 271 l 781 271 l 781 458 l 50 458 z "},"­":{"ha":810,"x_min":110,"x_max":700,"o":"m 110 414 l 110 576 l 700 576 l 700 414 l 110 414 z "},"®":{"ha":1096,"x_min":61,"x_max":1065,"o":"m 61 487 q 61 596 61 487 q 201 844 61 706 q 563 983 340 983 q 926 844 786 983 q 1065 487 1065 706 q 926 128 1065 268 q 563 -11 786 -11 q 201 128 340 -11 q 61 487 61 268 m 253 174 q 310 116 253 174 q 564 57 368 57 q 874 174 760 57 q 989 487 989 292 q 874 798 989 682 q 563 914 760 914 q 252 798 367 914 q 138 487 138 682 q 253 174 138 292 m 360 807 l 586 807 q 751 753 693 807 q 810 630 810 699 q 774 510 810 561 q 661 442 738 460 l 819 186 l 674 186 l 525 433 l 482 433 l 482 186 l 360 186 l 360 807 m 482 711 l 482 528 l 586 528 q 658 552 633 528 q 683 619 683 576 q 658 687 683 663 q 586 711 633 711 l 482 711 z "},"¯":{"ha":558,"x_min":14,"x_max":544,"o":"m 14 878 l 14 1017 l 544 1017 l 544 878 l 14 878 z "},"°":{"ha":617,"x_min":38,"x_max":579,"o":"m 306 592 q 331 592 306 592 q 391 628 356 592 q 426 731 426 664 q 392 835 426 799 q 308 872 357 872 q 224 835 258 872 q 189 731 189 799 q 223 628 189 664 q 306 592 257 592 m 308 482 q 248 482 308 482 q 113 550 188 482 q 38 731 38 618 q 113 912 38 844 q 308 979 188 979 q 504 912 429 979 q 579 731 579 844 q 503 550 579 618 q 308 482 428 482 z "},"±":{"ha":953,"x_min":122,"x_max":831,"o":"m 831 504 l 569 504 l 569 338 l 831 338 l 831 163 l 122 163 l 122 338 l 383 338 l 383 504 l 122 504 l 122 679 l 383 679 l 383 858 l 569 858 l 569 679 l 831 679 l 831 504 z "},"²":{"ha":500,"x_min":44,"x_max":449,"o":"m 446 607 l 446 489 l 47 489 l 47 603 l 206 711 q 292 824 292 768 q 278 864 292 849 q 242 879 264 879 q 194 832 199 879 l 44 832 q 101 947 46 904 q 248 990 156 990 q 394 942 340 990 q 449 838 449 894 q 417 746 449 782 q 314 667 386 710 l 208 607 l 446 607 z "},"³":{"ha":496,"x_min":24,"x_max":454,"o":"m 31 835 q 91 947 33 903 q 241 990 149 990 q 391 946 333 990 q 449 840 449 901 q 365 738 449 763 l 365 733 q 454 622 454 701 q 393 522 454 561 q 238 483 332 483 q 85 526 144 483 q 24 643 25 569 l 172 643 q 236 590 181 590 q 278 605 261 590 q 294 642 294 619 q 277 679 294 665 q 231 693 260 693 l 190 693 l 190 786 l 225 786 q 288 833 288 786 q 233 881 288 881 q 171 835 178 881 l 31 835 z "},"´":{"ha":347,"x_min":14,"x_max":333,"o":"m 14 961 l 333 1128 l 333 969 l 14 824 l 14 961 z "},"µ":{"ha":942,"x_min":104,"x_max":838,"o":"m 642 769 l 838 769 l 838 0 l 642 0 l 642 117 q 401 -10 568 -10 q 299 17 344 -10 l 299 -367 l 104 -367 l 104 769 l 299 769 l 299 346 q 344 207 299 256 q 469 158 390 158 q 595 207 549 158 q 642 346 642 256 l 642 769 z "},"¶":{"ha":925,"x_min":44,"x_max":821,"o":"m 374 969 l 821 969 l 821 0 l 656 0 l 656 819 l 565 819 l 565 0 l 400 0 l 400 386 l 374 386 q 127 469 210 386 q 44 678 44 551 q 127 887 44 804 q 374 969 210 969 z "},"·":{"ha":360,"x_min":69,"x_max":292,"o":"m 292 460 q 292 436 292 460 q 259 381 292 413 q 180 349 226 349 q 101 381 133 349 q 69 460 69 413 q 101 539 69 507 q 180 571 133 571 q 259 539 226 571 q 292 460 292 507 z "},"¸":{"ha":410,"x_min":14,"x_max":396,"o":"m 215 10 l 215 -60 q 344 -97 293 -60 q 396 -208 396 -135 q 344 -324 396 -282 q 217 -367 292 -367 l 14 -367 l 14 -253 l 169 -253 q 229 -245 211 -253 q 247 -208 247 -237 q 230 -172 247 -179 q 169 -165 213 -165 l 93 -165 l 93 10 l 215 10 z "},"¹":{"ha":315,"x_min":28,"x_max":256,"o":"m 107 489 l 107 864 l 28 864 l 28 978 l 256 978 l 256 489 l 107 489 z "},"º":{"ha":629,"x_min":39,"x_max":590,"o":"m 400 628 q 418 647 400 628 q 436 733 436 665 q 400 839 436 801 q 314 876 364 876 q 228 840 264 876 q 193 734 193 803 q 228 628 193 665 q 314 592 264 592 q 400 628 364 592 m 314 482 q 253 482 314 482 q 116 551 193 482 q 39 734 39 619 q 116 917 39 849 q 315 985 193 985 q 514 917 438 985 q 590 734 590 849 q 513 551 590 619 q 314 482 435 482 z "},"»":{"ha":722,"x_min":69,"x_max":660,"o":"m 253 167 l 69 167 l 197 410 l 69 653 l 253 653 l 375 410 l 253 167 m 538 167 l 354 167 l 482 410 l 354 653 l 538 653 l 660 410 l 538 167 z "},"¼":{"ha":1014,"x_min":51,"x_max":967,"o":"m 131 489 l 131 864 l 51 864 l 51 978 l 279 978 l 279 489 l 131 489 m 763 178 l 763 392 l 639 178 l 763 178 m 907 178 l 967 178 l 967 90 l 907 90 l 907 0 l 757 0 l 757 90 l 493 90 l 493 171 l 693 490 l 907 490 l 907 178 m 104 0 l 636 972 l 822 972 l 290 0 l 104 0 z "},"½":{"ha":1051,"x_min":51,"x_max":979,"o":"m 976 117 l 976 -1 l 578 -1 l 578 113 l 736 221 q 822 333 822 278 q 808 374 822 358 q 772 389 794 389 q 725 342 729 389 l 575 342 q 631 457 576 414 q 778 500 686 500 q 925 452 871 500 q 979 348 979 404 q 948 256 979 292 q 844 176 917 219 l 739 117 l 976 117 m 628 972 l 814 972 l 290 0 l 104 0 l 628 972 m 131 489 l 131 864 l 51 864 l 51 978 l 279 978 l 279 489 l 131 489 z "},"¾":{"ha":1126,"x_min":58,"x_max":1094,"o":"m 65 835 q 126 947 68 903 q 276 990 183 990 q 426 946 368 990 q 483 840 483 901 q 400 738 483 763 l 400 733 q 489 622 489 701 q 428 522 489 561 q 273 483 367 483 q 119 526 179 483 q 58 643 60 569 l 207 643 q 271 590 215 590 q 313 605 296 590 q 329 642 329 619 q 312 679 329 665 q 265 693 294 693 l 225 693 l 225 786 l 260 786 q 322 833 322 786 q 267 881 322 881 q 206 835 213 881 l 65 835 m 892 178 l 892 392 l 767 178 l 892 178 m 1035 178 l 1094 178 l 1094 90 l 1035 90 l 1035 0 l 886 0 l 886 90 l 622 90 l 622 171 l 821 490 l 1035 490 l 1035 178 m 235 0 l 782 972 l 968 972 l 421 0 l 235 0 z "},"¿":{"ha":890,"x_min":122,"x_max":764,"o":"m 608 749 q 624 733 608 749 q 640 669 640 717 q 608 590 640 622 q 528 558 575 558 q 449 590 482 558 q 417 669 417 622 q 449 749 417 717 q 528 781 482 781 q 608 749 575 781 m 761 22 q 678 -189 764 -107 q 447 -271 593 -271 q 211 -192 300 -271 q 122 30 122 -112 q 203 236 122 172 q 442 303 283 300 l 442 454 l 625 454 l 625 174 l 546 174 q 369 143 426 174 q 311 24 311 113 q 347 -74 311 -37 q 444 -110 382 -110 q 541 -74 506 -110 q 576 22 576 -39 l 761 22 z "},"À":{"ha":979,"x_min":31,"x_max":947,"o":"m 740 0 l 678 182 l 300 182 l 238 0 l 31 0 l 374 972 l 606 972 l 947 0 l 740 0 m 351 332 l 628 332 l 489 736 l 351 332 m 640 1163 l 640 1025 l 321 1171 l 321 1329 l 640 1163 z "},"Á":{"ha":979,"x_min":31,"x_max":947,"o":"m 740 0 l 678 182 l 300 182 l 238 0 l 31 0 l 374 972 l 606 972 l 947 0 l 740 0 m 351 332 l 628 332 l 489 736 l 351 332 m 640 1329 l 640 1171 l 321 1025 l 321 1163 l 640 1329 z "},"Â":{"ha":979,"x_min":31,"x_max":947,"o":"m 740 0 l 678 182 l 300 182 l 238 0 l 31 0 l 374 972 l 606 972 l 947 0 l 740 0 m 351 332 l 628 332 l 489 736 l 351 332 m 696 1028 l 490 1149 l 283 1028 l 283 1171 l 490 1286 l 696 1171 l 696 1028 z "},"Ã":{"ha":979,"x_min":31,"x_max":947,"o":"m 740 0 l 678 182 l 300 182 l 238 0 l 31 0 l 374 972 l 606 972 l 947 0 l 740 0 m 351 332 l 628 332 l 489 736 l 351 332 m 575 1046 q 481 1077 532 1046 q 404 1108 429 1108 q 343 1047 353 1108 l 243 1047 q 413 1229 271 1229 q 507 1199 456 1229 q 583 1168 558 1168 q 643 1228 635 1168 l 744 1228 q 575 1046 717 1046 z "},"Ä":{"ha":979,"x_min":31,"x_max":947,"o":"m 740 0 l 678 182 l 300 182 l 238 0 l 31 0 l 374 972 l 606 972 l 947 0 l 740 0 m 351 332 l 628 332 l 489 736 l 351 332 m 426 1089 q 413 1076 426 1089 q 361 1063 400 1063 q 296 1089 322 1063 q 269 1154 269 1115 q 296 1219 269 1193 q 361 1246 322 1246 q 426 1219 400 1246 q 453 1154 453 1193 q 426 1089 453 1115 m 683 1089 q 670 1076 683 1089 q 618 1063 657 1063 q 553 1089 579 1063 q 526 1154 526 1115 q 553 1219 526 1193 q 618 1246 579 1246 q 683 1219 657 1246 q 710 1154 710 1193 q 683 1089 710 1115 z "},"Å":{"ha":979,"x_min":31,"x_max":947,"o":"m 740 0 l 678 182 l 300 182 l 238 0 l 31 0 l 374 972 l 606 972 l 947 0 l 740 0 m 351 332 l 628 332 l 489 736 l 351 332 m 603 1081 q 581 1059 603 1081 q 490 1038 558 1038 q 376 1081 422 1038 q 331 1197 331 1125 q 376 1313 331 1269 q 490 1357 422 1357 q 603 1313 558 1357 q 649 1197 649 1269 q 603 1081 649 1125 m 540 1249 q 530 1258 540 1249 q 490 1268 519 1268 q 441 1249 461 1268 q 421 1199 421 1229 q 441 1149 421 1168 q 490 1129 461 1129 q 540 1149 519 1129 q 560 1199 560 1168 q 540 1249 560 1229 z "},"Æ":{"ha":1318,"x_min":15,"x_max":1224,"o":"m 1224 822 l 860 822 l 860 568 l 1182 568 l 1182 418 l 860 418 l 860 150 l 1224 150 l 1224 0 l 664 0 l 664 182 l 322 182 l 228 0 l 15 0 l 529 972 l 1224 972 l 1224 822 m 664 332 l 664 840 l 400 332 l 664 332 z "},"Ç":{"ha":1068,"x_min":50,"x_max":1003,"o":"m 546 804 q 331 717 414 804 q 249 487 249 631 q 331 256 249 343 q 546 169 414 169 q 768 297 701 169 l 1003 297 q 848 87 954 165 q 603 -6 742 8 l 603 -60 q 732 -97 681 -60 q 783 -208 783 -135 q 731 -324 783 -282 q 604 -367 679 -367 l 401 -367 l 401 -253 l 557 -253 q 617 -245 599 -253 q 635 -208 635 -237 q 617 -172 635 -179 q 557 -165 600 -165 l 481 -165 l 481 -4 q 172 154 294 18 q 50 497 50 290 q 194 843 50 703 q 546 983 338 983 q 827 903 704 983 q 1003 676 950 822 l 768 676 q 546 804 703 804 z "},"È":{"ha":760,"x_min":104,"x_max":664,"o":"m 211 1171 l 211 1329 l 531 1163 l 531 1025 l 211 1171 m 664 972 l 664 822 l 300 822 l 300 568 l 622 568 l 622 418 l 300 418 l 300 150 l 664 150 l 664 0 l 104 0 l 104 972 l 664 972 z "},"É":{"ha":760,"x_min":104,"x_max":664,"o":"m 664 972 l 664 822 l 300 822 l 300 568 l 622 568 l 622 418 l 300 418 l 300 150 l 664 150 l 664 0 l 104 0 l 104 972 l 664 972 m 211 1163 l 531 1329 l 531 1171 l 211 1025 l 211 1163 z "},"Ê":{"ha":760,"x_min":104,"x_max":664,"o":"m 664 972 l 664 822 l 300 822 l 300 568 l 622 568 l 622 418 l 300 418 l 300 150 l 664 150 l 664 0 l 104 0 l 104 972 l 664 972 m 586 1171 l 586 1028 l 381 1149 l 174 1028 l 174 1171 l 381 1286 l 586 1171 z "},"Ë":{"ha":760,"x_min":104,"x_max":664,"o":"m 664 972 l 664 822 l 300 822 l 300 568 l 622 568 l 622 418 l 300 418 l 300 150 l 664 150 l 664 0 l 104 0 l 104 972 l 664 972 m 572 1089 q 559 1076 572 1089 q 507 1063 546 1063 q 442 1089 468 1063 q 415 1154 415 1115 q 442 1219 415 1193 q 507 1246 468 1246 q 572 1219 546 1246 q 599 1154 599 1193 q 572 1089 599 1115 m 315 1089 q 302 1076 315 1089 q 250 1063 289 1063 q 185 1089 211 1063 q 158 1154 158 1115 q 185 1219 158 1193 q 250 1246 211 1246 q 315 1219 289 1246 q 342 1154 342 1193 q 315 1089 342 1115 z "},"Ì":{"ha":404,"x_min":33,"x_max":353,"o":"m 33 1171 l 33 1329 l 353 1163 l 353 1025 l 33 1171 m 104 0 l 104 969 l 300 969 l 300 0 l 104 0 z "},"Í":{"ha":404,"x_min":33,"x_max":353,"o":"m 33 1163 l 353 1329 l 353 1171 l 33 1025 l 33 1163 m 104 0 l 104 969 l 300 969 l 300 0 l 104 0 z "},"Î":{"ha":404,"x_min":-4,"x_max":408,"o":"m 408 1171 l 408 1028 l 203 1149 l -4 1028 l -4 1171 l 203 1286 l 408 1171 m 104 0 l 104 969 l 300 969 l 300 0 l 104 0 z "},"Ï":{"ha":404,"x_min":-18,"x_max":422,"o":"m 396 1089 q 383 1076 396 1089 q 331 1063 369 1063 q 265 1089 292 1063 q 239 1154 239 1115 q 265 1219 239 1193 q 331 1246 292 1246 q 396 1219 369 1246 q 422 1154 422 1193 q 396 1089 422 1115 m 139 1089 q 126 1076 139 1089 q 74 1063 113 1063 q 8 1089 35 1063 q -18 1154 -18 1115 q 8 1219 -18 1193 q 74 1246 35 1246 q 139 1219 113 1246 q 165 1154 165 1193 q 139 1089 165 1115 m 104 0 l 104 969 l 300 969 l 300 0 l 104 0 z "},"Ð":{"ha":1013,"x_min":19,"x_max":963,"o":"m 113 969 l 442 969 q 819 836 675 969 q 963 483 963 703 q 819 132 963 264 q 442 0 675 0 l 113 0 l 113 392 l 19 392 l 19 575 l 113 575 l 113 969 m 308 149 l 442 149 q 679 239 594 149 q 764 483 764 329 q 679 728 764 638 q 442 818 594 818 l 308 818 l 308 575 l 533 575 l 533 392 l 308 392 l 308 149 z "},"Ñ":{"ha":1039,"x_min":104,"x_max":935,"o":"m 442 1229 q 536 1199 485 1229 q 613 1168 588 1168 q 672 1228 664 1168 l 774 1228 q 604 1046 746 1046 q 510 1077 561 1046 q 433 1108 458 1108 q 372 1047 382 1108 l 272 1047 q 442 1229 300 1229 m 739 972 l 935 972 l 935 0 l 739 0 l 300 672 l 300 0 l 104 0 l 104 972 l 300 972 l 739 300 l 739 972 z "},"Ò":{"ha":1092,"x_min":50,"x_max":1042,"o":"m 378 1171 l 378 1329 l 697 1163 l 697 1025 l 378 1171 m 760 256 q 801 300 760 256 q 842 488 842 343 q 760 718 842 632 q 546 804 678 804 q 331 717 414 804 q 249 487 249 631 q 331 256 249 343 q 546 169 414 169 q 760 256 678 169 m 546 -10 q 441 -10 546 -10 q 193 131 336 -10 q 50 487 50 271 q 194 843 50 703 q 547 983 338 983 q 899 843 756 983 q 1042 487 1042 703 q 899 131 1042 271 q 546 -10 756 -10 z "},"Ó":{"ha":1092,"x_min":50,"x_max":1042,"o":"m 760 256 q 801 300 760 256 q 842 488 842 343 q 760 718 842 632 q 546 804 678 804 q 331 717 414 804 q 249 487 249 631 q 331 256 249 343 q 546 169 414 169 q 760 256 678 169 m 546 -10 q 441 -10 546 -10 q 193 131 336 -10 q 50 487 50 271 q 194 843 50 703 q 547 983 338 983 q 899 843 756 983 q 1042 487 1042 703 q 899 131 1042 271 q 546 -10 756 -10 m 378 1163 l 697 1329 l 697 1171 l 378 1025 l 378 1163 z "},"Ô":{"ha":1092,"x_min":50,"x_max":1042,"o":"m 760 256 q 801 300 760 256 q 842 488 842 343 q 760 718 842 632 q 546 804 678 804 q 331 717 414 804 q 249 487 249 631 q 331 256 249 343 q 546 169 414 169 q 760 256 678 169 m 546 -10 q 441 -10 546 -10 q 193 131 336 -10 q 50 487 50 271 q 194 843 50 703 q 547 983 338 983 q 899 843 756 983 q 1042 487 1042 703 q 899 131 1042 271 q 546 -10 756 -10 m 751 1171 l 751 1028 l 546 1149 l 339 1028 l 339 1171 l 546 1286 l 751 1171 z "},"Õ":{"ha":1092,"x_min":50,"x_max":1042,"o":"m 468 1229 q 563 1199 511 1229 q 639 1168 614 1168 q 699 1228 690 1168 l 800 1228 q 631 1046 772 1046 q 536 1077 588 1046 q 460 1108 485 1108 q 399 1047 408 1108 l 299 1047 q 468 1229 326 1229 m 760 256 q 801 300 760 256 q 842 488 842 343 q 760 718 842 632 q 546 804 678 804 q 331 717 414 804 q 249 487 249 631 q 331 256 249 343 q 546 169 414 169 q 760 256 678 169 m 546 -10 q 441 -10 546 -10 q 193 131 336 -10 q 50 487 50 271 q 194 843 50 703 q 547 983 338 983 q 899 843 756 983 q 1042 487 1042 703 q 899 131 1042 271 q 546 -10 756 -10 z "},"Ö":{"ha":1092,"x_min":50,"x_max":1042,"o":"m 760 256 q 801 300 760 256 q 842 488 842 343 q 760 718 842 632 q 546 804 678 804 q 331 717 414 804 q 249 487 249 631 q 331 256 249 343 q 546 169 414 169 q 760 256 678 169 m 546 -10 q 441 -10 546 -10 q 193 131 336 -10 q 50 487 50 271 q 194 843 50 703 q 547 983 338 983 q 899 843 756 983 q 1042 487 1042 703 q 899 131 1042 271 q 546 -10 756 -10 m 739 1089 q 726 1076 739 1089 q 674 1063 713 1063 q 608 1089 635 1063 q 582 1154 582 1115 q 608 1219 582 1193 q 674 1246 635 1246 q 739 1219 713 1246 q 765 1154 765 1193 q 739 1089 765 1115 m 482 1089 q 469 1076 482 1089 q 417 1063 456 1063 q 351 1089 378 1063 q 325 1154 325 1115 q 351 1219 325 1193 q 417 1246 378 1246 q 482 1219 456 1246 q 508 1154 508 1193 q 482 1089 508 1115 z "},"×":{"ha":942,"x_min":142,"x_max":800,"o":"m 800 297 l 672 171 l 469 374 l 268 172 l 142 299 l 343 500 l 147 697 l 274 824 l 471 628 l 667 824 l 793 697 l 597 501 l 800 297 z "},"Ø":{"ha":1092,"x_min":35,"x_max":1057,"o":"m 919 821 q 1042 478 1042 685 q 899 131 1042 271 q 546 -10 756 -10 q 247 85 379 -10 l 169 0 l 35 0 l 174 151 q 50 496 50 289 q 194 843 50 703 q 546 983 338 983 q 846 889 714 983 l 922 972 l 1057 972 l 919 821 m 546 804 q 331 717 414 804 q 249 488 249 631 q 303 293 249 374 l 721 751 q 546 804 649 804 m 546 169 q 760 256 678 169 q 842 488 842 343 q 790 679 842 600 l 372 221 q 546 169 444 169 z "},"Ù":{"ha":985,"x_min":101,"x_max":885,"o":"m 325 1171 l 325 1329 l 644 1163 l 644 1025 l 325 1171 m 101 372 l 101 969 l 297 969 l 297 372 q 348 221 297 272 q 493 169 399 169 q 639 221 588 169 q 690 372 690 272 l 690 969 l 885 969 l 885 372 q 769 90 885 189 q 489 -10 654 -10 q 213 89 324 -10 q 101 372 101 188 z "},"Ú":{"ha":985,"x_min":101,"x_max":885,"o":"m 101 372 l 101 969 l 297 969 l 297 372 q 348 221 297 272 q 493 169 399 169 q 639 221 588 169 q 690 372 690 272 l 690 969 l 885 969 l 885 372 q 769 90 885 189 q 489 -10 654 -10 q 213 89 324 -10 q 101 372 101 188 m 325 1163 l 644 1329 l 644 1171 l 325 1025 l 325 1163 z "},"Û":{"ha":985,"x_min":101,"x_max":885,"o":"m 101 372 l 101 969 l 297 969 l 297 372 q 348 221 297 272 q 493 169 399 169 q 639 221 588 169 q 690 372 690 272 l 690 969 l 885 969 l 885 372 q 769 90 885 189 q 489 -10 654 -10 q 213 89 324 -10 q 101 372 101 188 m 699 1171 l 699 1028 l 493 1149 l 286 1028 l 286 1171 l 493 1286 l 699 1171 z "},"Ü":{"ha":985,"x_min":101,"x_max":885,"o":"m 101 372 l 101 969 l 297 969 l 297 372 q 348 221 297 272 q 493 169 399 169 q 639 221 588 169 q 690 372 690 272 l 690 969 l 885 969 l 885 372 q 769 90 885 189 q 489 -10 654 -10 q 213 89 324 -10 q 101 372 101 188 m 686 1089 q 673 1076 686 1089 q 621 1063 660 1063 q 556 1089 582 1063 q 529 1154 529 1115 q 556 1219 529 1193 q 621 1246 582 1246 q 686 1219 660 1246 q 713 1154 713 1193 q 686 1089 713 1115 m 429 1089 q 416 1076 429 1089 q 364 1063 403 1063 q 299 1089 325 1063 q 272 1154 272 1115 q 299 1219 272 1193 q 364 1246 325 1246 q 429 1219 403 1246 q 456 1154 456 1193 q 429 1089 456 1115 z "},"Ý":{"ha":893,"x_min":21,"x_max":872,"o":"m 544 0 l 349 0 l 349 333 l 21 969 l 240 969 l 447 513 l 653 969 l 872 969 l 544 333 l 544 0 m 599 1329 l 599 1171 l 279 1025 l 279 1163 l 599 1329 z "},"Þ":{"ha":854,"x_min":104,"x_max":811,"o":"m 738 294 q 628 222 700 249 q 461 194 557 194 l 300 194 l 300 0 l 104 0 l 104 972 l 296 972 l 296 779 l 461 779 q 720 695 629 779 q 811 497 811 611 q 738 294 811 382 m 300 344 l 461 344 q 574 383 535 344 q 613 486 613 421 q 574 590 613 551 q 461 629 535 629 l 300 629 l 300 344 z "},"ß":{"ha":989,"x_min":104,"x_max":956,"o":"m 956 269 q 869 67 956 146 q 663 -11 782 -11 q 464 61 543 -11 q 383 256 385 133 l 542 256 q 576 184 547 210 q 650 158 604 158 q 726 192 696 158 q 756 267 756 225 q 733 338 756 308 q 660 397 711 367 l 447 524 l 447 608 l 482 628 q 550 747 550 668 q 515 836 550 800 q 426 872 481 872 q 335 835 372 872 q 299 735 299 797 l 300 0 l 104 0 l 104 733 q 194 959 104 876 q 435 1042 283 1042 q 669 969 588 1042 q 751 792 751 896 q 642 624 751 689 l 765 551 q 912 427 868 492 q 956 269 956 363 z "},"à":{"ha":954,"x_min":50,"x_max":850,"o":"m 308 969 l 308 1128 l 628 961 l 628 824 l 308 969 m 594 219 q 625 249 594 219 q 656 385 656 279 q 594 551 656 490 q 451 611 533 611 q 309 551 369 611 q 249 386 249 492 q 310 219 249 281 q 452 158 371 158 q 594 219 533 158 m 153 101 q 102 157 153 101 q 50 386 50 213 q 153 670 50 560 q 414 781 256 781 q 656 650 572 781 l 656 769 l 850 769 l 850 0 l 656 0 l 656 129 q 413 -11 568 -11 q 153 101 257 -11 z "},"á":{"ha":954,"x_min":50,"x_max":850,"o":"m 308 961 l 628 1128 l 628 969 l 308 824 l 308 961 m 594 219 q 625 249 594 219 q 656 385 656 279 q 594 551 656 490 q 451 611 533 611 q 309 551 369 611 q 249 386 249 492 q 310 219 249 281 q 452 158 371 158 q 594 219 533 158 m 153 101 q 102 157 153 101 q 50 386 50 213 q 153 670 50 560 q 414 781 256 781 q 656 650 572 781 l 656 769 l 850 769 l 850 0 l 656 0 l 656 129 q 413 -11 568 -11 q 153 101 257 -11 z "},"â":{"ha":954,"x_min":50,"x_max":850,"o":"m 683 969 l 683 826 l 478 947 l 271 826 l 271 969 l 478 1085 l 683 969 m 594 219 q 625 249 594 219 q 656 385 656 279 q 594 551 656 490 q 451 611 533 611 q 309 551 369 611 q 249 386 249 492 q 310 219 249 281 q 452 158 371 158 q 594 219 533 158 m 153 101 q 102 157 153 101 q 50 386 50 213 q 153 670 50 560 q 414 781 256 781 q 656 650 572 781 l 656 769 l 850 769 l 850 0 l 656 0 l 656 129 q 413 -11 568 -11 q 153 101 257 -11 z "},"ã":{"ha":954,"x_min":50,"x_max":850,"o":"m 400 1028 q 494 997 443 1028 q 571 967 546 967 q 631 1026 622 967 l 732 1026 q 563 844 704 844 q 468 876 519 844 q 392 907 417 907 q 331 846 340 907 l 231 846 q 400 1028 258 1028 m 594 219 q 625 249 594 219 q 656 385 656 279 q 594 551 656 490 q 451 611 533 611 q 309 551 369 611 q 249 386 249 492 q 310 219 249 281 q 452 158 371 158 q 594 219 533 158 m 153 101 q 102 157 153 101 q 50 386 50 213 q 153 670 50 560 q 414 781 256 781 q 656 650 572 781 l 656 769 l 850 769 l 850 0 l 656 0 l 656 129 q 413 -11 568 -11 q 153 101 257 -11 z "},"ä":{"ha":954,"x_min":50,"x_max":850,"o":"m 671 888 q 658 874 671 888 q 606 861 644 861 q 540 888 567 861 q 514 953 514 914 q 540 1018 514 992 q 606 1044 567 1044 q 671 1018 644 1044 q 697 953 697 992 q 671 888 697 914 m 414 888 q 401 874 414 888 q 349 861 388 861 q 283 888 310 861 q 257 953 257 914 q 283 1018 257 992 q 349 1044 310 1044 q 414 1018 388 1044 q 440 953 440 992 q 414 888 440 914 m 594 219 q 625 249 594 219 q 656 385 656 279 q 594 551 656 490 q 451 611 533 611 q 309 551 369 611 q 249 386 249 492 q 310 219 249 281 q 452 158 371 158 q 594 219 533 158 m 153 101 q 102 157 153 101 q 50 386 50 213 q 153 670 50 560 q 414 781 256 781 q 656 650 572 781 l 656 769 l 850 769 l 850 0 l 656 0 l 656 129 q 413 -11 568 -11 q 153 101 257 -11 z "},"å":{"ha":954,"x_min":50,"x_max":850,"o":"m 527 947 q 537 957 527 947 q 547 997 547 967 q 527 1047 547 1028 q 478 1067 507 1067 q 428 1047 449 1067 q 408 997 408 1028 q 428 947 408 967 q 478 928 449 928 q 527 947 507 928 m 364 880 q 341 902 364 880 q 318 996 318 924 q 364 1112 318 1068 q 478 1156 410 1156 q 591 1112 546 1156 q 636 996 636 1068 q 591 880 636 924 q 478 836 546 836 q 364 880 410 836 m 594 219 q 625 249 594 219 q 656 385 656 279 q 594 551 656 490 q 451 611 533 611 q 309 551 369 611 q 249 386 249 492 q 310 219 249 281 q 452 158 371 158 q 594 219 533 158 m 153 101 q 102 157 153 101 q 50 386 50 213 q 153 670 50 560 q 414 781 256 781 q 656 650 572 781 l 656 769 l 850 769 l 850 0 l 656 0 l 656 129 q 413 -11 568 -11 q 153 101 257 -11 z "},"æ":{"ha":1518,"x_min":50,"x_max":1468,"o":"m 849 769 l 849 660 q 1103 781 943 781 q 1365 673 1263 781 q 1468 396 1468 565 q 1463 321 1468 356 l 882 321 q 952 197 896 239 q 1075 154 1008 154 q 1232 238 1188 154 l 1443 238 q 1322 58 1410 128 q 1111 -11 1233 -11 q 957 24 1029 -11 q 849 119 885 60 l 849 0 l 654 0 l 654 119 q 410 -11 564 -11 q 153 101 257 -11 q 50 386 50 213 q 153 670 50 560 q 415 781 257 781 q 654 660 572 781 l 654 769 l 849 769 m 249 386 q 249 333 249 386 q 310 219 249 281 q 452 158 371 158 q 594 219 533 158 q 656 385 656 279 q 594 551 656 490 q 451 611 533 611 q 309 551 369 611 q 249 386 249 492 m 1267 447 q 1211 569 1263 524 q 1083 615 1160 615 q 949 569 1006 615 q 882 447 893 522 l 1267 447 z "},"ç":{"ha":833,"x_min":50,"x_max":790,"o":"m 429 615 q 297 553 344 615 q 249 385 249 492 q 297 216 249 278 q 429 154 344 154 q 579 251 540 154 l 790 251 q 681 75 761 144 q 486 -8 601 6 l 486 -60 q 615 -97 564 -60 q 667 -208 667 -135 q 615 -324 667 -282 q 488 -367 563 -367 l 285 -367 l 285 -253 l 440 -253 q 500 -245 482 -253 q 518 -208 518 -237 q 501 -172 518 -179 q 440 -165 483 -165 l 364 -165 l 364 -7 q 136 119 222 14 q 50 394 50 225 q 156 672 50 564 q 429 781 261 781 q 664 713 569 781 q 790 519 758 644 l 579 519 q 429 615 542 615 z "},"è":{"ha":867,"x_min":50,"x_max":817,"o":"m 429 -11 q 156 98 261 -11 q 50 386 50 207 q 156 673 50 565 q 431 781 263 781 q 708 676 600 781 q 817 396 817 571 q 811 321 817 356 l 250 321 q 306 200 257 246 q 429 154 354 154 q 579 238 531 154 l 790 238 q 661 58 757 128 q 429 -11 565 -11 m 614 447 q 558 569 610 524 q 432 615 506 615 q 309 569 358 615 q 250 447 260 524 l 614 447 m 585 961 l 585 824 l 265 969 l 265 1128 l 585 961 z "},"é":{"ha":867,"x_min":50,"x_max":817,"o":"m 429 -11 q 156 98 261 -11 q 50 386 50 207 q 156 673 50 565 q 431 781 263 781 q 708 676 600 781 q 817 396 817 571 q 811 321 817 356 l 250 321 q 306 200 257 246 q 429 154 354 154 q 579 238 531 154 l 790 238 q 661 58 757 128 q 429 -11 565 -11 m 614 447 q 558 569 610 524 q 432 615 506 615 q 309 569 358 615 q 250 447 260 524 l 614 447 m 585 1128 l 585 969 l 265 824 l 265 961 l 585 1128 z "},"ê":{"ha":867,"x_min":50,"x_max":817,"o":"m 429 -11 q 156 98 261 -11 q 50 386 50 207 q 156 673 50 565 q 431 781 263 781 q 708 676 600 781 q 817 396 817 571 q 811 321 817 356 l 250 321 q 306 200 257 246 q 429 154 354 154 q 579 238 531 154 l 790 238 q 661 58 757 128 q 429 -11 565 -11 m 614 447 q 558 569 610 524 q 432 615 506 615 q 309 569 358 615 q 250 447 260 524 l 614 447 m 639 826 l 433 947 l 226 826 l 226 969 l 433 1085 l 639 969 l 639 826 z "},"ë":{"ha":867,"x_min":50,"x_max":817,"o":"m 429 -11 q 156 98 261 -11 q 50 386 50 207 q 156 673 50 565 q 431 781 263 781 q 708 676 600 781 q 817 396 817 571 q 811 321 817 356 l 250 321 q 306 200 257 246 q 429 154 354 154 q 579 238 531 154 l 790 238 q 661 58 757 128 q 429 -11 565 -11 m 614 447 q 558 569 610 524 q 432 615 506 615 q 309 569 358 615 q 250 447 260 524 l 614 447 m 369 888 q 356 874 369 888 q 304 861 343 861 q 239 888 265 861 q 213 953 213 914 q 239 1018 213 992 q 304 1044 265 1044 q 369 1018 343 1044 q 396 953 396 992 q 369 888 396 914 m 626 888 q 613 874 626 888 q 561 861 600 861 q 496 888 522 861 q 469 953 469 914 q 496 1018 469 992 q 561 1044 522 1044 q 626 1018 600 1044 q 653 953 653 992 q 626 888 653 914 z "},"ì":{"ha":404,"x_min":33,"x_max":353,"o":"m 33 969 l 33 1128 l 353 961 l 353 824 l 33 969 m 104 0 l 104 769 l 300 769 l 300 0 l 104 0 z "},"í":{"ha":404,"x_min":33,"x_max":353,"o":"m 104 0 l 104 769 l 300 769 l 300 0 l 104 0 m 33 961 l 353 1128 l 353 969 l 33 824 l 33 961 z "},"î":{"ha":404,"x_min":-4,"x_max":408,"o":"m 104 0 l 104 769 l 300 769 l 300 0 l 104 0 m 408 969 l 408 826 l 203 947 l -4 826 l -4 969 l 203 1085 l 408 969 z "},"ï":{"ha":404,"x_min":-18,"x_max":422,"o":"m 104 0 l 104 769 l 300 769 l 300 0 l 104 0 m 396 888 q 383 874 396 888 q 331 861 369 861 q 265 888 292 861 q 239 953 239 914 q 265 1018 239 992 q 331 1044 292 1044 q 396 1018 369 1044 q 422 953 422 992 q 396 888 422 914 m 139 888 q 126 874 139 888 q 74 861 113 861 q 8 888 35 861 q -18 953 -18 914 q 8 1018 -18 992 q 74 1044 35 1044 q 139 1018 113 1044 q 165 953 165 992 q 139 888 165 914 z "},"ð":{"ha":894,"x_min":50,"x_max":843,"o":"m 843 440 q 731 106 843 224 q 447 -11 619 -11 q 163 99 275 -11 q 50 386 50 208 q 159 672 50 564 q 433 781 268 781 q 621 718 535 781 q 531 867 588 794 l 371 817 l 371 906 l 469 936 q 369 1028 433 976 l 557 1028 q 607 981 588 1003 l 761 1029 l 761 940 l 669 911 q 843 440 843 696 m 306 214 q 334 184 306 214 q 444 154 363 154 q 585 215 526 154 q 644 385 644 275 q 586 556 644 496 q 446 615 528 615 q 306 556 364 615 q 249 385 249 496 q 306 214 249 274 z "},"ñ":{"ha":935,"x_min":104,"x_max":838,"o":"m 300 769 l 300 654 q 539 781 374 781 q 754 694 671 781 q 838 453 838 607 l 838 0 l 643 0 l 643 425 q 597 563 643 515 q 472 611 551 611 q 347 563 393 611 q 300 425 300 515 l 300 0 l 104 0 l 104 769 l 300 769 m 575 844 q 481 876 532 844 q 404 907 429 907 q 343 846 353 907 l 243 846 q 413 1028 271 1028 q 507 997 456 1028 q 583 967 558 967 q 643 1026 635 967 l 744 1026 q 575 844 717 844 z "},"ò":{"ha":896,"x_min":51,"x_max":844,"o":"m 279 969 l 279 1128 l 599 961 l 599 824 l 279 969 m 446 154 q 487 154 446 154 q 587 215 528 154 q 646 385 646 275 q 588 556 646 496 q 447 615 529 615 q 307 556 364 615 q 250 385 250 496 q 307 214 250 274 q 446 154 364 154 m 164 99 q 108 153 164 99 q 51 386 51 208 q 165 672 51 564 q 448 781 279 781 q 731 672 617 781 q 844 386 844 564 q 730 99 844 208 q 446 -11 615 -11 q 164 99 276 -11 z "},"ó":{"ha":896,"x_min":51,"x_max":844,"o":"m 446 154 q 487 154 446 154 q 587 215 528 154 q 646 385 646 275 q 588 556 646 496 q 447 615 529 615 q 307 556 364 615 q 250 385 250 496 q 307 214 250 274 q 446 154 364 154 m 164 99 q 108 153 164 99 q 51 386 51 208 q 165 672 51 564 q 448 781 279 781 q 731 672 617 781 q 844 386 844 564 q 730 99 844 208 q 446 -11 615 -11 q 164 99 276 -11 m 279 961 l 599 1128 l 599 969 l 279 824 l 279 961 z "},"ô":{"ha":896,"x_min":51,"x_max":844,"o":"m 446 154 q 487 154 446 154 q 587 215 528 154 q 646 385 646 275 q 588 556 646 496 q 447 615 529 615 q 307 556 364 615 q 250 385 250 496 q 307 214 250 274 q 446 154 364 154 m 164 99 q 108 153 164 99 q 51 386 51 208 q 165 672 51 564 q 448 781 279 781 q 731 672 617 781 q 844 386 844 564 q 730 99 844 208 q 446 -11 615 -11 q 164 99 276 -11 m 654 969 l 654 826 l 449 947 l 242 826 l 242 969 l 449 1085 l 654 969 z "},"õ":{"ha":896,"x_min":51,"x_max":844,"o":"m 371 1028 q 465 997 414 1028 q 542 967 517 967 q 601 1026 593 967 l 703 1026 q 533 844 675 844 q 439 876 490 844 q 363 907 388 907 q 301 846 311 907 l 201 846 q 371 1028 229 1028 m 446 154 q 487 154 446 154 q 587 215 528 154 q 646 385 646 275 q 588 556 646 496 q 447 615 529 615 q 307 556 364 615 q 250 385 250 496 q 307 214 250 274 q 446 154 364 154 m 164 99 q 108 153 164 99 q 51 386 51 208 q 165 672 51 564 q 448 781 279 781 q 731 672 617 781 q 844 386 844 564 q 730 99 844 208 q 446 -11 615 -11 q 164 99 276 -11 z "},"ö":{"ha":896,"x_min":51,"x_max":844,"o":"m 446 154 q 487 154 446 154 q 587 215 528 154 q 646 385 646 275 q 588 556 646 496 q 447 615 529 615 q 307 556 364 615 q 250 385 250 496 q 307 214 250 274 q 446 154 364 154 m 164 99 q 108 153 164 99 q 51 386 51 208 q 165 672 51 564 q 448 781 279 781 q 731 672 617 781 q 844 386 844 564 q 730 99 844 208 q 446 -11 615 -11 q 164 99 276 -11 m 642 888 q 628 874 642 888 q 576 861 615 861 q 511 888 538 861 q 485 953 485 914 q 511 1018 485 992 q 576 1044 538 1044 q 642 1018 615 1044 q 668 953 668 992 q 642 888 668 914 m 385 888 q 372 874 385 888 q 319 861 358 861 q 254 888 281 861 q 228 953 228 914 q 254 1018 228 992 q 319 1044 281 1044 q 385 1018 358 1044 q 411 953 411 992 q 385 888 411 914 z "},"÷":{"ha":897,"x_min":94,"x_max":803,"o":"m 94 407 l 94 582 l 803 582 l 803 407 l 94 407 m 560 790 q 560 766 560 790 q 527 711 560 743 q 448 679 494 679 q 369 711 401 679 q 336 790 336 743 q 369 869 336 836 q 448 901 401 901 q 527 869 494 901 q 560 790 560 836 m 560 199 q 560 176 560 199 q 527 120 560 153 q 448 88 494 88 q 369 120 401 88 q 336 199 336 153 q 369 278 336 246 q 448 311 401 311 q 527 278 494 311 q 560 199 560 246 z "},"ø":{"ha":896,"x_min":38,"x_max":858,"o":"m 751 653 q 846 376 846 543 q 731 99 846 208 q 447 -11 617 -11 q 211 61 311 -11 l 156 0 l 38 0 l 146 119 q 53 395 53 226 q 167 672 53 564 q 450 781 281 781 q 686 710 585 781 l 740 769 l 858 769 l 751 653 m 565 578 q 439 615 513 615 q 308 556 365 615 q 251 385 251 496 q 276 263 251 315 l 565 578 m 332 193 q 455 154 381 154 q 588 215 529 154 q 647 385 647 275 q 621 510 647 457 l 332 193 z "},"ù":{"ha":935,"x_min":97,"x_max":831,"o":"m 635 769 l 831 769 l 831 0 l 635 0 l 635 117 q 394 -10 561 -10 q 181 77 264 -10 q 97 318 97 164 l 97 769 l 292 769 l 292 346 q 338 207 292 256 q 463 158 383 158 q 588 207 542 158 q 635 346 635 256 l 635 769 m 618 961 l 618 824 l 299 969 l 299 1128 l 618 961 z "},"ú":{"ha":935,"x_min":97,"x_max":831,"o":"m 635 769 l 831 769 l 831 0 l 635 0 l 635 117 q 394 -10 561 -10 q 181 77 264 -10 q 97 318 97 164 l 97 769 l 292 769 l 292 346 q 338 207 292 256 q 463 158 383 158 q 588 207 542 158 q 635 346 635 256 l 635 769 m 618 1128 l 618 969 l 299 824 l 299 961 l 618 1128 z "},"û":{"ha":935,"x_min":97,"x_max":831,"o":"m 635 769 l 831 769 l 831 0 l 635 0 l 635 117 q 394 -10 561 -10 q 181 77 264 -10 q 97 318 97 164 l 97 769 l 292 769 l 292 346 q 338 207 292 256 q 463 158 383 158 q 588 207 542 158 q 635 346 635 256 l 635 769 m 674 826 l 468 947 l 261 826 l 261 969 l 468 1085 l 674 969 l 674 826 z "},"ü":{"ha":935,"x_min":97,"x_max":831,"o":"m 635 769 l 831 769 l 831 0 l 635 0 l 635 117 q 394 -10 561 -10 q 181 77 264 -10 q 97 318 97 164 l 97 769 l 292 769 l 292 346 q 338 207 292 256 q 463 158 383 158 q 588 207 542 158 q 635 346 635 256 l 635 769 m 404 888 q 391 874 404 888 q 339 861 378 861 q 274 888 300 861 q 247 953 247 914 q 274 1018 247 992 q 339 1044 300 1044 q 404 1018 378 1044 q 431 953 431 992 q 404 888 431 914 m 661 888 q 648 874 661 888 q 596 861 635 861 q 531 888 557 861 q 504 953 504 914 q 531 1018 504 992 q 596 1044 557 1044 q 661 1018 635 1044 q 688 953 688 992 q 661 888 688 914 z "},"ý":{"ha":846,"x_min":10,"x_max":836,"o":"m 256 961 l 575 1128 l 575 969 l 256 824 l 256 961 m 311 14 l 10 769 l 229 769 l 425 222 l 632 769 l 836 769 l 356 -364 l 151 -364 l 311 14 z "},"þ":{"ha":954,"x_min":104,"x_max":904,"o":"m 645 219 q 675 250 645 219 q 706 386 706 281 q 645 551 706 492 q 503 611 585 611 q 360 551 421 611 q 300 385 300 490 q 360 219 300 279 q 503 158 421 158 q 645 219 585 158 m 300 650 q 540 781 382 781 q 801 670 699 781 q 904 385 904 560 q 801 100 904 211 q 542 -11 699 -11 q 300 129 386 -11 l 300 -367 l 104 -367 l 104 1028 l 300 1028 l 300 650 z "},"ÿ":{"ha":846,"x_min":10,"x_max":836,"o":"m 617 888 q 603 874 617 888 q 551 861 590 861 q 486 888 513 861 q 460 953 460 914 q 486 1018 460 992 q 551 1044 513 1044 q 617 1018 590 1044 q 643 953 643 992 q 617 888 643 914 m 360 888 q 347 874 360 888 q 294 861 333 861 q 229 888 256 861 q 203 953 203 914 q 229 1018 203 992 q 294 1044 256 1044 q 360 1018 333 1044 q 386 953 386 992 q 360 888 386 914 m 311 14 l 10 769 l 229 769 l 425 222 l 632 769 l 836 769 l 356 -364 l 151 -364 l 311 14 z "},"Ā":{"ha":979,"x_min":31,"x_max":947,"o":"m 740 0 l 678 182 l 300 182 l 238 0 l 31 0 l 374 972 l 606 972 l 947 0 l 740 0 m 351 332 l 628 332 l 489 736 l 351 332 m 756 1218 l 756 1079 l 225 1079 l 225 1218 l 756 1218 z "},"ā":{"ha":954,"x_min":50,"x_max":850,"o":"m 213 878 l 213 1017 l 743 1017 l 743 878 l 213 878 m 594 219 q 625 249 594 219 q 656 385 656 279 q 594 551 656 490 q 451 611 533 611 q 309 551 369 611 q 249 386 249 492 q 310 219 249 281 q 452 158 371 158 q 594 219 533 158 m 153 101 q 102 157 153 101 q 50 386 50 213 q 153 670 50 560 q 414 781 256 781 q 656 650 572 781 l 656 769 l 850 769 l 850 0 l 656 0 l 656 129 q 413 -11 568 -11 q 153 101 257 -11 z "},"Ă":{"ha":979,"x_min":31,"x_max":947,"o":"m 740 0 l 678 182 l 300 182 l 238 0 l 31 0 l 374 972 l 606 972 l 947 0 l 740 0 m 351 332 l 628 332 l 489 736 l 351 332 m 711 1288 l 711 1251 q 651 1099 711 1154 q 490 1043 592 1043 q 328 1099 389 1043 q 268 1251 268 1154 l 268 1288 l 372 1288 q 399 1215 372 1239 q 490 1190 425 1190 q 582 1215 556 1190 q 608 1288 608 1239 l 711 1288 z "},"ă":{"ha":954,"x_min":50,"x_max":850,"o":"m 699 1050 q 639 897 699 953 q 478 842 579 842 q 316 897 376 842 q 256 1050 256 953 l 256 1086 l 360 1086 q 386 1013 360 1038 q 478 989 413 989 q 569 1013 543 989 q 596 1086 596 1038 l 699 1086 l 699 1050 m 594 219 q 625 249 594 219 q 656 385 656 279 q 594 551 656 490 q 451 611 533 611 q 309 551 369 611 q 249 386 249 492 q 310 219 249 281 q 452 158 371 158 q 594 219 533 158 m 153 101 q 102 157 153 101 q 50 386 50 213 q 153 670 50 560 q 414 781 256 781 q 656 650 572 781 l 656 769 l 850 769 l 850 0 l 656 0 l 656 129 q 413 -11 568 -11 q 153 101 257 -11 z "},"Ą":{"ha":979,"x_min":31,"x_max":999,"o":"m 875 -176 l 999 -176 l 999 -289 l 828 -289 q 701 -247 753 -289 q 649 -132 649 -206 q 742 -3 649 -35 l 679 182 l 300 182 l 238 0 l 31 0 l 374 972 l 606 972 l 947 1 l 947 -89 l 875 -89 q 815 -96 832 -89 q 797 -132 797 -103 q 815 -169 797 -161 q 875 -176 833 -176 m 351 332 l 628 332 l 489 736 l 351 332 z "},"ą":{"ha":954,"x_min":50,"x_max":901,"o":"m 778 -176 l 901 -176 l 901 -289 l 731 -289 q 603 -247 656 -289 q 551 -132 551 -206 q 656 7 551 -26 l 656 129 q 413 -11 568 -11 q 153 101 257 -11 q 50 386 50 213 q 153 670 50 560 q 414 781 256 781 q 656 650 572 781 l 656 769 l 850 769 l 850 -89 l 778 -89 q 717 -96 735 -89 q 700 -132 700 -103 q 718 -169 700 -161 q 778 -176 736 -176 m 249 386 q 249 333 249 386 q 310 219 249 281 q 452 158 371 158 q 594 219 533 158 q 656 385 656 279 q 594 551 656 490 q 451 611 533 611 q 309 551 369 611 q 249 386 249 492 z "},"Ć":{"ha":1068,"x_min":50,"x_max":1003,"o":"m 193 132 q 122 202 193 132 q 50 488 50 272 q 194 843 50 703 q 546 983 338 983 q 827 903 704 983 q 1003 676 950 822 l 768 676 q 546 804 703 804 q 331 717 414 804 q 249 487 249 631 q 331 256 249 343 q 546 169 414 169 q 768 297 701 169 l 1003 297 q 827 72 950 151 q 546 -8 704 -8 q 193 132 336 -8 m 365 1163 l 685 1329 l 685 1171 l 365 1025 l 365 1163 z "},"ć":{"ha":833,"x_min":50,"x_max":790,"o":"m 156 97 q 103 151 156 97 q 50 385 50 206 q 156 672 50 564 q 429 781 261 781 q 664 713 569 781 q 790 519 758 644 l 579 519 q 429 615 542 615 q 297 553 344 615 q 249 385 249 492 q 297 216 249 278 q 429 154 344 154 q 579 251 540 154 l 790 251 q 662 60 757 131 q 429 -11 567 -11 q 156 97 261 -11 m 249 961 l 568 1128 l 568 969 l 249 824 l 249 961 z "},"Č":{"ha":1068,"x_min":50,"x_max":1003,"o":"m 193 132 q 122 202 193 132 q 50 488 50 272 q 194 843 50 703 q 546 983 338 983 q 827 903 704 983 q 1003 676 950 822 l 768 676 q 546 804 703 804 q 331 717 414 804 q 249 487 249 631 q 331 256 249 343 q 546 169 414 169 q 768 297 701 169 l 1003 297 q 827 72 950 151 q 546 -8 704 -8 q 193 132 336 -8 m 535 1167 l 740 1286 l 740 1144 l 535 1028 l 328 1144 l 328 1286 l 535 1167 z "},"č":{"ha":833,"x_min":50,"x_max":790,"o":"m 156 97 q 103 151 156 97 q 50 385 50 206 q 156 672 50 564 q 429 781 261 781 q 664 713 569 781 q 790 519 758 644 l 579 519 q 429 615 542 615 q 297 553 344 615 q 249 385 249 492 q 297 216 249 278 q 429 154 344 154 q 579 251 540 154 l 790 251 q 662 60 757 131 q 429 -11 567 -11 q 156 97 261 -11 m 417 965 l 622 1085 l 622 943 l 417 826 l 210 943 l 210 1085 l 417 965 z "},"Ď":{"ha":1004,"x_min":104,"x_max":954,"o":"m 300 149 l 433 149 q 671 239 586 149 q 756 483 756 329 q 671 728 756 638 q 433 818 586 818 l 300 818 l 300 149 m 433 969 q 810 836 667 969 q 954 483 954 703 q 810 132 954 264 q 433 0 667 0 l 104 0 l 104 969 l 433 969 m 503 1167 l 708 1286 l 708 1144 l 503 1028 l 296 1144 l 296 1286 l 503 1167 z "},"ď":{"ha":1119,"x_min":50,"x_max":1106,"o":"m 594 219 q 625 249 594 219 q 656 385 656 279 q 594 551 656 490 q 451 611 533 611 q 309 551 369 611 q 249 386 249 492 q 310 219 249 281 q 452 158 371 158 q 594 219 533 158 m 153 101 q 102 157 153 101 q 50 386 50 213 q 153 670 50 560 q 414 781 256 781 q 656 650 572 781 l 656 1028 l 850 1028 l 850 0 l 656 0 l 656 129 q 413 -11 568 -11 q 153 101 257 -11 m 921 1028 l 1082 1028 q 1106 869 1106 951 q 1062 737 1106 786 q 932 688 1018 688 l 932 765 q 1001 850 1001 765 l 1001 876 l 921 876 l 921 1028 z "},"Đ":{"ha":1013,"x_min":19,"x_max":963,"o":"m 113 969 l 442 969 q 819 836 675 969 q 963 483 963 703 q 819 132 963 264 q 442 0 675 0 l 113 0 l 113 392 l 19 392 l 19 575 l 113 575 l 113 969 m 308 149 l 442 149 q 679 239 594 149 q 764 483 764 329 q 679 728 764 638 q 442 818 594 818 l 308 818 l 308 575 l 533 575 l 533 392 l 308 392 l 308 149 z "},"đ":{"ha":954,"x_min":50,"x_max":931,"o":"m 931 922 l 931 821 l 850 821 l 850 0 l 656 0 l 656 129 q 413 -11 568 -11 q 153 101 257 -11 q 50 386 50 213 q 153 670 50 560 q 414 781 256 781 q 656 650 572 781 l 656 821 l 544 821 l 544 922 l 656 922 l 656 1028 l 850 1028 l 850 922 l 931 922 m 249 386 q 249 333 249 386 q 310 219 249 281 q 452 158 371 158 q 594 219 533 158 q 656 385 656 279 q 594 551 656 490 q 451 611 533 611 q 309 551 369 611 q 249 386 249 492 z "},"Ē":{"ha":760,"x_min":104,"x_max":664,"o":"m 114 1079 l 114 1218 l 644 1218 l 644 1079 l 114 1079 m 664 972 l 664 822 l 300 822 l 300 568 l 622 568 l 622 418 l 300 418 l 300 150 l 664 150 l 664 0 l 104 0 l 104 972 l 664 972 z "},"ē":{"ha":867,"x_min":50,"x_max":817,"o":"m 429 -11 q 156 98 261 -11 q 50 386 50 207 q 156 673 50 565 q 431 781 263 781 q 708 676 600 781 q 817 396 817 571 q 811 321 817 356 l 250 321 q 306 200 257 246 q 429 154 354 154 q 579 238 531 154 l 790 238 q 661 58 757 128 q 429 -11 565 -11 m 614 447 q 558 569 610 524 q 432 615 506 615 q 309 569 358 615 q 250 447 260 524 l 614 447 m 699 1017 l 699 878 l 168 878 l 168 1017 l 699 1017 z "},"Ė":{"ha":760,"x_min":104,"x_max":664,"o":"m 444 1089 q 431 1076 444 1089 q 379 1063 418 1063 q 314 1089 340 1063 q 288 1154 288 1115 q 314 1219 288 1193 q 379 1246 340 1246 q 444 1219 418 1246 q 471 1154 471 1193 q 444 1089 471 1115 m 664 972 l 664 822 l 300 822 l 300 568 l 622 568 l 622 418 l 300 418 l 300 150 l 664 150 l 664 0 l 104 0 l 104 972 l 664 972 z "},"ė":{"ha":867,"x_min":50,"x_max":817,"o":"m 429 -11 q 156 98 261 -11 q 50 386 50 207 q 156 673 50 565 q 431 781 263 781 q 708 676 600 781 q 817 396 817 571 q 811 321 817 356 l 250 321 q 306 200 257 246 q 429 154 354 154 q 579 238 531 154 l 790 238 q 661 58 757 128 q 429 -11 565 -11 m 614 447 q 558 569 610 524 q 432 615 506 615 q 309 569 358 615 q 250 447 260 524 l 614 447 m 499 888 q 485 874 499 888 q 433 861 472 861 q 368 888 394 861 q 342 953 342 914 q 368 1018 342 992 q 433 1044 394 1044 q 499 1018 472 1044 q 525 953 525 992 q 499 888 525 914 z "},"Ę":{"ha":760,"x_min":104,"x_max":715,"o":"m 592 -176 l 715 -176 l 715 -289 l 544 -289 q 417 -247 469 -289 q 365 -132 365 -206 q 451 0 365 -39 l 104 0 l 104 972 l 664 972 l 664 822 l 300 822 l 300 568 l 622 568 l 622 418 l 300 418 l 300 150 l 664 150 l 664 -89 l 592 -89 q 531 -96 549 -89 q 514 -132 514 -103 q 532 -169 514 -161 q 592 -176 550 -176 z "},"ę":{"ha":867,"x_min":50,"x_max":817,"o":"m 735 -190 l 564 -190 q 437 -148 489 -190 q 385 -32 385 -106 q 388 -10 385 -21 q 143 112 236 6 q 50 392 50 218 q 156 673 50 565 q 431 781 263 781 q 708 676 600 781 q 817 396 817 571 q 811 321 817 356 l 250 321 q 306 200 257 246 q 429 154 354 154 q 579 238 531 154 l 790 238 q 710 101 767 158 q 594 21 654 43 q 533 -31 533 -1 q 551 -69 533 -61 q 611 -76 569 -76 l 735 -76 l 735 -190 m 614 447 q 558 569 610 524 q 432 615 506 615 q 309 569 358 615 q 250 447 260 524 l 614 447 z "},"Ě":{"ha":760,"x_min":104,"x_max":664,"o":"m 664 972 l 664 822 l 300 822 l 300 568 l 622 568 l 622 418 l 300 418 l 300 150 l 664 150 l 664 0 l 104 0 l 104 972 l 664 972 m 381 1167 l 586 1286 l 586 1144 l 381 1028 l 174 1144 l 174 1286 l 381 1167 z "},"ě":{"ha":867,"x_min":50,"x_max":817,"o":"m 429 -11 q 156 98 261 -11 q 50 386 50 207 q 156 673 50 565 q 431 781 263 781 q 708 676 600 781 q 817 396 817 571 q 811 321 817 356 l 250 321 q 306 200 257 246 q 429 154 354 154 q 579 238 531 154 l 790 238 q 661 58 757 128 q 429 -11 565 -11 m 614 447 q 558 569 610 524 q 432 615 506 615 q 309 569 358 615 q 250 447 260 524 l 614 447 m 639 943 l 433 826 l 226 943 l 226 1085 l 433 965 l 639 1085 l 639 943 z "},"Ğ":{"ha":1068,"x_min":50,"x_max":1018,"o":"m 756 1251 q 696 1099 756 1154 q 535 1043 636 1043 q 373 1099 433 1043 q 313 1251 313 1154 l 313 1288 l 417 1288 q 443 1215 417 1239 q 535 1190 469 1190 q 626 1215 600 1190 q 653 1288 653 1239 l 756 1288 l 756 1251 m 193 132 q 122 202 193 132 q 50 488 50 272 q 194 843 50 703 q 546 983 338 983 q 827 903 704 983 q 1003 676 950 822 l 768 676 q 546 804 703 804 q 331 717 414 804 q 249 487 249 631 q 331 256 249 343 q 534 169 414 169 q 723 228 654 169 q 808 388 792 288 l 486 388 l 486 536 l 1018 536 l 1018 388 q 863 110 993 229 q 534 -8 732 -8 q 193 132 336 -8 z "},"ğ":{"ha":954,"x_min":50,"x_max":850,"o":"m 699 1050 q 639 897 699 953 q 478 842 579 842 q 316 897 376 842 q 256 1050 256 953 l 256 1086 l 360 1086 q 386 1013 360 1038 q 478 989 413 989 q 569 1013 543 989 q 596 1086 596 1038 l 699 1086 l 699 1050 m 153 101 q 102 157 153 101 q 50 386 50 213 q 153 670 50 560 q 414 781 256 781 q 656 650 572 781 l 656 769 l 850 769 l 850 -6 q 753 -276 850 -171 q 480 -381 656 -381 q 201 -308 304 -381 q 83 -100 97 -235 l 275 -100 q 344 -181 293 -151 q 474 -211 396 -211 q 603 -160 551 -211 q 656 -6 656 -108 l 656 129 q 413 -11 568 -11 q 153 101 257 -11 m 594 219 q 625 249 594 219 q 656 385 656 279 q 594 551 656 490 q 451 611 533 611 q 309 551 369 611 q 249 386 249 492 q 310 219 249 281 q 452 158 371 158 q 594 219 533 158 z "},"Ģ":{"ha":1068,"x_min":50,"x_max":1018,"o":"m 193 132 q 122 202 193 132 q 50 488 50 272 q 194 843 50 703 q 546 983 338 983 q 827 903 704 983 q 1003 676 950 822 l 768 676 q 546 804 703 804 q 331 717 414 804 q 249 487 249 631 q 331 256 249 343 q 534 169 414 169 q 723 228 654 169 q 808 388 792 288 l 486 388 l 486 536 l 1018 536 l 1018 388 q 863 110 993 229 q 534 -8 732 -8 q 193 132 336 -8 m 449 -60 l 610 -60 q 633 -219 633 -136 q 590 -351 633 -301 q 460 -400 546 -400 l 460 -322 q 529 -237 529 -322 l 529 -211 l 449 -211 l 449 -60 z "},"ģ":{"ha":954,"x_min":50,"x_max":850,"o":"m 153 101 q 102 157 153 101 q 50 386 50 213 q 153 670 50 560 q 414 781 256 781 q 656 650 572 781 l 656 769 l 850 769 l 850 -6 q 753 -276 850 -171 q 480 -381 656 -381 q 201 -308 304 -381 q 83 -100 97 -235 l 275 -100 q 344 -181 293 -151 q 474 -211 396 -211 q 603 -160 551 -211 q 656 -6 656 -108 l 656 129 q 413 -11 568 -11 q 153 101 257 -11 m 594 219 q 625 249 594 219 q 656 385 656 279 q 594 551 656 490 q 451 611 533 611 q 309 551 369 611 q 249 386 249 492 q 310 219 249 281 q 452 158 371 158 q 594 219 533 158 m 563 829 l 401 829 q 378 988 378 906 q 422 1120 378 1071 q 551 1169 465 1169 l 551 1092 q 482 1007 482 1092 l 482 981 l 563 981 l 563 829 z "},"Ī":{"ha":404,"x_min":-62,"x_max":468,"o":"m -62 1079 l -62 1218 l 468 1218 l 468 1079 l -62 1079 m 104 0 l 104 969 l 300 969 l 300 0 l 104 0 z "},"ī":{"ha":404,"x_min":-62,"x_max":468,"o":"m -62 878 l -62 1017 l 468 1017 l 468 878 l -62 878 m 104 0 l 104 769 l 300 769 l 300 0 l 104 0 z "},"Į":{"ha":404,"x_min":1,"x_max":351,"o":"m 228 -176 l 351 -176 l 351 -289 l 181 -289 q 53 -247 106 -289 q 1 -132 1 -206 q 104 7 1 -29 l 104 969 l 300 969 l 300 -89 l 228 -89 q 167 -96 185 -89 q 150 -132 150 -103 q 168 -169 150 -161 q 228 -176 186 -176 z "},"į":{"ha":404,"x_min":1,"x_max":351,"o":"m 228 -176 l 351 -176 l 351 -289 l 181 -289 q 53 -247 106 -289 q 1 -132 1 -206 q 104 7 1 -29 l 104 769 l 300 769 l 300 -89 l 228 -89 q 167 -96 185 -89 q 150 -132 150 -103 q 168 -169 150 -161 q 228 -176 186 -176 m 321 965 q 321 940 321 965 q 286 881 321 915 q 202 846 251 846 q 118 881 153 846 q 83 965 83 915 q 118 1050 83 1015 q 202 1085 153 1085 q 286 1050 251 1085 q 321 965 321 1015 z "},"İ":{"ha":404,"x_min":104,"x_max":300,"o":"m 267 1089 q 253 1076 267 1089 q 201 1063 240 1063 q 136 1089 163 1063 q 110 1154 110 1115 q 136 1219 110 1193 q 201 1246 163 1246 q 267 1219 240 1246 q 293 1154 293 1193 q 267 1089 293 1115 m 104 0 l 104 969 l 300 969 l 300 0 l 104 0 z "},"ı":{"ha":404,"x_min":104,"x_max":300,"o":"m 104 0 l 104 769 l 300 769 l 300 0 l 104 0 z "},"Ķ":{"ha":936,"x_min":104,"x_max":906,"o":"m 300 0 l 104 0 l 104 969 l 300 969 l 300 536 l 650 969 l 906 969 l 485 483 l 906 0 l 651 0 l 300 431 l 300 0 m 383 -60 l 544 -60 q 568 -219 568 -136 q 524 -351 568 -301 q 394 -400 481 -400 l 394 -322 q 464 -237 464 -322 l 464 -211 l 383 -211 l 383 -60 z "},"ķ":{"ha":833,"x_min":104,"x_max":825,"o":"m 300 0 l 104 0 l 104 1028 l 300 1028 l 300 440 l 560 769 l 825 769 l 483 381 l 825 0 l 564 0 l 300 321 l 300 0 m 332 -60 l 493 -60 q 517 -219 517 -136 q 473 -351 517 -301 q 343 -400 429 -400 l 343 -322 q 413 -237 413 -322 l 413 -211 l 332 -211 l 332 -60 z "},"Ĺ":{"ha":639,"x_min":104,"x_max":611,"o":"m 104 969 l 300 969 l 300 149 l 611 149 l 611 0 l 104 0 l 104 969 m 151 1163 l 471 1329 l 471 1171 l 151 1025 l 151 1163 z "},"ĺ":{"ha":404,"x_min":33,"x_max":353,"o":"m 104 0 l 104 1028 l 300 1028 l 300 0 l 104 0 m 33 1219 l 353 1386 l 353 1228 l 33 1082 l 33 1219 z "},"Ļ":{"ha":639,"x_min":104,"x_max":611,"o":"m 104 969 l 300 969 l 300 149 l 611 149 l 611 0 l 104 0 l 104 969 m 274 -60 l 435 -60 q 458 -219 458 -136 q 415 -351 458 -301 q 285 -400 371 -400 l 285 -322 q 354 -237 354 -322 l 354 -211 l 274 -211 l 274 -60 z "},"ļ":{"ha":404,"x_min":104,"x_max":303,"o":"m 104 0 l 104 1028 l 300 1028 l 300 0 l 104 0 m 118 -60 l 279 -60 q 303 -219 303 -136 q 259 -351 303 -301 q 129 -400 215 -400 l 129 -322 q 199 -237 199 -322 l 199 -211 l 118 -211 l 118 -60 z "},"Ľ":{"ha":682,"x_min":104,"x_max":622,"o":"m 104 969 l 300 969 l 300 149 l 611 149 l 611 0 l 104 0 l 104 969 m 438 969 l 599 969 q 622 810 622 893 q 578 678 622 728 q 449 629 535 629 l 449 707 q 518 792 518 707 l 518 818 l 438 818 l 438 969 z "},"ľ":{"ha":653,"x_min":104,"x_max":592,"o":"m 104 0 l 104 1028 l 300 1028 l 300 0 l 104 0 m 407 1028 l 568 1028 q 592 869 592 951 q 548 737 592 786 q 418 688 504 688 l 418 765 q 488 850 488 765 l 488 876 l 407 876 l 407 1028 z "},"Ł":{"ha":639,"x_min":19,"x_max":619,"o":"m 308 149 l 619 149 l 619 0 l 113 0 l 113 376 l 19 350 l 19 533 l 113 560 l 113 969 l 308 969 l 308 617 l 417 647 l 417 464 l 308 433 l 308 149 z "},"ł":{"ha":404,"x_min":19,"x_max":385,"o":"m 300 0 l 104 0 l 104 372 l 19 347 l 19 532 l 104 557 l 104 1028 l 300 1028 l 300 614 l 385 639 l 385 456 l 300 431 l 300 0 z "},"Ń":{"ha":1039,"x_min":104,"x_max":935,"o":"m 739 972 l 935 972 l 935 0 l 739 0 l 300 672 l 300 0 l 104 0 l 104 972 l 300 972 l 739 300 l 739 972 m 351 1163 l 671 1329 l 671 1171 l 351 1025 l 351 1163 z "},"ń":{"ha":935,"x_min":104,"x_max":838,"o":"m 300 769 l 300 654 q 539 781 374 781 q 754 694 671 781 q 838 453 838 607 l 838 0 l 643 0 l 643 425 q 597 563 643 515 q 472 611 551 611 q 347 563 393 611 q 300 425 300 515 l 300 0 l 104 0 l 104 769 l 300 769 m 642 1128 l 642 969 l 322 824 l 322 961 l 642 1128 z "},"Ņ":{"ha":1039,"x_min":104,"x_max":935,"o":"m 739 972 l 935 972 l 935 0 l 739 0 l 300 672 l 300 0 l 104 0 l 104 972 l 300 972 l 739 300 l 739 972 m 435 -60 l 596 -60 q 619 -219 619 -136 q 576 -351 619 -301 q 446 -400 532 -400 l 446 -322 q 515 -237 515 -322 l 515 -211 l 435 -211 l 435 -60 z "},"ņ":{"ha":935,"x_min":104,"x_max":838,"o":"m 300 769 l 300 654 q 539 781 374 781 q 754 694 671 781 q 838 453 838 607 l 838 0 l 643 0 l 643 425 q 597 563 643 515 q 472 611 551 611 q 347 563 393 611 q 300 425 300 515 l 300 0 l 104 0 l 104 769 l 300 769 m 382 -60 l 543 -60 q 567 -219 567 -136 q 523 -351 567 -301 q 393 -400 479 -400 l 393 -322 q 463 -237 463 -322 l 463 -211 l 382 -211 l 382 -60 z "},"Ň":{"ha":1039,"x_min":104,"x_max":935,"o":"m 739 972 l 935 972 l 935 0 l 739 0 l 300 672 l 300 0 l 104 0 l 104 972 l 300 972 l 739 300 l 739 972 m 519 1167 l 725 1286 l 725 1144 l 519 1028 l 313 1144 l 313 1286 l 519 1167 z "},"ň":{"ha":935,"x_min":104,"x_max":838,"o":"m 300 769 l 300 654 q 539 781 374 781 q 754 694 671 781 q 838 453 838 607 l 838 0 l 643 0 l 643 425 q 597 563 643 515 q 472 611 551 611 q 347 563 393 611 q 300 425 300 515 l 300 0 l 104 0 l 104 769 l 300 769 m 697 943 l 492 826 l 285 943 l 285 1085 l 492 965 l 697 1085 l 697 943 z "},"Ō":{"ha":1092,"x_min":50,"x_max":1042,"o":"m 760 256 q 801 300 760 256 q 842 488 842 343 q 760 718 842 632 q 546 804 678 804 q 331 717 414 804 q 249 487 249 631 q 331 256 249 343 q 546 169 414 169 q 760 256 678 169 m 546 -10 q 441 -10 546 -10 q 193 131 336 -10 q 50 487 50 271 q 194 843 50 703 q 547 983 338 983 q 899 843 756 983 q 1042 487 1042 703 q 899 131 1042 271 q 546 -10 756 -10 m 281 1079 l 281 1218 l 811 1218 l 811 1079 l 281 1079 z "},"ō":{"ha":896,"x_min":51,"x_max":844,"o":"m 446 154 q 487 154 446 154 q 587 215 528 154 q 646 385 646 275 q 588 556 646 496 q 447 615 529 615 q 307 556 364 615 q 250 385 250 496 q 307 214 250 274 q 446 154 364 154 m 164 99 q 108 153 164 99 q 51 386 51 208 q 165 672 51 564 q 448 781 279 781 q 731 672 617 781 q 844 386 844 564 q 730 99 844 208 q 446 -11 615 -11 q 164 99 276 -11 m 183 878 l 183 1017 l 714 1017 l 714 878 l 183 878 z "},"Ő":{"ha":1092,"x_min":50,"x_max":1042,"o":"m 760 256 q 801 300 760 256 q 842 488 842 343 q 760 718 842 632 q 546 804 678 804 q 331 717 414 804 q 249 487 249 631 q 331 256 249 343 q 546 169 414 169 q 760 256 678 169 m 546 -10 q 441 -10 546 -10 q 193 131 336 -10 q 50 487 50 271 q 194 843 50 703 q 547 983 338 983 q 899 843 756 983 q 1042 487 1042 703 q 899 131 1042 271 q 546 -10 756 -10 m 446 1297 l 607 1297 l 469 1036 l 346 1036 l 446 1297 m 715 1297 l 875 1297 l 714 1036 l 592 1036 l 715 1297 z "},"ő":{"ha":896,"x_min":51,"x_max":844,"o":"m 446 154 q 487 154 446 154 q 587 215 528 154 q 646 385 646 275 q 588 556 646 496 q 447 615 529 615 q 307 556 364 615 q 250 385 250 496 q 307 214 250 274 q 446 154 364 154 m 164 99 q 108 153 164 99 q 51 386 51 208 q 165 672 51 564 q 448 781 279 781 q 731 672 617 781 q 844 386 844 564 q 730 99 844 208 q 446 -11 615 -11 q 164 99 276 -11 m 349 1096 l 510 1096 l 372 835 l 249 835 l 349 1096 m 618 1096 l 778 1096 l 617 835 l 494 835 l 618 1096 z "},"Œ":{"ha":1497,"x_min":50,"x_max":1401,"o":"m 1401 819 l 1038 819 l 1038 565 l 1360 565 l 1360 415 l 1038 415 l 1038 150 l 1401 150 l 1401 0 l 842 0 l 842 124 q 546 -10 725 -10 q 193 131 336 -10 q 50 487 50 271 q 194 843 50 703 q 546 983 338 983 q 842 847 726 983 l 842 969 l 1401 969 l 1401 819 m 546 804 q 480 804 546 804 q 331 717 414 804 q 249 487 249 631 q 331 256 249 343 q 546 169 414 169 q 760 256 678 169 q 842 488 842 343 q 760 718 842 632 q 546 804 678 804 z "},"œ":{"ha":1461,"x_min":50,"x_max":1411,"o":"m 1025 -11 q 740 133 846 -11 q 610 26 688 64 q 444 -11 533 -11 q 163 99 275 -11 q 50 386 50 208 q 164 672 50 564 q 454 781 278 781 q 740 636 631 781 q 1019 781 842 781 q 1303 676 1196 781 q 1411 396 1411 571 q 1406 321 1411 356 l 846 321 q 901 200 853 246 q 1025 154 950 154 q 1175 238 1125 154 l 1386 238 q 1257 58 1353 128 q 1025 -11 1161 -11 m 306 214 q 334 184 306 214 q 444 154 363 154 q 585 215 526 154 q 644 385 644 275 q 586 556 644 496 q 446 615 528 615 q 306 556 364 615 q 249 385 249 496 q 306 214 249 274 m 1208 447 q 1153 569 1206 524 q 1027 615 1101 615 q 904 569 953 615 q 846 447 856 524 l 1208 447 z "},"Ŕ":{"ha":901,"x_min":104,"x_max":828,"o":"m 300 386 l 300 0 l 104 0 l 104 969 l 461 969 q 720 885 629 969 q 811 678 811 801 q 756 507 811 586 q 581 399 700 428 l 828 0 l 596 0 l 364 386 l 300 386 m 300 819 l 300 536 l 461 536 q 574 574 535 536 q 613 678 613 613 q 574 781 613 743 q 461 819 535 819 l 300 819 m 601 1329 l 601 1171 l 282 1025 l 282 1163 l 601 1329 z "},"ŕ":{"ha":560,"x_min":104,"x_max":525,"o":"m 300 769 l 300 633 q 525 781 378 781 l 525 581 l 476 581 q 344 537 389 581 q 300 386 300 493 l 300 0 l 104 0 l 104 769 l 300 769 m 506 1128 l 506 969 l 186 824 l 186 961 l 506 1128 z "},"Ŗ":{"ha":901,"x_min":104,"x_max":828,"o":"m 300 386 l 300 0 l 104 0 l 104 969 l 461 969 q 720 885 629 969 q 811 678 811 801 q 756 507 811 586 q 581 399 700 428 l 828 0 l 596 0 l 364 386 l 300 386 m 300 819 l 300 536 l 461 536 q 574 574 535 536 q 613 678 613 613 q 574 781 613 743 q 461 819 535 819 l 300 819 m 365 -60 l 526 -60 q 550 -219 550 -136 q 506 -351 550 -301 q 376 -400 463 -400 l 376 -322 q 446 -237 446 -322 l 446 -211 l 365 -211 l 365 -60 z "},"ŗ":{"ha":560,"x_min":104,"x_max":525,"o":"m 300 769 l 300 633 q 525 781 378 781 l 525 581 l 476 581 q 344 537 389 581 q 300 386 300 493 l 300 0 l 104 0 l 104 769 l 300 769 m 114 -60 l 275 -60 q 299 -219 299 -136 q 255 -351 299 -301 q 125 -400 211 -400 l 125 -322 q 194 -237 194 -322 l 194 -211 l 114 -211 l 114 -60 z "},"Ř":{"ha":901,"x_min":104,"x_max":828,"o":"m 300 386 l 300 0 l 104 0 l 104 969 l 461 969 q 720 885 629 969 q 811 678 811 801 q 756 507 811 586 q 581 399 700 428 l 828 0 l 596 0 l 364 386 l 300 386 m 300 819 l 300 536 l 461 536 q 574 574 535 536 q 613 678 613 613 q 574 781 613 743 q 461 819 535 819 l 300 819 m 657 1144 l 451 1028 l 244 1144 l 244 1286 l 451 1167 l 657 1286 l 657 1144 z "},"ř":{"ha":560,"x_min":104,"x_max":561,"o":"m 356 965 l 561 1085 l 561 943 l 356 826 l 149 943 l 149 1085 l 356 965 m 300 769 l 300 633 q 525 781 378 781 l 525 581 l 476 581 q 344 537 389 581 q 300 386 300 493 l 300 0 l 104 0 l 104 769 l 300 769 z "},"Ś":{"ha":867,"x_min":83,"x_max":783,"o":"m 418 826 q 389 826 418 826 q 323 797 360 826 q 286 714 286 767 q 313 631 286 661 q 385 585 340 601 q 482 557 429 569 q 588 526 535 544 q 685 482 640 508 q 756 405 729 456 q 783 282 783 354 q 688 76 783 163 q 435 -10 593 -10 q 181 65 278 -10 q 83 274 83 139 l 292 274 q 438 146 303 146 q 543 181 504 146 q 582 273 582 215 q 531 364 582 331 q 406 414 479 397 q 260 454 333 431 q 135 537 186 478 q 83 693 83 596 q 179 904 83 825 q 426 983 275 983 q 668 915 576 983 q 768 706 760 846 l 554 706 q 513 794 549 761 q 418 826 476 826 m 265 1163 l 585 1329 l 585 1171 l 265 1025 l 265 1163 z "},"ś":{"ha":756,"x_min":60,"x_max":693,"o":"m 61 544 q 146 713 61 644 q 371 781 231 781 q 596 713 511 781 q 686 531 681 646 l 486 531 q 367 628 478 628 q 281 606 311 628 q 250 544 250 583 q 296 483 250 506 q 407 449 342 461 q 537 417 472 436 q 647 351 601 399 q 693 224 693 303 q 605 54 693 119 q 380 -11 517 -11 q 156 53 243 -11 q 60 239 68 118 l 260 239 q 383 142 271 142 q 471 166 438 142 q 504 230 504 190 q 458 292 504 269 q 347 328 413 315 q 217 358 282 340 q 107 423 153 376 q 61 544 61 469 m 210 961 l 529 1128 l 529 969 l 210 824 l 210 961 z "},"Ş":{"ha":867,"x_min":83,"x_max":783,"o":"m 554 706 q 513 794 549 761 q 418 826 476 826 q 323 797 360 826 q 286 714 286 767 q 313 631 286 661 q 385 585 340 601 q 482 557 429 569 q 588 526 535 544 q 685 482 640 508 q 756 405 729 456 q 783 282 783 354 q 707 94 783 176 q 503 -6 631 13 l 503 -60 q 632 -97 581 -60 q 683 -208 683 -135 q 631 -324 683 -282 q 504 -367 579 -367 l 301 -367 l 301 -253 l 457 -253 q 517 -245 499 -253 q 535 -208 535 -237 q 517 -172 535 -179 q 457 -165 500 -165 l 381 -165 l 381 -7 q 164 78 244 6 q 83 274 83 151 l 292 274 q 438 146 303 146 q 543 181 504 146 q 582 273 582 215 q 531 364 582 331 q 406 414 479 397 q 260 454 333 431 q 135 537 186 478 q 83 693 83 596 q 179 904 83 825 q 426 983 275 983 q 668 915 576 983 q 768 706 760 846 l 554 706 z "},"ş":{"ha":756,"x_min":60,"x_max":693,"o":"m 367 628 q 281 606 311 628 q 250 544 250 583 q 296 483 250 506 q 407 449 342 461 q 537 417 472 436 q 647 351 601 399 q 693 218 693 303 q 625 71 693 133 q 447 -7 557 8 l 447 -60 q 576 -97 525 -60 q 628 -208 628 -135 q 576 -324 628 -282 q 449 -367 524 -367 l 246 -367 l 246 -253 l 401 -253 q 461 -245 443 -253 q 479 -208 479 -237 q 462 -172 479 -179 q 401 -165 444 -165 l 325 -165 l 325 -8 q 138 67 208 4 q 60 239 67 131 l 260 239 q 383 142 271 142 q 471 166 438 142 q 504 230 504 190 q 458 292 504 269 q 347 328 413 315 q 217 358 282 340 q 107 423 153 376 q 61 544 61 469 q 146 713 61 644 q 371 781 231 781 q 596 713 511 781 q 686 531 681 646 l 486 531 q 367 628 478 628 z "},"Š":{"ha":867,"x_min":83,"x_max":783,"o":"m 418 826 q 389 826 418 826 q 323 797 360 826 q 286 714 286 767 q 313 631 286 661 q 385 585 340 601 q 482 557 429 569 q 588 526 535 544 q 685 482 640 508 q 756 405 729 456 q 783 282 783 354 q 688 76 783 163 q 435 -10 593 -10 q 181 65 278 -10 q 83 274 83 139 l 292 274 q 438 146 303 146 q 543 181 504 146 q 582 273 582 215 q 531 364 582 331 q 406 414 479 397 q 260 454 333 431 q 135 537 186 478 q 83 693 83 596 q 179 904 83 825 q 426 983 275 983 q 668 915 576 983 q 768 706 760 846 l 554 706 q 513 794 549 761 q 418 826 476 826 m 435 1167 l 640 1286 l 640 1144 l 435 1028 l 228 1144 l 228 1286 l 435 1167 z "},"š":{"ha":756,"x_min":60,"x_max":693,"o":"m 61 544 q 146 713 61 644 q 371 781 231 781 q 596 713 511 781 q 686 531 681 646 l 486 531 q 367 628 478 628 q 281 606 311 628 q 250 544 250 583 q 296 483 250 506 q 407 449 342 461 q 537 417 472 436 q 647 351 601 399 q 693 224 693 303 q 605 54 693 119 q 380 -11 517 -11 q 156 53 243 -11 q 60 239 68 118 l 260 239 q 383 142 271 142 q 471 166 438 142 q 504 230 504 190 q 458 292 504 269 q 347 328 413 315 q 217 358 282 340 q 107 423 153 376 q 61 544 61 469 m 379 965 l 585 1085 l 585 943 l 379 826 l 172 943 l 172 1085 l 379 965 z "},"Ţ":{"ha":811,"x_min":47,"x_max":765,"o":"m 765 819 l 503 819 l 503 -1 q 613 -47 572 -8 q 654 -158 654 -86 q 605 -272 654 -229 q 475 -314 556 -314 l 231 -314 l 231 -201 l 438 -201 q 506 -153 506 -201 q 438 -106 506 -106 l 308 -106 l 308 819 l 47 819 l 47 969 l 765 969 l 765 819 z "},"ţ":{"ha":544,"x_min":44,"x_max":522,"o":"m 342 -60 q 471 -97 419 -60 q 522 -208 522 -135 q 471 -324 522 -282 q 344 -367 419 -367 l 140 -367 l 140 -253 l 296 -253 q 356 -245 338 -253 q 374 -208 374 -237 q 356 -172 374 -179 q 296 -165 339 -165 l 219 -165 l 219 33 q 126 233 126 86 l 126 610 l 44 610 l 44 769 l 126 769 l 126 960 l 322 960 l 322 769 l 494 769 l 494 610 l 322 610 l 322 233 q 340 180 322 196 q 403 164 358 164 l 496 164 l 496 0 l 372 0 q 342 1 351 0 l 342 -60 z "},"Ť":{"ha":811,"x_min":47,"x_max":765,"o":"m 47 819 l 47 969 l 765 969 l 765 819 l 503 819 l 503 0 l 308 0 l 308 819 l 47 819 m 407 1167 l 613 1286 l 613 1144 l 407 1028 l 200 1144 l 200 1286 l 407 1167 z "},"ť":{"ha":544,"x_min":44,"x_max":496,"o":"m 403 164 l 496 164 l 496 0 l 372 0 q 190 54 254 0 q 126 233 126 108 l 126 610 l 44 610 l 44 769 l 126 769 l 126 960 l 322 960 l 322 769 l 494 769 l 494 610 l 322 610 l 322 233 q 340 180 322 196 q 403 164 358 164 m 189 -60 l 350 -60 q 374 -219 374 -136 q 330 -351 374 -301 q 200 -400 286 -400 l 200 -322 q 269 -237 269 -322 l 269 -211 l 189 -211 l 189 -60 z "},"Ū":{"ha":985,"x_min":101,"x_max":885,"o":"m 228 1079 l 228 1218 l 758 1218 l 758 1079 l 228 1079 m 101 372 l 101 969 l 297 969 l 297 372 q 348 221 297 272 q 493 169 399 169 q 639 221 588 169 q 690 372 690 272 l 690 969 l 885 969 l 885 372 q 769 90 885 189 q 489 -10 654 -10 q 213 89 324 -10 q 101 372 101 188 z "},"ū":{"ha":935,"x_min":97,"x_max":831,"o":"m 635 769 l 831 769 l 831 0 l 635 0 l 635 117 q 394 -10 561 -10 q 181 77 264 -10 q 97 318 97 164 l 97 769 l 292 769 l 292 346 q 338 207 292 256 q 463 158 383 158 q 588 207 542 158 q 635 346 635 256 l 635 769 m 733 1017 l 733 878 l 203 878 l 203 1017 l 733 1017 z "},"Ů":{"ha":985,"x_min":101,"x_max":885,"o":"m 101 372 l 101 969 l 297 969 l 297 372 q 348 221 297 272 q 493 169 399 169 q 639 221 588 169 q 690 372 690 272 l 690 969 l 885 969 l 885 372 q 769 90 885 189 q 489 -10 654 -10 q 213 89 324 -10 q 101 372 101 188 m 542 1149 q 552 1158 542 1149 q 563 1199 563 1168 q 542 1249 563 1229 q 493 1268 522 1268 q 444 1249 464 1268 q 424 1199 424 1229 q 444 1149 424 1168 q 493 1129 464 1129 q 542 1149 522 1129 m 379 1081 q 356 1103 379 1081 q 333 1197 333 1125 q 379 1313 333 1269 q 493 1357 425 1357 q 606 1313 561 1357 q 651 1197 651 1269 q 606 1081 651 1125 q 493 1038 561 1038 q 379 1081 425 1038 z "},"ů":{"ha":935,"x_min":97,"x_max":831,"o":"m 635 769 l 831 769 l 831 0 l 635 0 l 635 117 q 394 -10 561 -10 q 181 77 264 -10 q 97 318 97 164 l 97 769 l 292 769 l 292 346 q 338 207 292 256 q 463 158 383 158 q 588 207 542 158 q 635 346 635 256 l 635 769 m 581 880 q 559 858 581 880 q 468 836 536 836 q 354 880 400 836 q 308 996 308 924 q 354 1112 308 1068 q 468 1156 400 1156 q 581 1112 536 1156 q 626 996 626 1068 q 581 880 626 924 m 517 1047 q 507 1057 517 1047 q 468 1067 497 1067 q 419 1047 439 1067 q 399 997 399 1028 q 419 947 399 967 q 468 928 439 928 q 517 947 497 928 q 538 997 538 967 q 517 1047 538 1028 z "},"Ű":{"ha":985,"x_min":101,"x_max":885,"o":"m 393 1297 l 554 1297 l 417 1036 l 293 1036 l 393 1297 m 663 1297 l 822 1297 l 661 1036 l 539 1036 l 663 1297 m 101 372 l 101 969 l 297 969 l 297 372 q 348 221 297 272 q 493 169 399 169 q 639 221 588 169 q 690 372 690 272 l 690 969 l 885 969 l 885 372 q 769 90 885 189 q 489 -10 654 -10 q 213 89 324 -10 q 101 372 101 188 z "},"ű":{"ha":935,"x_min":97,"x_max":831,"o":"m 635 769 l 831 769 l 831 0 l 635 0 l 635 117 q 394 -10 561 -10 q 181 77 264 -10 q 97 318 97 164 l 97 769 l 292 769 l 292 346 q 338 207 292 256 q 463 158 383 158 q 588 207 542 158 q 635 346 635 256 l 635 769 m 529 1096 l 392 835 l 268 835 l 368 1096 l 529 1096 m 636 835 l 514 835 l 638 1096 l 797 1096 l 636 835 z "},"Ų":{"ha":985,"x_min":101,"x_max":885,"o":"m 101 372 l 101 969 l 297 969 l 297 372 q 348 221 297 272 q 493 169 399 169 q 639 221 588 169 q 690 372 690 272 l 690 969 l 885 969 l 885 372 q 809 131 885 221 q 626 10 733 42 q 568 -14 585 -1 q 551 -44 551 -26 q 613 -87 551 -87 l 753 -87 l 753 -200 l 582 -200 q 455 -158 507 -200 q 403 -43 403 -117 q 408 -3 403 -28 q 187 117 272 21 q 101 372 101 213 z "},"ų":{"ha":935,"x_min":97,"x_max":882,"o":"m 758 -178 l 882 -178 l 882 -290 l 711 -290 q 584 -249 636 -290 q 532 -133 532 -207 q 635 6 532 -31 l 635 117 q 394 -10 561 -10 q 181 77 264 -10 q 97 318 97 164 l 97 769 l 292 769 l 292 346 q 338 207 292 256 q 463 158 383 158 q 588 207 542 158 q 635 346 635 256 l 635 769 l 831 769 l 831 -90 l 758 -90 q 698 -97 715 -90 q 681 -133 681 -104 q 699 -170 681 -162 q 758 -178 717 -178 z "},"Ÿ":{"ha":893,"x_min":21,"x_max":872,"o":"m 544 0 l 349 0 l 349 333 l 21 969 l 240 969 l 447 513 l 653 969 l 872 969 l 544 333 l 544 0 m 383 1089 q 370 1076 383 1089 q 318 1063 357 1063 q 253 1089 279 1063 q 226 1154 226 1115 q 253 1219 226 1193 q 318 1246 279 1246 q 383 1219 357 1246 q 410 1154 410 1193 q 383 1089 410 1115 m 640 1089 q 627 1076 640 1089 q 575 1063 614 1063 q 510 1089 536 1063 q 483 1154 483 1115 q 510 1219 483 1193 q 575 1246 536 1246 q 640 1219 614 1246 q 667 1154 667 1193 q 640 1089 667 1115 z "},"Ź":{"ha":800,"x_min":69,"x_max":731,"o":"m 731 969 l 731 819 l 294 150 l 731 150 l 731 0 l 69 0 l 69 150 l 506 819 l 69 819 l 69 969 l 731 969 m 231 1163 l 550 1329 l 550 1171 l 231 1025 l 231 1163 z "},"ź":{"ha":683,"x_min":65,"x_max":617,"o":"m 617 769 l 617 610 l 293 161 l 617 161 l 617 0 l 65 0 l 65 161 l 390 610 l 65 610 l 65 769 l 617 769 m 174 961 l 493 1128 l 493 969 l 174 824 l 174 961 z "},"Ż":{"ha":800,"x_min":69,"x_max":731,"o":"m 464 1089 q 451 1076 464 1089 q 399 1063 438 1063 q 333 1089 360 1063 q 307 1154 307 1115 q 333 1219 307 1193 q 399 1246 360 1246 q 464 1219 438 1246 q 490 1154 490 1193 q 464 1089 490 1115 m 731 969 l 731 819 l 294 150 l 731 150 l 731 0 l 69 0 l 69 150 l 506 819 l 69 819 l 69 969 l 731 969 z "},"ż":{"ha":683,"x_min":65,"x_max":617,"o":"m 407 888 q 394 874 407 888 q 342 861 381 861 q 276 888 303 861 q 250 953 250 914 q 276 1018 250 992 q 342 1044 303 1044 q 407 1018 381 1044 q 433 953 433 992 q 407 888 433 914 m 617 769 l 617 610 l 293 161 l 617 161 l 617 0 l 65 0 l 65 161 l 390 610 l 65 610 l 65 769 l 617 769 z "},"Ž":{"ha":800,"x_min":69,"x_max":731,"o":"m 731 969 l 731 819 l 294 150 l 731 150 l 731 0 l 69 0 l 69 150 l 506 819 l 69 819 l 69 969 l 731 969 m 400 1167 l 606 1286 l 606 1144 l 400 1028 l 193 1144 l 193 1286 l 400 1167 z "},"ž":{"ha":683,"x_min":65,"x_max":617,"o":"m 617 769 l 617 610 l 293 161 l 617 161 l 617 0 l 65 0 l 65 161 l 390 610 l 65 610 l 65 769 l 617 769 m 343 965 l 549 1085 l 549 943 l 343 826 l 136 943 l 136 1085 l 343 965 z "},"ƒ":{"ha":464,"x_min":-94,"x_max":438,"o":"m -67 -333 l -94 -333 l -78 -169 l -54 -169 q 7 -100 1 -169 l 82 610 l 1 610 l 17 769 l 100 769 l 104 813 q 199 1015 118 951 q 438 1079 279 1079 l 421 915 q 333 892 360 915 q 300 813 307 869 l 296 769 l 417 769 l 400 610 l 278 610 l 203 -100 q 121 -280 190 -226 q -67 -333 51 -333 z "},"Ș":{"ha":867,"x_min":83,"x_max":783,"o":"m 418 826 q 389 826 418 826 q 323 797 360 826 q 286 714 286 767 q 313 631 286 661 q 385 585 340 601 q 482 557 429 569 q 588 526 535 544 q 685 482 640 508 q 756 405 729 456 q 783 282 783 354 q 688 76 783 163 q 435 -10 593 -10 q 181 65 278 -10 q 83 274 83 139 l 292 274 q 438 146 303 146 q 543 181 504 146 q 582 273 582 215 q 531 364 582 331 q 406 414 479 397 q 260 454 333 431 q 135 537 186 478 q 83 693 83 596 q 179 904 83 825 q 426 983 275 983 q 668 915 576 983 q 768 706 760 846 l 554 706 q 513 794 549 761 q 418 826 476 826 m 350 -60 l 511 -60 q 535 -219 535 -136 q 491 -351 535 -301 q 361 -400 447 -400 l 361 -322 q 431 -237 431 -322 l 431 -211 l 350 -211 l 350 -60 z "},"ș":{"ha":756,"x_min":60,"x_max":693,"o":"m 61 544 q 146 713 61 644 q 371 781 231 781 q 596 713 511 781 q 686 531 681 646 l 486 531 q 367 628 478 628 q 281 606 311 628 q 250 544 250 583 q 296 483 250 506 q 407 449 342 461 q 537 417 472 436 q 647 351 601 399 q 693 224 693 303 q 605 54 693 119 q 380 -11 517 -11 q 156 53 243 -11 q 60 239 68 118 l 260 239 q 383 142 271 142 q 471 166 438 142 q 504 230 504 190 q 458 292 504 269 q 347 328 413 315 q 217 358 282 340 q 107 423 153 376 q 61 544 61 469 m 293 -60 l 454 -60 q 478 -219 478 -136 q 434 -351 478 -301 q 304 -400 390 -400 l 304 -322 q 374 -237 374 -322 l 374 -211 l 293 -211 l 293 -60 z "},"Ț":{"ha":811,"x_min":47,"x_max":765,"o":"m 47 819 l 47 969 l 765 969 l 765 819 l 503 819 l 503 0 l 308 0 l 308 819 l 47 819 m 321 -60 l 482 -60 q 506 -219 506 -136 q 462 -351 506 -301 q 332 -400 418 -400 l 332 -322 q 401 -237 401 -322 l 401 -211 l 321 -211 l 321 -60 z "},"ț":{"ha":544,"x_min":44,"x_max":496,"o":"m 403 164 l 496 164 l 496 0 l 372 0 q 190 54 254 0 q 126 233 126 108 l 126 610 l 44 610 l 44 769 l 126 769 l 126 960 l 322 960 l 322 769 l 494 769 l 494 610 l 322 610 l 322 233 q 340 180 322 196 q 403 164 358 164 m 189 -60 l 350 -60 q 374 -219 374 -136 q 330 -351 374 -301 q 200 -400 286 -400 l 200 -322 q 269 -237 269 -322 l 269 -211 l 189 -211 l 189 -60 z "},"ʼ":{"ha":279,"x_min":47,"x_max":232,"o":"m 47 1136 l 208 1136 q 232 977 232 1060 q 188 845 232 894 q 58 796 144 796 l 58 874 q 128 958 128 874 l 128 985 l 47 985 l 47 1136 z "},"ˆ":{"ha":440,"x_min":14,"x_max":426,"o":"m 426 969 l 426 826 l 221 947 l 14 826 l 14 969 l 221 1085 l 426 969 z "},"ˇ":{"ha":440,"x_min":14,"x_max":426,"o":"m 221 965 l 426 1085 l 426 943 l 221 826 l 14 943 l 14 1085 l 221 965 z "},"ˉ":{"ha":558,"x_min":14,"x_max":544,"o":"m 14 878 l 14 1017 l 544 1017 l 544 878 l 14 878 z "},"˘":{"ha":471,"x_min":14,"x_max":457,"o":"m 457 1050 q 397 897 457 953 q 236 842 338 842 q 74 897 135 842 q 14 1050 14 953 l 14 1086 l 118 1086 q 144 1013 118 1038 q 236 989 171 989 q 328 1013 301 989 q 354 1086 354 1038 l 457 1086 l 457 1050 z "},"˙":{"ha":211,"x_min":14,"x_max":197,"o":"m 171 888 q 158 874 171 888 q 106 861 144 861 q 40 888 67 861 q 14 953 14 914 q 40 1018 14 992 q 106 1044 67 1044 q 171 1018 144 1044 q 197 953 197 992 q 171 888 197 914 z "},"˚":{"ha":346,"x_min":14,"x_max":332,"o":"m 223 947 q 233 957 223 947 q 243 997 243 967 q 223 1047 243 1028 q 174 1067 203 1067 q 124 1047 144 1067 q 104 997 104 1028 q 124 947 104 967 q 174 928 144 928 q 223 947 203 928 m 60 880 q 37 902 60 880 q 14 996 14 924 q 60 1112 14 1068 q 174 1156 106 1156 q 287 1112 242 1156 q 332 996 332 1068 q 287 880 332 924 q 174 836 242 836 q 60 880 106 836 z "},"˛":{"ha":386,"x_min":14,"x_max":364,"o":"m 66 -247 q 40 -226 66 -247 q 14 -132 14 -206 q 65 -20 14 -58 q 194 18 117 18 l 313 18 l 313 -89 l 240 -89 q 180 -96 197 -89 q 163 -132 163 -103 q 181 -169 163 -161 q 240 -176 199 -176 l 364 -176 l 364 -289 l 193 -289 q 66 -247 118 -289 z "},"˜":{"ha":529,"x_min":14,"x_max":515,"o":"m 183 1028 q 278 997 226 1028 q 354 967 329 967 q 414 1026 406 967 l 515 1026 q 346 844 488 844 q 251 876 303 844 q 175 907 200 907 q 114 846 124 907 l 14 846 q 183 1028 42 1028 z "},"˝":{"ha":557,"x_min":14,"x_max":543,"o":"m 114 1096 l 275 1096 l 138 835 l 14 835 l 114 1096 m 383 1096 l 543 1096 l 382 835 l 260 835 l 383 1096 z "},"π":{"ha":982,"x_min":36,"x_max":942,"o":"m 36 619 l 36 769 l 942 769 l 942 619 l 839 619 l 839 0 l 644 0 l 644 619 l 333 619 l 333 0 l 138 0 l 138 619 l 36 619 z "},"ँ":{"ha":0,"x_min":-519,"x_max":92,"o":"m -131 1443 q -131 1425 -131 1443 q -155 1383 -131 1407 q -215 1358 -179 1358 q -275 1383 -250 1358 q -300 1443 -300 1408 q -275 1503 -300 1478 q -215 1528 -250 1528 q -155 1503 -179 1528 q -131 1443 -131 1479 m 92 1407 q 14 1205 92 1281 q -215 1129 -64 1129 q -442 1205 -365 1129 q -519 1407 -519 1281 l -368 1407 q -328 1307 -368 1347 q -215 1267 -289 1267 q -101 1307 -140 1267 q -62 1407 -62 1347 l 92 1407 z "},"ं":{"ha":0,"x_min":-321,"x_max":-96,"o":"m -128 1198 q -145 1182 -128 1198 q -208 1165 -161 1165 q -288 1198 -256 1165 q -321 1277 -321 1231 q -288 1357 -321 1324 q -208 1390 -256 1390 q -128 1357 -161 1390 q -96 1277 -96 1324 q -128 1198 -96 1231 z "},"ः":{"ha":289,"x_min":50,"x_max":239,"o":"m 239 272 q 239 252 239 272 q 211 205 239 232 q 144 178 183 178 q 77 206 104 178 q 50 272 50 233 q 77 339 50 311 q 144 367 104 367 q 211 340 183 367 q 239 272 239 313 m 239 674 q 239 655 239 674 q 211 607 239 635 q 144 579 183 579 q 77 607 104 579 q 50 674 50 635 q 77 742 50 714 q 144 769 104 769 q 211 742 183 769 q 239 674 239 714 z "},"अ":{"ha":1183,"x_min":121,"x_max":1219,"o":"m 882 1028 l 1219 1028 l 1219 867 l 1069 867 l 1069 0 l 882 0 l 882 394 l 726 394 q 728 368 728 386 q 644 156 728 231 q 425 81 561 81 q 205 158 289 81 q 121 369 121 235 l 299 369 q 333 277 299 313 q 426 242 368 242 q 518 276 485 242 q 551 368 551 311 q 392 492 551 492 l 349 492 l 349 657 l 393 657 q 495 685 457 657 q 533 766 533 714 q 505 849 533 818 q 424 879 476 879 q 340 849 371 879 q 307 768 310 818 l 129 768 q 213 965 129 890 q 426 1040 297 1040 q 635 970 556 1040 q 714 783 714 900 q 679 658 714 711 q 582 582 644 606 l 582 576 q 632 551 608 567 l 882 551 l 882 1028 z "},"आ":{"ha":1599,"x_min":121,"x_max":1635,"o":"m 1635 1028 l 1635 867 l 1485 867 l 1485 0 l 1299 0 l 1299 867 l 1069 867 l 1069 0 l 882 0 l 882 394 l 726 394 q 728 368 728 386 q 644 156 728 231 q 425 81 561 81 q 205 158 289 81 q 121 369 121 235 l 299 369 q 333 277 299 313 q 426 242 368 242 q 518 276 485 242 q 551 368 551 311 q 392 492 551 492 l 349 492 l 349 657 l 393 657 q 495 685 457 657 q 533 766 533 714 q 505 849 533 818 q 424 879 476 879 q 340 849 371 879 q 307 768 310 818 l 129 768 q 213 965 129 890 q 426 1040 297 1040 q 635 970 556 1040 q 714 783 714 900 q 679 658 714 711 q 582 582 644 606 l 582 576 q 632 551 608 567 l 882 551 l 882 1028 l 1635 1028 z "},"इ":{"ha":817,"x_min":-36,"x_max":853,"o":"m 669 608 l 450 608 q 343 592 381 608 q 306 531 306 576 q 341 472 306 486 q 444 458 376 458 q 561 449 513 458 q 656 417 610 440 q 754 222 754 365 q 681 46 754 114 q 486 -22 608 -22 q 307 44 364 -22 l 307 -114 l 129 -114 l 129 258 l 307 258 q 346 160 310 194 q 444 125 382 125 q 571 222 571 125 q 532 294 571 275 q 426 313 493 313 q 313 321 360 313 q 217 353 265 329 q 117 544 117 400 q 198 707 117 654 q 403 760 279 760 l 482 760 l 482 867 l -36 867 l -36 1028 l 853 1028 l 853 867 l 669 867 l 669 608 z "},"ई":{"ha":817,"x_min":-36,"x_max":997,"o":"m 656 1135 l 656 1028 l 853 1028 l 853 867 l 669 867 l 669 608 l 450 608 q 343 592 381 608 q 306 531 306 576 q 341 472 306 486 q 444 458 376 458 q 561 449 513 458 q 656 417 610 440 q 754 222 754 365 q 681 46 754 114 q 486 -22 608 -22 q 307 44 364 -22 l 307 -114 l 129 -114 l 129 258 l 307 258 q 346 160 310 194 q 444 125 382 125 q 571 222 571 125 q 532 294 571 275 q 426 313 493 313 q 313 321 360 313 q 217 353 265 329 q 117 544 117 400 q 198 707 117 654 q 403 760 279 760 l 482 760 l 482 867 l -36 867 l -36 1028 l 493 1028 l 493 1133 q 751 1450 493 1450 q 934 1378 871 1450 q 997 1181 997 1307 l 838 1181 q 751 1296 835 1296 q 677 1256 699 1296 q 656 1135 656 1217 z "},"उ":{"ha":794,"x_min":-43,"x_max":831,"o":"m 683 867 l 683 836 q 658 651 683 719 q 560 551 632 583 l 560 546 q 677 460 633 521 q 721 314 721 399 q 635 94 721 175 q 403 13 550 13 q 165 102 256 13 q 74 342 74 192 l 249 342 q 293 222 249 269 q 405 175 338 175 q 510 214 472 175 q 547 322 547 253 q 499 426 547 390 q 371 463 451 463 l 311 463 l 311 626 l 361 626 q 476 677 446 626 q 507 833 507 728 l 507 867 l -43 867 l -43 1028 l 831 1028 l 831 867 l 683 867 z "},"ऊ":{"ha":1182,"x_min":-36,"x_max":1217,"o":"m 683 867 l 683 836 q 657 651 683 719 q 558 549 631 582 l 558 540 l 807 540 q 1128 281 1128 540 q 1033 75 1128 138 q 772 29 939 13 l 772 174 q 903 189 860 165 q 946 278 946 213 q 806 386 946 386 l 710 386 q 721 314 721 350 q 635 94 721 175 q 402 13 549 13 q 165 102 256 13 q 74 342 74 192 l 249 342 q 293 222 249 269 q 404 175 338 175 q 509 213 471 175 q 547 320 547 251 q 499 426 547 389 q 369 463 450 463 l 311 463 l 311 626 l 360 626 q 475 676 444 626 q 506 833 506 726 l 506 867 l -36 867 l -36 1028 l 1217 1028 l 1217 867 l 683 867 z "},"ऋ":{"ha":1415,"x_min":-36,"x_max":1451,"o":"m 1451 867 l 844 867 l 844 651 l 1063 651 q 1121 667 1107 651 q 1135 726 1135 682 l 1135 774 l 1300 774 l 1300 290 l 1271 290 q 1131 176 1131 286 q 1170 94 1131 121 q 1263 67 1210 67 q 1357 76 1317 67 l 1357 -71 q 1253 -82 1313 -82 q 1036 -16 1119 -82 q 953 172 953 50 q 1001 319 953 260 q 1135 401 1050 379 l 1135 501 q 1063 497 1101 497 l 844 497 l 844 0 l 658 0 l 658 293 l 379 0 l 136 0 l 136 8 q 643 481 211 82 q 464 593 599 593 q 324 534 375 593 q 274 381 274 475 l 88 381 q 180 650 88 547 q 425 753 272 753 q 658 658 578 753 l 658 867 l -36 867 l -36 1028 l 1451 1028 l 1451 867 z "},"ऌ":{"ha":1264,"x_min":-36,"x_max":1300,"o":"m 1138 -104 q 922 -39 1004 -104 q 839 149 839 26 q 885 292 839 233 q 1010 371 932 351 q 979 499 1011 449 q 872 549 947 549 q 731 297 711 549 l 558 297 q 422 549 578 549 q 285 376 285 549 q 342 226 285 274 q 506 185 400 178 l 506 21 q 206 103 315 7 q 97 369 97 200 q 180 626 97 538 q 401 714 263 714 q 647 564 583 714 q 772 686 682 657 l 772 867 l -36 867 l -36 1028 l 1300 1028 l 1300 867 l 953 867 l 953 708 q 1128 605 1063 689 q 1193 381 1193 521 q 1181 269 1193 324 l 1158 269 q 1015 156 1015 269 q 1055 72 1015 100 q 1144 44 1094 44 q 1242 56 1194 44 l 1242 -93 q 1138 -104 1189 -104 z "},"ऍ":{"ha":921,"x_min":-51,"x_max":958,"o":"m 958 1028 l 958 867 l 815 867 l 815 711 q 738 478 815 549 q 494 411 661 407 l 494 582 q 598 608 569 581 q 626 711 626 635 l 626 867 l 318 867 l 318 358 q 472 188 318 188 q 626 331 626 188 l 808 331 q 719 107 808 188 q 467 26 629 26 q 217 119 304 26 q 131 369 131 213 l 129 867 l -51 867 l -51 1028 l 958 1028 m 481 1413 l 639 1413 q 597 1222 639 1292 q 468 1153 554 1153 q 338 1223 382 1153 q 294 1413 294 1293 l 453 1413 q 467 1247 453 1247 q 481 1413 481 1247 z "},"ए":{"ha":938,"x_min":-36,"x_max":974,"o":"m 974 1028 l 974 867 l 831 867 l 831 711 q 753 478 831 549 q 510 411 676 407 l 510 582 q 613 608 585 581 q 642 711 642 635 l 642 867 l 333 867 l 333 358 q 488 188 333 188 q 642 331 642 188 l 824 331 q 734 107 824 188 q 482 26 644 26 q 233 119 319 26 q 146 369 146 213 l 144 867 l -36 867 l -36 1028 l 974 1028 z "},"ऐ":{"ha":938,"x_min":-36,"x_max":974,"o":"m 974 1028 l 974 867 l 831 867 l 831 711 q 753 478 831 549 q 510 411 676 407 l 510 582 q 613 608 585 581 q 642 711 642 635 l 642 867 l 333 867 l 333 358 q 488 188 333 188 q 642 331 642 188 l 824 331 q 734 107 824 188 q 482 26 644 26 q 233 119 319 26 q 146 369 146 213 l 144 867 l -36 867 l -36 1028 l 589 1028 q 451 1194 499 1163 q 283 1225 404 1225 l 219 1225 l 219 1372 l 276 1372 q 394 1366 350 1372 q 487 1342 439 1360 q 575 1285 535 1324 q 761 1028 660 1201 l 974 1028 z "},"ऑ":{"ha":1622,"x_min":143,"x_max":1657,"o":"m 1657 1028 l 1657 867 l 1507 867 l 1507 0 l 1321 0 l 1321 867 l 1092 867 l 1092 0 l 904 0 l 904 394 l 749 394 q 750 368 750 386 q 667 156 750 231 q 447 81 583 81 q 227 158 311 81 q 143 369 143 235 l 321 369 q 356 277 321 313 q 449 242 390 242 q 540 276 507 242 q 574 368 574 311 q 414 492 574 492 l 371 492 l 371 657 l 415 657 q 517 685 479 657 q 556 766 556 714 q 527 849 556 818 q 446 879 499 879 q 363 849 393 879 q 329 768 332 818 l 151 768 q 235 965 151 890 q 449 1040 319 1040 q 657 970 578 1040 q 736 783 736 900 q 701 658 736 711 q 604 582 667 606 l 604 576 q 654 551 631 567 l 904 551 l 904 1028 l 1657 1028 m 1372 1407 l 1531 1407 q 1457 1203 1531 1278 q 1228 1129 1383 1129 q 1001 1203 1074 1129 q 928 1407 928 1278 l 1086 1407 q 1122 1307 1086 1346 q 1229 1268 1157 1268 q 1337 1307 1301 1268 q 1372 1407 1372 1346 z "},"ओ":{"ha":1622,"x_min":143,"x_max":1657,"o":"m 1657 1028 l 1657 867 l 1507 867 l 1507 0 l 1321 0 l 1321 867 l 1092 867 l 1092 0 l 904 0 l 904 394 l 749 394 q 750 368 750 386 q 667 156 750 231 q 447 81 583 81 q 227 158 311 81 q 143 369 143 235 l 321 369 q 356 277 321 313 q 449 242 390 242 q 540 276 507 242 q 574 368 574 311 q 414 492 574 492 l 371 492 l 371 657 l 415 657 q 517 685 479 657 q 556 766 556 714 q 527 849 556 818 q 446 879 499 879 q 363 849 393 879 q 329 768 332 818 l 151 768 q 235 965 151 890 q 449 1040 319 1040 q 657 970 578 1040 q 736 783 736 900 q 701 658 736 711 q 604 582 667 606 l 604 576 q 654 551 631 567 l 904 551 l 904 1028 l 1343 1028 q 1206 1194 1253 1163 q 1038 1225 1158 1225 l 974 1225 l 974 1372 l 1031 1372 q 1149 1366 1104 1372 q 1241 1342 1193 1360 q 1328 1285 1289 1324 q 1515 1028 1414 1201 l 1657 1028 z "},"औ":{"ha":1647,"x_min":168,"x_max":1683,"o":"m 1683 1028 l 1683 867 l 1533 867 l 1533 0 l 1347 0 l 1347 867 l 1117 867 l 1117 0 l 929 0 l 929 394 l 774 394 q 775 368 775 386 q 692 156 775 231 q 472 81 608 81 q 252 158 336 81 q 168 369 168 235 l 346 369 q 381 277 346 313 q 474 242 415 242 q 565 276 532 242 q 599 368 599 311 q 439 492 599 492 l 396 492 l 396 657 l 440 657 q 542 685 504 657 q 581 766 581 714 q 552 849 581 818 q 471 879 524 879 q 388 849 418 879 q 354 768 357 818 l 176 768 q 260 965 176 890 q 474 1040 344 1040 q 682 970 603 1040 q 761 783 761 900 q 726 658 761 711 q 629 582 692 606 l 629 576 q 679 551 656 567 l 929 551 l 929 1028 l 1358 1028 q 1233 1100 1282 1088 q 1054 1113 1183 1113 l 990 1113 l 990 1235 l 1047 1235 q 1164 1231 1132 1233 q 1335 1154 1251 1224 q 1214 1281 1269 1256 q 1051 1307 1158 1307 l 988 1307 l 988 1429 l 1044 1429 q 1142 1426 1106 1429 q 1221 1408 1179 1422 q 1291 1369 1263 1393 q 1358 1299 1319 1346 q 1525 1028 1415 1229 l 1683 1028 z "},"क":{"ha":1383,"x_min":-36,"x_max":1419,"o":"m 1419 867 l 804 867 l 804 674 q 1006 765 869 765 q 1221 673 1142 765 q 1300 440 1300 581 q 1186 192 1300 275 q 904 138 1072 108 l 904 289 q 1057 316 1001 275 q 1113 436 1113 357 q 1072 560 1113 515 q 957 604 1032 604 q 843 556 882 604 q 804 424 804 507 l 804 0 l 624 0 l 624 215 q 414 118 554 118 q 191 210 274 118 q 108 441 108 303 q 190 672 108 579 q 413 764 272 764 q 624 667 554 764 l 624 867 l -36 867 l -36 1028 l 1419 1028 l 1419 867 m 340 322 q 361 301 340 322 q 460 279 383 279 q 580 323 536 279 q 624 442 624 367 q 580 560 624 517 q 459 603 536 603 q 339 560 382 603 q 296 441 296 517 q 340 322 296 365 z "},"ख":{"ha":1308,"x_min":-36,"x_max":1344,"o":"m -36 1028 l 1344 1028 l 1344 867 l 1194 867 l 1194 0 l 1014 0 l 1014 250 q 832 174 953 174 q 810 175 817 174 q 683 42 771 89 q 476 -4 594 -4 q 204 92 304 -4 q 104 364 104 189 l 104 565 l 143 565 q 250 575 213 567 q 312 613 288 583 q 343 687 336 642 q 350 817 350 732 l 350 867 l -36 867 l -36 1028 m 293 347 q 475 157 293 157 q 649 247 608 157 q 568 457 568 331 q 642 664 568 583 q 835 744 715 744 q 1014 669 954 744 l 1014 867 l 538 867 l 538 818 q 489 529 538 608 q 293 436 440 450 l 293 347 m 738 460 q 738 428 738 460 q 776 359 738 396 q 877 322 814 322 q 977 359 940 322 q 1014 460 1014 396 q 978 560 1014 524 q 878 597 942 597 q 776 560 814 597 q 738 460 738 524 z "},"ग":{"ha":1079,"x_min":-36,"x_max":1115,"o":"m -36 1028 l 1115 1028 l 1115 867 l 964 867 l 964 0 l 778 0 l 778 867 l 557 867 l 557 569 q 499 338 557 415 q 304 260 442 260 q 44 557 38 260 l 231 557 q 267 431 231 454 q 308 421 282 421 q 350 432 335 421 q 372 468 365 443 q 381 567 381 504 l 381 867 l -36 867 l -36 1028 z "},"घ":{"ha":968,"x_min":-36,"x_max":1004,"o":"m 1004 1028 l 1004 867 l 853 867 l 853 0 l 665 0 l 665 246 q 403 142 581 142 q 190 207 282 142 q 97 392 97 272 q 135 515 97 464 q 231 592 172 567 l 231 600 q 142 687 168 629 q 115 853 115 744 l 115 867 l -36 867 l -36 1028 l 1004 1028 m 665 496 l 665 867 l 304 867 l 304 853 q 331 714 304 756 q 440 672 358 672 l 500 672 l 500 519 l 436 519 q 324 491 364 519 q 285 407 285 463 q 329 324 285 351 q 440 296 374 296 q 601 350 536 296 q 665 496 665 404 z "},"ङ":{"ha":965,"x_min":-36,"x_max":1001,"o":"m -36 1028 l 1001 1028 l 1001 867 l 657 867 l 657 608 l 439 608 q 331 592 368 608 q 293 531 293 576 q 328 472 293 486 q 438 458 364 458 q 743 222 743 458 q 660 44 743 111 q 429 -24 576 -24 q 187 51 282 -24 q 86 258 92 125 l 271 258 q 431 125 282 125 q 558 222 558 125 q 521 293 558 275 q 422 311 483 311 q 322 316 361 311 q 241 335 283 321 q 170 374 199 350 q 123 442 142 399 q 104 544 104 486 q 185 707 104 654 q 390 760 267 760 l 469 760 l 469 867 l -36 867 l -36 1028 m 747 579 q 763 594 747 579 q 821 610 778 610 q 894 580 864 610 q 925 506 925 550 q 894 433 925 463 q 821 403 864 403 q 747 433 778 403 q 717 506 717 463 q 747 579 717 549 z "},"च":{"ha":1032,"x_min":-36,"x_max":1068,"o":"m -36 1028 l 1068 1028 l 1068 867 l 918 867 l 918 0 l 731 0 l 731 225 q 503 124 660 124 q 280 197 369 124 q 190 387 190 271 q 264 569 190 503 l 69 569 l 69 718 l 581 718 l 581 569 l 531 569 q 414 531 460 569 q 368 424 368 493 q 415 318 368 356 q 544 281 463 281 q 678 342 626 281 q 731 503 731 404 l 731 867 l -36 867 l -36 1028 z "},"छ":{"ha":1147,"x_min":-36,"x_max":1183,"o":"m 1183 867 l 921 867 l 921 747 q 1075 468 1075 688 q 947 156 1075 269 q 572 43 818 43 q 175 169 301 43 q 107 336 107 238 q 249 557 107 493 l 249 565 q 149 659 176 594 q 122 839 122 724 l 122 867 l -36 867 l -36 1028 l 1183 1028 l 1183 867 m 310 867 l 310 835 q 338 681 310 725 q 454 638 367 638 l 472 638 l 472 483 l 447 483 q 338 450 381 483 q 296 354 296 417 q 374 239 296 276 q 568 201 451 201 q 915 472 915 201 q 888 585 915 544 q 806 625 861 625 q 726 572 751 625 q 706 383 700 518 l 547 383 q 586 658 538 572 q 742 761 635 744 l 743 867 l 310 867 z "},"ज":{"ha":1175,"x_min":-36,"x_max":1211,"o":"m -36 1028 l 1211 1028 l 1211 867 l 1060 867 l 1060 0 l 874 0 l 874 547 l 688 547 l 688 478 q 617 226 688 314 q 389 138 547 138 q 76 478 76 138 l 76 699 l 263 699 l 263 513 q 279 369 263 411 q 321 313 296 328 q 382 299 346 299 q 441 310 418 299 q 476 337 464 321 q 494 383 488 353 q 504 513 504 426 l 504 699 l 874 699 l 874 867 l -36 867 l -36 1028 z "},"झ":{"ha":1194,"x_min":-36,"x_max":1231,"o":"m 1231 1028 l 1231 867 l 1081 867 l 1081 0 l 894 0 l 894 340 l 693 340 q 726 261 726 317 q 660 91 726 157 q 474 25 593 25 q 299 90 356 25 l 299 -71 l 121 -71 l 121 294 l 299 294 q 336 204 300 236 q 432 172 372 172 q 553 267 553 172 q 511 335 553 322 q 419 344 478 344 q 325 348 361 344 q 245 365 289 351 q 174 400 201 378 q 126 465 146 422 q 107 567 107 508 q 187 726 107 678 q 393 774 267 774 l 472 774 l 472 867 l -36 867 l -36 1028 l 1231 1028 m 894 489 l 894 867 l 660 867 l 660 622 l 442 622 q 364 619 392 622 q 296 557 296 610 q 326 501 296 514 q 421 489 356 489 l 894 489 z "},"ञ":{"ha":1185,"x_min":-36,"x_max":1221,"o":"m -36 1028 l 1221 1028 l 1221 867 l 1071 867 l 1071 0 l 885 0 l 885 361 l 733 361 q 627 174 713 243 q 406 104 542 104 q 184 173 269 104 q 82 353 99 242 l 265 353 q 314 289 276 314 q 417 264 351 264 q 522 311 483 264 q 561 438 561 358 q 522 565 561 517 q 417 613 483 613 q 314 588 351 613 q 265 524 276 563 l 82 524 q 184 703 99 635 q 405 772 269 772 q 625 704 540 772 q 732 521 710 636 l 885 521 l 885 867 l -36 867 l -36 1028 z "},"ट":{"ha":907,"x_min":-36,"x_max":943,"o":"m 632 604 l 525 604 q 337 552 407 603 q 267 405 267 501 q 324 254 267 308 q 476 200 382 200 q 622 254 569 200 q 675 401 675 308 l 853 401 q 751 134 853 231 q 475 38 649 38 q 192 135 301 38 q 83 397 83 233 q 183 656 83 560 q 446 763 282 751 l 446 867 l -36 867 l -36 1028 l 943 1028 l 943 867 l 632 867 l 632 604 z "},"ठ":{"ha":931,"x_min":-36,"x_max":967,"o":"m 674 407 q 674 451 674 407 q 618 551 674 496 q 472 606 563 606 q 325 551 381 606 q 269 407 269 496 q 325 263 269 318 q 472 208 381 208 q 618 263 563 208 q 674 407 674 318 m 857 407 q 748 147 857 244 q 471 50 639 50 q 194 148 303 50 q 85 407 85 246 q 165 637 85 544 q 378 754 246 729 l 378 867 l -36 867 l -36 1028 l 967 1028 l 967 867 l 564 867 l 564 754 q 777 637 697 729 q 857 407 857 544 z "},"ड":{"ha":796,"x_min":-36,"x_max":832,"o":"m 657 608 l 439 608 q 331 592 368 608 q 293 531 293 576 q 328 472 293 486 q 438 458 364 458 q 743 222 743 458 q 660 44 743 111 q 429 -24 576 -24 q 187 51 282 -24 q 86 258 92 125 l 271 258 q 431 125 282 125 q 558 222 558 125 q 521 293 558 275 q 422 311 483 311 q 322 316 361 311 q 241 335 283 321 q 170 374 199 350 q 123 442 142 399 q 104 544 104 486 q 185 707 104 654 q 390 760 267 760 l 469 760 l 469 867 l -36 867 l -36 1028 l 832 1028 l 832 867 l 657 867 l 657 608 z "},"ढ":{"ha":890,"x_min":-36,"x_max":926,"o":"m 676 614 l 546 614 q 340 553 417 614 q 263 381 263 492 q 330 212 263 269 q 521 154 397 154 q 644 186 600 154 q 688 274 688 218 q 603 365 688 365 q 521 269 521 365 l 363 269 q 420 447 360 383 q 597 511 481 511 q 787 448 714 511 q 860 279 860 385 q 763 69 860 143 q 514 -4 665 -4 q 201 97 324 -4 q 79 380 79 199 q 192 660 79 561 q 490 769 304 758 l 490 867 l -36 867 l -36 1028 l 926 1028 l 926 867 l 676 867 l 676 614 z "},"ण":{"ha":1228,"x_min":-36,"x_max":1264,"o":"m -36 1028 l 1264 1028 l 1264 867 l 1113 867 l 1113 0 l 926 0 l 926 867 l 728 867 l 728 532 q 654 292 728 378 q 425 206 581 206 q 197 292 269 206 q 124 532 124 378 l 124 867 l -36 867 l -36 1028 m 543 524 l 543 867 l 308 867 l 308 524 q 426 367 308 367 q 543 524 543 367 z "},"त":{"ha":960,"x_min":-36,"x_max":996,"o":"m 485 149 l 485 -1 l 450 -1 q 181 84 276 -1 q 85 344 85 169 q 193 601 85 518 q 481 685 301 685 l 658 685 l 658 867 l -36 867 l -36 1028 l 996 1028 l 996 867 l 844 867 l 844 0 l 658 0 l 658 524 l 483 524 q 329 478 386 524 q 272 338 272 432 q 485 149 272 149 z "},"थ":{"ha":1081,"x_min":72,"x_max":1117,"o":"m 1117 867 l 965 867 l 965 0 l 779 0 l 779 256 q 670 157 744 197 q 490 117 596 117 q 176 261 279 117 q 104 640 72 406 l 253 640 q 427 671 367 640 q 488 776 488 701 q 461 851 488 824 q 388 878 435 878 q 315 844 340 878 q 293 753 290 811 l 121 753 q 193 963 115 886 q 391 1039 271 1039 q 589 969 511 1039 q 667 767 667 899 q 567 567 667 635 q 296 500 467 499 q 346 340 289 401 q 517 278 403 278 q 705 356 632 278 q 779 569 778 435 l 779 1028 l 1117 1028 l 1117 867 z "},"द":{"ha":843,"x_min":-36,"x_max":879,"o":"m 750 -24 l 564 -24 l 564 153 q 392 97 518 97 q 174 181 265 97 q 83 425 83 264 q 191 670 83 586 q 476 754 299 754 l 518 754 l 518 867 l -36 867 l -36 1028 l 879 1028 l 879 867 l 704 867 l 704 589 l 492 589 q 269 414 269 589 q 315 296 269 336 q 432 256 360 256 q 581 382 581 256 l 750 382 l 750 -24 z "},"ध":{"ha":1017,"x_min":110,"x_max":1050,"o":"m 1050 1028 l 1050 867 l 903 867 l 903 0 l 715 0 l 715 231 q 438 122 625 122 q 213 190 307 122 q 118 375 118 257 q 265 582 118 528 l 265 590 q 153 673 197 615 q 110 823 110 731 q 178 978 110 915 q 363 1042 247 1042 q 542 969 478 1042 q 600 779 607 896 l 449 779 q 428 853 450 826 q 366 881 406 881 q 302 857 326 881 q 278 794 278 833 q 332 694 278 726 q 467 663 386 663 l 547 663 l 547 510 l 489 510 q 306 396 306 510 q 355 308 306 338 q 476 278 404 278 q 647 342 579 278 q 715 510 715 406 l 715 1028 l 1050 1028 z "},"न":{"ha":1111,"x_min":-36,"x_max":1147,"o":"m 483 392 q 483 422 483 392 q 450 485 483 451 q 358 518 417 518 q 263 485 300 518 q 226 393 226 453 q 265 299 226 333 q 359 265 303 265 q 449 299 415 265 q 483 392 483 333 m 810 0 l 810 519 l 579 519 q 626 454 608 497 q 643 363 643 411 q 566 174 643 243 q 358 104 489 104 q 141 183 226 104 q 56 397 56 263 q 145 604 56 531 q 388 678 235 678 l 810 678 l 810 867 l -36 867 l -36 1028 l 1147 1028 l 1147 867 l 996 867 l 996 0 l 810 0 z "},"प":{"ha":942,"x_min":-36,"x_max":978,"o":"m -36 1028 l 978 1028 l 978 867 l 828 867 l 828 0 l 640 0 l 640 346 q 424 249 569 249 q 197 349 278 249 q 117 604 117 449 l 117 867 l -36 867 l -36 1028 m 304 867 l 304 601 q 474 408 304 408 q 595 459 550 408 q 640 596 640 510 l 640 867 l 304 867 z "},"फ":{"ha":1360,"x_min":-36,"x_max":1396,"o":"m 1396 867 l 800 867 l 800 653 q 1003 743 868 743 q 1218 656 1139 743 q 1297 421 1297 568 q 1198 189 1297 274 q 932 122 1099 104 l 931 276 q 1068 310 1018 271 q 1118 424 1118 349 q 1077 540 1118 499 q 962 581 1036 581 q 844 530 888 581 q 800 401 800 479 l 800 0 l 613 0 l 613 375 q 407 283 547 283 q 192 383 267 283 q 117 642 117 483 l 117 867 l -36 867 l -36 1028 l 1396 1028 l 1396 867 m 304 867 l 304 639 q 339 493 304 543 q 455 443 374 443 q 574 498 536 443 q 613 644 613 553 l 613 867 l 304 867 z "},"ब":{"ha":929,"x_min":-36,"x_max":965,"o":"m -36 1028 l 965 1028 l 965 867 l 814 867 l 814 0 l 635 0 l 635 193 q 406 92 557 92 q 157 188 254 92 q 60 436 60 285 q 157 684 60 588 q 406 781 254 781 q 635 678 557 781 l 635 867 l -36 867 l -36 1028 m 643 436 q 585 581 643 525 q 447 638 528 638 q 308 600 365 638 l 633 369 q 643 436 643 399 m 225 436 q 285 289 225 343 q 431 235 344 235 q 571 278 517 235 l 239 514 q 225 436 225 476 z "},"भ":{"ha":1171,"x_min":107,"x_max":1207,"o":"m 1207 1028 l 1207 867 l 1057 867 l 1057 0 l 869 0 l 869 485 l 681 485 l 681 419 q 610 185 681 267 q 408 103 540 103 q 191 178 275 103 q 107 381 107 253 q 194 575 107 510 q 439 640 282 640 l 504 640 l 504 724 q 488 836 504 796 q 419 876 471 876 q 351 836 368 876 q 335 721 335 796 l 149 721 q 417 1040 146 1040 q 681 721 681 1040 l 681 640 l 869 640 l 869 1028 l 1207 1028 m 504 414 l 504 485 l 438 485 q 282 369 282 485 q 314 291 282 321 q 401 261 346 261 q 481 300 457 261 q 504 414 504 339 z "},"म":{"ha":1154,"x_min":-36,"x_max":1190,"o":"m 1190 1028 l 1190 867 l 1039 867 l 1039 0 l 853 0 l 853 486 l 649 486 l 649 421 q 578 187 649 269 q 376 104 508 104 q 159 179 243 104 q 75 383 75 254 q 163 576 75 511 q 407 642 250 642 l 472 642 l 472 867 l -36 867 l -36 1028 l 1190 1028 m 472 415 l 472 486 l 406 486 q 249 371 249 486 q 281 292 249 322 q 369 263 314 263 q 448 301 424 263 q 472 415 472 340 m 853 642 l 853 867 l 649 867 l 649 642 l 853 642 z "},"य":{"ha":1036,"x_min":-36,"x_max":1072,"o":"m -36 1028 l 1072 1028 l 1072 867 l 922 867 l 922 0 l 735 0 l 735 242 q 475 124 651 124 q 176 258 275 124 q 89 614 76 392 q 221 626 172 614 q 292 672 269 639 q 319 738 314 704 q 324 836 324 771 l 324 867 l -36 867 l -36 1028 m 507 867 l 507 829 q 463 592 507 665 q 283 506 418 519 q 341 345 282 406 q 507 285 400 285 q 674 352 614 285 q 735 531 735 419 l 735 867 l 507 867 z "},"र":{"ha":729,"x_min":-36,"x_max":765,"o":"m 642 867 l 642 814 q 627 633 642 701 q 572 517 613 564 q 464 451 532 469 q 285 429 396 432 l 285 294 q 389 157 285 157 q 489 293 489 157 l 672 293 q 601 72 674 149 q 388 -4 528 -4 q 172 73 247 -4 q 96 293 96 150 l 96 579 q 365 594 307 579 q 442 671 424 610 q 454 815 454 715 l 454 867 l -36 867 l -36 1028 l 765 1028 l 765 867 l 642 867 z "},"ऱ":{"ha":729,"x_min":-87,"x_max":765,"o":"m 642 867 l 642 814 q 627 633 642 701 q 572 517 613 564 q 464 451 532 469 q 285 429 396 432 l 285 294 q 389 157 285 157 q 489 293 489 157 l 672 293 q 601 72 674 149 q 388 -4 528 -4 q 172 73 247 -4 q 96 293 96 150 l 96 579 q 365 594 307 579 q 442 671 424 610 q 454 815 454 715 l 454 867 l -36 867 l -36 1028 l 765 1028 l 765 867 l 642 867 m -55 18 q -39 35 -55 18 q 25 51 -22 51 q 105 18 72 51 q 138 -62 138 -15 q 105 -141 138 -108 q 25 -174 72 -174 q -55 -141 -22 -174 q -87 -62 -87 -108 q -55 18 -87 -15 z "},"ल":{"ha":1264,"x_min":-36,"x_max":1300,"o":"m 422 549 q 285 376 285 549 q 342 226 285 274 q 506 185 400 178 l 506 21 q 206 103 315 7 q 97 369 97 200 q 180 626 97 538 q 401 714 263 714 q 647 564 583 714 q 772 686 682 657 l 772 867 l -36 867 l -36 1028 l 1300 1028 l 1300 867 l 953 867 l 953 708 q 1130 603 1065 689 q 1194 375 1194 517 q 1085 103 1194 199 q 785 21 975 7 l 785 185 q 949 226 892 178 q 1007 364 1007 274 q 869 549 1007 549 q 731 297 711 549 l 558 297 q 422 549 578 549 z "},"ळ":{"ha":1294,"x_min":-36,"x_max":1331,"o":"m 1331 867 l 997 867 l 997 696 q 1185 591 1113 676 q 1257 370 1257 506 q 1166 146 1257 235 q 933 57 1075 57 q 772 97 846 57 q 663 214 699 138 q 553 97 629 136 q 393 57 478 57 q 160 146 251 57 q 68 379 68 235 q 160 613 68 524 q 393 701 253 701 q 551 663 478 701 q 663 543 625 624 q 817 683 710 646 l 817 867 l -36 867 l -36 1028 l 1331 1028 l 1331 867 m 250 379 q 250 343 250 379 q 294 263 250 307 q 411 218 339 218 q 527 263 483 218 q 571 379 571 308 q 527 495 571 450 q 411 540 483 540 q 294 496 339 540 q 250 379 250 451 m 1031 263 q 1053 285 1031 263 q 1075 379 1075 307 q 1031 496 1075 451 q 915 540 986 540 q 799 495 843 540 q 754 378 754 450 q 799 263 754 307 q 915 218 843 218 q 1031 263 986 218 z "},"व":{"ha":897,"x_min":-36,"x_max":933,"o":"m -36 1028 l 933 1028 l 933 867 l 783 867 l 783 0 l 603 0 l 603 201 q 383 100 525 100 q 151 197 242 100 q 61 436 61 294 q 151 674 61 578 q 384 771 240 771 q 603 669 528 771 l 603 867 l -36 867 l -36 1028 m 603 436 l 603 438 q 554 566 603 518 q 424 614 506 614 q 292 565 342 614 q 243 436 243 517 q 292 306 243 356 q 424 257 342 257 q 554 306 506 257 q 603 436 603 354 z "},"श":{"ha":1163,"x_min":115,"x_max":1199,"o":"m 304 422 l 304 290 q 426 157 304 157 q 519 197 492 157 q 546 314 546 236 l 728 314 q 429 -4 728 -4 q 200 76 285 -4 q 115 299 115 156 l 115 575 l 267 574 q 453 597 394 574 q 534 655 511 619 q 557 749 557 690 q 526 842 557 807 q 433 878 494 878 q 340 832 371 878 q 313 714 310 786 l 126 714 q 200 946 121 853 q 427 1039 279 1039 q 660 960 575 1039 q 744 747 744 882 q 378 422 744 442 l 304 422 m 1199 867 l 1049 867 l 1049 0 l 861 0 l 861 1028 l 1199 1028 l 1199 867 z "},"ष":{"ha":950,"x_min":-36,"x_max":986,"o":"m -36 1028 l 986 1028 l 986 867 l 835 867 l 835 0 l 647 0 l 647 328 q 430 229 582 229 q 197 322 278 229 q 115 569 115 415 l 115 867 l -36 867 l -36 1028 m 647 867 l 303 867 l 303 864 l 647 615 l 647 867 m 303 585 q 347 441 303 493 q 479 389 390 389 q 628 483 586 389 l 303 718 l 303 585 z "},"स":{"ha":1131,"x_min":-36,"x_max":1167,"o":"m 1167 1028 l 1167 867 l 1015 867 l 1015 0 l 829 0 l 829 435 l 288 435 l 288 285 q 393 157 288 157 q 476 196 454 157 q 500 308 499 235 l 683 308 q 615 76 681 156 q 401 -4 549 -4 q 176 76 254 -4 q 99 293 99 156 l 99 567 l 193 567 q 371 617 331 567 q 411 810 411 668 l 411 867 l -36 867 l -36 1028 l 1167 1028 m 829 590 l 829 867 l 599 867 l 599 800 q 567 590 599 667 l 829 590 z "},"ह":{"ha":854,"x_min":-36,"x_max":890,"o":"m 675 617 l 442 617 q 319 540 319 617 q 369 472 319 493 q 446 478 401 478 q 672 409 582 478 q 764 226 763 340 l 582 226 q 541 296 576 269 q 442 322 506 322 q 338 284 379 322 q 296 178 296 246 q 338 69 296 110 q 442 29 379 29 q 541 55 506 29 q 582 125 576 81 l 764 125 q 673 -58 763 11 q 437 -126 583 -126 q 200 -44 290 -126 q 110 183 110 38 q 214 408 110 328 q 135 563 135 465 q 206 715 135 660 q 408 769 278 769 l 488 769 l 488 867 l -36 867 l -36 1028 l 890 1028 l 890 867 l 675 867 l 675 617 z "},"़":{"ha":0,"x_min":-539,"x_max":-314,"o":"m -347 -283 q -363 -299 -347 -283 q -426 -315 -379 -315 q -506 -283 -474 -315 q -539 -203 -539 -250 q -506 -124 -539 -157 q -426 -90 -474 -90 q -347 -124 -379 -90 q -314 -203 -314 -157 q -347 -283 -314 -250 z "},"ऽ":{"ha":838,"x_min":74,"x_max":760,"o":"m 558 772 q 465 760 497 772 q 433 713 433 747 q 474 624 433 678 q 565 517 515 571 q 655 388 614 464 q 696 243 696 313 q 425 71 696 71 l 74 71 l 74 232 l 388 232 q 447 233 426 232 q 497 278 497 239 q 364 469 497 326 q 272 599 314 522 q 231 744 231 675 q 301 885 231 838 q 483 933 371 933 l 760 933 l 760 772 l 558 772 z "},"ा":{"ha":415,"x_min":-36,"x_max":451,"o":"m 451 867 l 301 867 l 301 0 l 115 0 l 115 867 l -36 867 l -36 1028 l 451 1028 l 451 867 z "},"ि":{"ha":415,"x_min":-36,"x_max":1247,"o":"m 118 1028 l 118 1038 q 194 1256 118 1169 q 394 1380 271 1343 q 683 1417 517 1417 q 972 1380 849 1417 q 1171 1256 1094 1343 q 1247 1038 1247 1169 l 1247 971 l 1063 971 l 1063 1021 q 685 1261 1063 1261 q 301 1028 307 1261 l 451 1028 l 451 867 l 301 867 l 301 0 l 115 0 l 115 867 l -36 867 l -36 1028 l 118 1028 z "},"ी":{"ha":415,"x_min":-294,"x_max":451,"o":"m 292 1028 l 451 1028 l 451 867 l 301 867 l 301 0 l 115 0 l 115 867 l -36 867 l -36 1028 l 114 1028 l 114 1065 q 91 1215 114 1168 q -1 1261 68 1261 q -93 1215 -71 1261 q -115 1065 -115 1169 l -115 971 l -294 971 l -294 1072 q -229 1328 -294 1239 q -1 1417 -164 1417 q 226 1327 161 1417 q 292 1072 292 1238 l 292 1028 z "},"ु":{"ha":0,"x_min":-624,"x_max":19,"o":"m -299 -64 l -299 83 q -61 26 -142 93 q 19 -165 19 -42 q -58 -357 19 -289 q -283 -425 -135 -425 q -526 -346 -432 -425 q -624 -112 -619 -267 l -454 -112 q -276 -275 -450 -275 q -144 -169 -144 -275 q -181 -88 -144 -112 q -299 -64 -217 -64 z "},"ू":{"ha":0,"x_min":-512,"x_max":142,"o":"m -226 -417 q -433 -367 -353 -429 q -512 -183 -512 -306 q -431 5 -512 -60 q -228 69 -349 69 q 133 -404 142 69 l -26 -404 q -67 -158 -22 -240 q -229 -76 -112 -76 q -324 -103 -287 -76 q -361 -183 -361 -129 q -324 -260 -361 -236 q -226 -276 -286 -283 l -226 -417 z "},"ृ":{"ha":0,"x_min":-444,"x_max":-76,"o":"m -124 0 l -146 0 q -267 -110 -267 0 q -144 -219 -267 -219 q -76 -207 -108 -219 l -76 -356 q -168 -369 -115 -369 q -367 -302 -289 -369 q -444 -117 -444 -235 q -369 67 -444 0 q -158 135 -294 135 q -124 133 -133 135 l -124 0 z "},"ॄ":{"ha":0,"x_min":-451,"x_max":-89,"o":"m -89 -607 l -146 -607 q -363 -558 -276 -607 q -450 -403 -450 -508 q -417 -301 -450 -343 q -329 -239 -383 -258 q -417 -178 -383 -221 q -451 -73 -451 -136 q -405 36 -451 -10 q -299 97 -358 82 q -168 113 -239 113 l -128 113 l -128 0 l -149 0 q -242 -18 -210 -1 q -275 -82 -275 -35 q -238 -145 -275 -129 q -139 -161 -201 -161 l -89 -161 l -89 -304 l -144 -304 q -240 -321 -207 -304 q -274 -386 -274 -337 q -143 -465 -274 -465 l -89 -465 l -89 -607 z "},"ॅ":{"ha":0,"x_min":-519,"x_max":92,"o":"m 92 1407 q 17 1204 92 1279 q -214 1129 -58 1129 q -444 1203 -369 1129 q -519 1407 -519 1278 l -361 1407 q -324 1307 -361 1346 q -214 1268 -287 1268 q -103 1307 -140 1268 q -67 1407 -67 1346 l 92 1407 z "},"े":{"ha":0,"x_min":-669,"x_max":-122,"o":"m -606 1225 l -669 1225 l -669 1372 l -612 1372 q -440 1356 -494 1372 q -355 1317 -386 1339 q -286 1254 -324 1294 q -122 1018 -219 1185 l -293 1018 q -435 1192 -387 1160 q -606 1225 -483 1225 z "},"ै":{"ha":0,"x_min":-661,"x_max":-118,"o":"m -661 1429 l -604 1429 q -505 1426 -542 1429 q -426 1408 -468 1422 q -355 1368 -383 1393 q -287 1294 -326 1343 q -118 1017 -229 1221 l -276 1017 q -411 1099 -361 1085 q -594 1113 -461 1113 l -658 1113 l -658 1235 l -601 1235 q -483 1231 -517 1233 q -314 1154 -397 1224 q -435 1281 -379 1256 q -597 1307 -490 1307 l -661 1307 l -661 1429 z "},"ॉ":{"ha":413,"x_min":-101,"x_max":510,"o":"m 510 1407 q 435 1204 510 1279 q 204 1129 360 1129 q -26 1203 49 1129 q -101 1407 -101 1278 l 57 1407 q 94 1307 57 1346 q 204 1268 131 1268 q 315 1307 278 1268 q 351 1407 351 1346 l 510 1407 m 451 867 l 301 867 l 301 0 l 115 0 l 115 867 l -36 867 l -36 1028 l 451 1028 l 451 867 z "},"ो":{"ha":415,"x_min":-258,"x_max":451,"o":"m 451 1028 l 451 867 l 301 867 l 301 0 l 115 0 l 115 867 l -36 867 l -36 1028 l 111 1028 q -26 1194 21 1163 q -194 1225 -74 1225 l -258 1225 l -258 1372 l -201 1372 q -83 1366 -128 1372 q 9 1342 -39 1360 q 97 1285 57 1324 q 283 1028 182 1201 l 451 1028 z "},"ौ":{"ha":388,"x_min":-239,"x_max":451,"o":"m 451 1028 l 451 867 l 301 867 l 301 0 l 115 0 l 115 867 l -36 867 l -36 1028 l 132 1028 q 7 1100 56 1088 q -172 1113 -42 1113 l -236 1113 l -236 1235 l -179 1235 q -61 1231 -94 1233 q 108 1154 25 1224 q -12 1281 43 1256 q -175 1307 -68 1307 l -239 1307 l -239 1429 l -182 1429 q -84 1426 -121 1429 q -6 1408 -47 1422 q 65 1369 36 1393 q 132 1299 93 1346 q 299 1028 189 1229 l 451 1028 z "},"्":{"ha":0,"x_min":-286,"x_max":67,"o":"m 67 -353 l -122 -353 l -286 -78 l -108 -78 l 67 -353 z "},"ॐ":{"ha":774,"x_min":115,"x_max":1401,"o":"m 682 521 q 792 543 761 521 q 822 633 822 565 q 887 878 822 797 q 1107 958 951 958 q 1332 875 1263 958 q 1401 618 1401 792 l 1401 461 q 1279 116 1401 215 q 865 60 1157 17 l 865 222 q 1142 251 1068 196 q 1215 471 1215 306 l 1215 629 q 1192 760 1215 719 q 1109 800 1169 800 q 1026 760 1049 800 q 1003 629 1003 719 q 937 428 1003 486 q 725 368 871 371 q 732 311 732 338 q 647 93 732 171 q 426 15 563 15 q 202 97 289 15 q 115 313 115 178 l 293 313 q 330 214 293 251 q 428 176 367 176 q 524 212 490 176 q 557 311 557 247 q 513 410 557 375 q 392 444 469 444 l 349 444 l 349 610 l 393 610 q 498 642 456 610 q 540 730 540 675 q 510 817 540 785 q 423 850 479 850 q 335 818 367 850 q 303 731 304 786 l 125 731 q 210 935 125 858 q 426 1011 294 1011 q 638 938 557 1011 q 718 744 718 864 q 681 615 718 672 q 582 535 643 558 l 582 529 q 601 521 596 524 l 682 521 m 929 1294 l 1083 1294 q 1006 1092 1083 1168 q 778 1017 928 1017 q 550 1092 628 1017 q 472 1294 472 1168 l 625 1294 q 665 1194 625 1235 q 778 1154 704 1154 q 890 1194 851 1154 q 929 1294 929 1235 m 863 1331 q 863 1313 863 1331 q 838 1270 863 1294 q 777 1246 813 1246 q 717 1271 742 1246 q 692 1331 692 1296 q 717 1391 692 1365 q 777 1417 742 1417 q 838 1392 813 1417 q 863 1331 863 1367 z "},"क़":{"ha":1383,"x_min":-36,"x_max":1419,"o":"m 1419 867 l 804 867 l 804 674 q 1006 765 869 765 q 1221 673 1142 765 q 1300 440 1300 581 q 1186 192 1300 275 q 904 138 1072 108 l 904 289 q 1057 316 1001 275 q 1113 436 1113 357 q 1072 560 1113 515 q 957 604 1032 604 q 843 556 882 604 q 804 424 804 507 l 804 0 l 624 0 l 624 215 q 414 118 554 118 q 191 210 274 118 q 108 441 108 303 q 190 672 108 579 q 413 764 272 764 q 624 667 554 764 l 624 867 l -36 867 l -36 1028 l 1419 1028 l 1419 867 m 340 322 q 361 301 340 322 q 460 279 383 279 q 580 323 536 279 q 624 442 624 367 q 580 560 624 517 q 459 603 536 603 q 339 560 382 603 q 296 441 296 517 q 340 322 296 365 m 312 14 q 328 31 312 14 q 392 47 344 47 q 472 14 439 47 q 504 -66 504 -19 q 472 -145 504 -112 q 392 -178 439 -178 q 312 -145 344 -178 q 279 -66 279 -112 q 312 14 279 -19 z "},"ख़":{"ha":1308,"x_min":-36,"x_max":1344,"o":"m -36 1028 l 1344 1028 l 1344 867 l 1194 867 l 1194 0 l 1014 0 l 1014 250 q 832 174 953 174 q 810 175 817 174 q 683 42 771 89 q 476 -4 594 -4 q 204 92 304 -4 q 104 364 104 189 l 104 565 l 143 565 q 250 575 213 567 q 312 613 288 583 q 343 687 336 642 q 350 817 350 732 l 350 867 l -36 867 l -36 1028 m 293 347 q 475 157 293 157 q 649 247 608 157 q 568 457 568 331 q 642 664 568 583 q 835 744 715 744 q 1014 669 954 744 l 1014 867 l 538 867 l 538 818 q 489 529 538 608 q 293 436 440 450 l 293 347 m 738 460 q 738 428 738 460 q 776 359 738 396 q 877 322 814 322 q 977 359 940 322 q 1014 460 1014 396 q 978 560 1014 524 q 878 597 942 597 q 776 560 814 597 q 738 460 738 524 m 409 -139 q 425 -122 409 -139 q 489 -106 442 -106 q 569 -139 536 -106 q 601 -219 601 -172 q 569 -298 601 -265 q 489 -331 536 -331 q 409 -298 442 -331 q 376 -219 376 -265 q 409 -139 376 -172 z "},"ग़":{"ha":1079,"x_min":-36,"x_max":1115,"o":"m -36 1028 l 1115 1028 l 1115 867 l 964 867 l 964 0 l 778 0 l 778 867 l 557 867 l 557 569 q 499 338 557 415 q 304 260 442 260 q 44 557 38 260 l 231 557 q 267 431 231 454 q 308 421 282 421 q 350 432 335 421 q 372 468 365 443 q 381 567 381 504 l 381 867 l -36 867 l -36 1028 m 242 47 q 259 64 242 47 q 322 81 275 81 q 402 47 369 81 q 435 -33 435 14 q 402 -112 435 -79 q 322 -144 369 -144 q 242 -112 275 -144 q 210 -33 210 -79 q 242 47 210 14 z "},"ज़":{"ha":1175,"x_min":-36,"x_max":1211,"o":"m -36 1028 l 1211 1028 l 1211 867 l 1060 867 l 1060 0 l 874 0 l 874 547 l 688 547 l 688 478 q 617 226 688 314 q 389 138 547 138 q 76 478 76 138 l 76 699 l 263 699 l 263 513 q 279 369 263 411 q 321 313 296 328 q 382 299 346 299 q 441 310 418 299 q 476 337 464 321 q 494 383 488 353 q 504 513 504 426 l 504 699 l 874 699 l 874 867 l -36 867 l -36 1028 m 288 -40 q 305 -24 288 -40 q 368 -7 321 -7 q 448 -40 415 -7 q 481 -120 481 -74 q 448 -199 481 -167 q 368 -232 415 -232 q 288 -199 321 -232 q 256 -120 256 -167 q 288 -40 256 -74 z "},"ड़":{"ha":796,"x_min":-36,"x_max":832,"o":"m 657 608 l 439 608 q 331 592 368 608 q 293 531 293 576 q 328 472 293 486 q 438 458 364 458 q 743 222 743 458 q 660 44 743 111 q 429 -24 576 -24 q 187 51 282 -24 q 86 258 92 125 l 271 258 q 431 125 282 125 q 558 222 558 125 q 521 293 558 275 q 422 311 483 311 q 322 316 361 311 q 241 335 283 321 q 170 374 199 350 q 123 442 142 399 q 104 544 104 486 q 185 707 104 654 q 390 760 267 760 l 469 760 l 469 867 l -36 867 l -36 1028 l 832 1028 l 832 867 l 657 867 l 657 608 m 356 -132 q 373 -115 356 -132 q 436 -99 389 -99 q 516 -132 483 -99 q 549 -212 549 -165 q 516 -291 549 -258 q 436 -324 483 -324 q 356 -291 389 -324 q 324 -212 324 -258 q 356 -132 324 -165 z "},"ढ़":{"ha":890,"x_min":-36,"x_max":926,"o":"m 676 614 l 546 614 q 340 553 417 614 q 263 381 263 492 q 330 212 263 269 q 521 154 397 154 q 644 186 600 154 q 688 274 688 218 q 603 365 688 365 q 521 269 521 365 l 363 269 q 420 447 360 383 q 597 511 481 511 q 787 448 714 511 q 860 279 860 385 q 763 69 860 143 q 514 -4 665 -4 q 201 97 324 -4 q 79 380 79 199 q 192 660 79 561 q 490 769 304 758 l 490 867 l -36 867 l -36 1028 l 926 1028 l 926 867 l 676 867 l 676 614 m 442 -125 q 459 -108 442 -125 q 522 -92 475 -92 q 602 -125 569 -92 q 635 -205 635 -158 q 602 -284 635 -251 q 522 -317 569 -317 q 442 -284 475 -317 q 410 -205 410 -251 q 442 -125 410 -158 z "},"फ़":{"ha":1360,"x_min":-36,"x_max":1396,"o":"m 1396 867 l 800 867 l 800 653 q 1003 743 868 743 q 1218 656 1139 743 q 1297 421 1297 568 q 1198 189 1297 274 q 932 122 1099 104 l 931 276 q 1068 310 1018 271 q 1118 424 1118 349 q 1077 540 1118 499 q 962 581 1036 581 q 844 530 888 581 q 800 401 800 479 l 800 0 l 613 0 l 613 375 q 407 283 547 283 q 192 383 267 283 q 117 642 117 483 l 117 867 l -36 867 l -36 1028 l 1396 1028 l 1396 867 m 304 867 l 304 639 q 339 493 304 543 q 455 443 374 443 q 574 498 536 443 q 613 644 613 553 l 613 867 l 304 867 m 276 90 q 292 107 276 90 q 356 124 308 124 q 435 90 403 124 q 468 10 468 57 q 435 -69 468 -36 q 356 -101 403 -101 q 276 -69 308 -101 q 243 10 243 -36 q 276 90 243 57 z "},"ॠ":{"ha":1414,"x_min":-36,"x_max":1449,"o":"m 1449 867 l 844 867 l 844 651 l 1063 651 q 1121 667 1107 651 q 1135 726 1135 682 l 1135 774 l 1300 774 l 1300 269 l 1263 269 q 1201 264 1225 268 q 1156 242 1176 260 q 1135 195 1135 224 q 1147 151 1135 167 q 1182 131 1158 136 q 1274 119 1221 119 l 1322 119 l 1322 -24 l 1272 -24 q 1136 -112 1136 -24 q 1261 -196 1136 -196 q 1371 -182 1311 -196 l 1371 -322 q 1247 -336 1317 -336 q 1041 -284 1122 -336 q 960 -129 960 -232 q 994 -24 960 -69 q 1082 43 1028 22 q 994 99 1029 58 q 960 196 960 140 q 1135 371 960 336 l 1135 501 q 1063 497 1101 497 l 844 497 l 844 0 l 658 0 l 658 293 l 379 0 l 136 0 l 136 8 q 643 481 400 256 q 464 593 599 593 q 324 534 375 593 q 274 381 274 475 l 88 381 q 180 650 88 547 q 425 753 272 753 q 658 658 578 753 l 658 867 l -36 867 l -36 1028 l 1449 1028 l 1449 867 z "},"ॡ":{"ha":1265,"x_min":-36,"x_max":1300,"o":"m 953 867 l 953 708 q 1128 605 1063 689 q 1194 382 1194 521 q 1182 279 1194 336 l 1163 279 q 1101 274 1125 278 q 1056 251 1076 269 q 1035 205 1035 233 q 1047 161 1035 176 q 1082 139 1058 146 q 1174 129 1121 129 l 1222 129 l 1222 -14 l 1172 -14 q 1036 -103 1036 -14 q 1163 -186 1036 -186 q 1271 -172 1206 -186 l 1271 -312 q 1147 -326 1217 -326 q 941 -274 1022 -326 q 860 -119 860 -222 q 894 -14 860 -60 q 982 53 928 32 q 894 109 929 68 q 860 206 860 150 q 1010 371 860 338 q 872 549 1010 549 q 731 297 711 549 l 558 297 q 422 549 578 549 q 285 376 285 549 q 342 226 285 274 q 506 185 400 178 l 506 21 q 206 103 315 7 q 97 369 97 200 q 180 626 97 538 q 401 714 263 714 q 647 564 583 714 q 772 686 682 657 l 772 867 l -36 867 l -36 1028 l 1300 1028 l 1300 867 l 953 867 z "},"ॢ":{"ha":0,"x_min":168,"x_max":960,"o":"m 717 43 q 871 -24 815 43 q 926 -194 926 -90 q 918 -268 926 -236 l 907 -268 q 811 -339 811 -268 q 838 -389 811 -372 q 899 -406 865 -406 q 960 -400 933 -406 l 960 -517 q 892 -524 932 -524 q 732 -479 792 -524 q 672 -350 672 -435 q 703 -253 672 -294 q 785 -199 735 -212 q 704 -89 794 -89 q 621 -250 603 -89 l 475 -250 q 478 -174 478 -210 q 458 -112 478 -137 q 400 -87 439 -87 q 313 -197 313 -87 q 457 -317 313 -325 l 457 -446 q 247 -387 326 -456 q 168 -202 168 -319 q 225 -22 168 -85 q 383 42 282 42 q 550 -62 508 42 q 606 12 564 -19 q 717 43 647 43 z "},"ॣ":{"ha":0,"x_min":168,"x_max":971,"o":"m 907 -267 q 821 -286 833 -267 q 815 -318 815 -296 q 839 -349 815 -340 q 910 -357 863 -357 l 933 -357 l 933 -461 l 911 -461 q 838 -470 861 -461 q 815 -510 815 -479 q 897 -557 815 -557 q 971 -543 929 -557 l 971 -647 q 857 -661 925 -661 q 736 -627 789 -661 q 683 -524 683 -593 q 771 -411 683 -435 q 685 -301 685 -387 q 786 -197 685 -215 q 772 -119 790 -151 q 704 -87 753 -87 q 621 -250 603 -87 l 475 -250 q 478 -174 478 -210 q 458 -112 478 -137 q 400 -87 439 -87 q 313 -197 313 -87 q 457 -317 313 -325 l 457 -446 q 247 -387 326 -456 q 168 -202 168 -319 q 225 -22 168 -85 q 383 42 282 42 q 550 -62 508 42 q 606 12 564 -19 q 717 43 647 43 q 871 -24 815 43 q 926 -194 926 -90 q 918 -267 926 -228 l 907 -267 z "},"।":{"ha":422,"x_min":199,"x_max":385,"o":"m 199 1028 l 385 1028 l 385 0 l 199 0 l 199 1028 z "},"॥":{"ha":772,"x_min":199,"x_max":735,"o":"m 547 1028 l 735 1028 l 735 0 l 547 0 l 547 1028 m 199 1028 l 385 1028 l 385 0 l 199 0 l 199 1028 z "},"०":{"ha":897,"x_min":74,"x_max":822,"o":"m 74 506 q 74 758 74 506 q 448 1010 74 1010 q 822 506 822 1010 q 448 3 822 3 q 74 506 74 3 m 531 811 q 513 820 531 811 q 449 829 496 829 q 367 811 401 829 q 313 765 332 793 q 283 692 294 738 q 269 606 272 647 q 265 507 265 564 q 269 408 265 450 q 283 322 272 367 q 313 248 294 276 q 367 201 332 219 q 449 183 401 183 q 531 201 496 183 q 584 248 565 219 q 614 322 603 276 q 628 408 625 367 q 632 507 632 450 q 628 606 632 564 q 614 692 625 647 q 584 765 603 738 q 531 811 565 793 z "},"१":{"ha":532,"x_min":51,"x_max":399,"o":"m 199 0 l 199 807 l 51 807 l 51 986 l 399 986 l 399 0 l 199 0 z "},"२":{"ha":797,"x_min":61,"x_max":749,"o":"m 64 14 l 64 157 q 175 253 100 189 q 288 351 250 318 q 380 440 325 385 q 461 532 435 494 q 529 704 529 629 q 393 851 529 851 q 289 807 326 851 q 250 685 251 763 l 61 685 q 156 932 63 847 q 401 1017 250 1017 q 639 931 553 1017 q 725 714 725 844 q 675 533 725 617 q 626 455 650 489 q 559 376 603 421 q 490 307 515 332 q 415 237 465 282 q 344 174 364 192 l 749 174 l 749 14 l 64 14 z "},"३":{"ha":832,"x_min":63,"x_max":753,"o":"m 78 747 q 174 959 82 883 q 416 1035 267 1035 q 650 959 565 1035 q 735 768 735 883 q 689 619 735 679 q 586 539 643 558 l 586 533 q 753 282 753 476 q 664 74 753 153 q 419 -6 575 -6 q 165 74 264 -6 q 63 306 67 153 l 251 306 q 298 197 254 238 q 415 156 342 156 q 527 195 489 156 q 565 308 565 235 q 513 417 565 382 q 349 453 461 453 l 308 453 l 308 613 l 349 613 q 546 744 546 613 q 510 835 546 801 q 407 868 474 868 q 307 831 340 868 q 268 747 274 793 l 78 747 z "},"४":{"ha":918,"x_min":67,"x_max":868,"o":"m 564 367 l 564 789 l 286 367 l 564 367 m 551 0 l 551 197 l 67 197 l 67 350 l 519 1000 l 746 1000 l 746 367 l 868 367 l 868 197 l 746 197 l 746 0 l 551 0 z "},"५":{"ha":894,"x_min":103,"x_max":819,"o":"m 126 1015 l 747 1015 l 747 844 l 304 844 l 304 614 q 385 667 333 646 q 510 689 436 689 q 649 658 583 689 q 750 576 715 628 q 819 354 819 476 q 727 97 819 193 q 471 0 635 0 q 213 77 307 0 q 103 279 119 154 l 294 279 q 352 193 307 225 q 473 161 397 161 q 590 213 549 161 q 632 349 632 264 q 590 479 632 433 q 476 525 547 525 q 313 418 343 525 l 126 418 l 126 1015 z "},"६":{"ha":889,"x_min":93,"x_max":808,"o":"m 619 331 q 619 370 619 331 q 578 458 619 408 q 458 507 536 507 q 331 463 379 507 q 282 338 282 418 q 331 208 282 257 q 456 160 379 160 q 576 207 533 160 q 619 331 619 254 m 454 876 q 313 801 360 876 q 264 561 265 726 q 364 642 300 614 q 497 669 428 669 q 722 582 636 669 q 808 340 808 494 q 719 93 808 186 q 472 0 631 0 q 180 129 267 0 q 93 522 93 258 q 457 1038 93 1038 q 683 959 603 1038 q 779 764 764 881 l 599 764 q 454 876 572 876 z "},"७":{"ha":778,"x_min":57,"x_max":726,"o":"m 57 1006 l 726 1006 l 726 861 l 351 0 l 139 0 l 532 844 l 57 844 l 57 1006 z "},"८":{"ha":893,"x_min":81,"x_max":813,"o":"m 572 419 q 549 441 572 419 q 446 463 526 463 q 317 421 365 463 q 268 304 268 379 q 315 184 268 229 q 445 139 363 139 q 573 185 528 139 q 618 303 618 231 q 572 419 618 376 m 599 745 q 599 777 599 745 q 558 847 599 810 q 447 885 517 885 q 336 847 378 885 q 294 745 294 810 q 338 642 294 681 q 447 603 381 603 q 556 642 513 603 q 599 745 599 681 m 104 771 q 193 966 104 886 q 447 1046 282 1046 q 699 965 611 1046 q 788 769 788 885 q 650 547 788 619 q 813 293 813 478 q 710 63 813 149 q 447 -22 607 -22 q 184 63 288 -22 q 81 293 81 149 q 124 449 81 383 q 243 547 167 514 q 104 771 104 621 z "},"९":{"ha":883,"x_min":99,"x_max":799,"o":"m 286 707 q 286 671 286 707 q 328 587 286 635 q 447 539 369 539 q 567 583 525 539 q 608 706 608 626 q 565 830 608 785 q 447 875 522 875 q 329 827 372 875 q 286 707 286 779 m 463 161 q 588 229 549 161 q 628 458 628 297 q 541 399 597 421 q 421 376 485 376 q 188 458 278 376 q 99 697 99 540 q 190 944 99 853 q 440 1036 282 1036 q 719 908 639 1036 q 799 515 799 779 q 724 126 799 251 q 450 0 650 0 q 213 83 293 0 q 125 292 132 167 l 306 292 q 463 161 328 161 z "},"॰":{"ha":675,"x_min":131,"x_max":576,"o":"m 463 350 q 463 374 463 350 q 434 427 463 397 q 356 457 406 457 q 274 428 306 457 q 243 352 243 399 q 275 276 243 306 q 356 246 307 246 q 433 274 404 246 q 463 350 463 303 m 131 354 q 131 401 131 354 q 193 508 131 447 q 356 568 256 568 q 517 507 457 568 q 576 350 576 446 q 515 194 576 254 q 355 135 453 135 q 194 198 257 135 q 131 354 131 261 z "},"ॲ":{"ha":1183,"x_min":121,"x_max":1290,"o":"m 882 551 l 882 1028 l 1219 1028 l 1219 867 l 1069 867 l 1069 0 l 882 0 l 882 394 l 726 394 q 728 368 728 386 q 644 156 728 231 q 425 81 561 81 q 205 158 289 81 q 121 369 121 235 l 299 369 q 333 277 299 313 q 426 242 368 242 q 518 276 485 242 q 551 368 551 311 q 392 492 551 492 l 349 492 l 349 657 l 393 657 q 495 685 457 657 q 533 766 533 714 q 505 849 533 818 q 424 879 476 879 q 340 849 371 879 q 307 768 310 818 l 129 768 q 213 965 129 890 q 426 1040 297 1040 q 635 970 556 1040 q 714 783 714 900 q 679 658 714 711 q 582 582 644 606 l 582 576 q 632 551 608 567 l 882 551 m 1132 1397 l 1290 1397 q 1215 1194 1290 1269 q 985 1119 1140 1119 q 754 1194 829 1119 q 679 1397 679 1268 l 838 1397 q 874 1297 838 1336 q 985 1258 911 1258 q 1095 1297 1058 1258 q 1132 1397 1132 1336 z "},"​":{"ha":0,"x_min":0,"x_max":0,"o":""},"‌":{"ha":0,"x_min":-32,"x_max":33,"o":"m 33 -319 l -32 -319 l -32 1126 l 33 1126 l 33 -319 z "},"‍":{"ha":0,"x_min":-176,"x_max":179,"o":"m 33 -319 l -32 -319 l -32 882 l -128 781 l -174 826 l -44 956 l -176 1088 l -131 1133 l 1 1001 l 135 1133 l 179 1089 l 46 956 l 179 824 l 133 778 l 33 882 l 33 -319 z "},"–":{"ha":975,"x_min":110,"x_max":865,"o":"m 110 414 l 110 576 l 865 576 l 865 414 l 110 414 z "},"—":{"ha":1288,"x_min":110,"x_max":1178,"o":"m 110 414 l 110 576 l 1178 576 l 1178 414 l 110 414 z "},"‘":{"ha":279,"x_min":47,"x_max":232,"o":"m 232 796 l 71 796 q 47 955 47 872 q 91 1087 47 1038 q 221 1136 135 1136 l 221 1058 q 151 974 151 1058 l 151 947 l 232 947 l 232 796 z "},"’":{"ha":279,"x_min":47,"x_max":232,"o":"m 47 1136 l 208 1136 q 232 977 232 1060 q 188 845 232 894 q 58 796 144 796 l 58 874 q 128 958 128 874 l 128 985 l 47 985 l 47 1136 z "},"‚":{"ha":306,"x_min":46,"x_max":268,"o":"m 46 126 l 217 126 q 239 -121 268 -17 q 180 -203 224 -172 q 67 -233 136 -233 l 67 -156 q 119 -139 103 -156 q 136 -81 136 -122 l 136 -54 l 46 -54 l 46 126 z "},"“":{"ha":514,"x_min":47,"x_max":467,"o":"m 467 796 l 306 796 q 282 955 282 872 q 326 1087 282 1038 q 456 1136 369 1136 l 456 1058 q 386 974 386 1058 l 386 947 l 467 947 l 467 796 m 232 796 l 71 796 q 47 955 47 872 q 91 1087 47 1038 q 221 1136 135 1136 l 221 1058 q 151 974 151 1058 l 151 947 l 232 947 l 232 796 z "},"”":{"ha":514,"x_min":47,"x_max":467,"o":"m 47 1136 l 208 1136 q 232 977 232 1060 q 188 845 232 894 q 58 796 144 796 l 58 874 q 128 958 128 874 l 128 985 l 47 985 l 47 1136 m 282 1136 l 443 1136 q 467 977 467 1060 q 423 845 467 894 q 293 796 379 796 l 293 874 q 363 958 363 874 l 363 985 l 282 985 l 282 1136 z "},"„":{"ha":306,"x_min":46,"x_max":268,"o":"m 46 126 l 217 126 q 239 -121 268 -17 q 180 -203 224 -172 q 67 -233 136 -233 l 67 -156 q 119 -139 103 -156 q 136 -81 136 -122 l 136 -54 l 46 -54 l 46 126 z "},"†":{"ha":857,"x_min":69,"x_max":788,"o":"m 506 754 l 788 769 l 788 619 l 506 636 l 525 -367 l 331 -367 l 350 636 l 69 619 l 69 769 l 350 754 l 331 1092 l 525 1092 l 506 754 z "},"‡":{"ha":857,"x_min":69,"x_max":788,"o":"m 788 769 l 788 619 l 506 636 l 506 90 l 788 106 l 788 -44 l 506 -29 l 525 -367 l 331 -367 l 350 -29 l 69 -44 l 69 106 l 350 90 l 350 636 l 69 619 l 69 769 l 350 754 l 331 1092 l 525 1092 l 506 754 l 788 769 z "},"•":{"ha":667,"x_min":139,"x_max":528,"o":"m 472 325 q 443 297 472 325 q 333 269 415 269 q 195 326 251 269 q 139 463 139 382 q 195 601 139 544 q 333 658 251 658 q 472 601 415 658 q 528 463 528 544 q 472 325 528 381 z "},"…":{"ha":943,"x_min":60,"x_max":885,"o":"m 282 111 q 282 88 282 111 q 249 32 282 64 q 170 0 217 0 q 92 32 124 0 q 60 111 60 64 q 92 190 60 158 q 170 222 124 222 q 249 190 217 222 q 282 111 282 158 m 885 111 q 885 88 885 111 q 852 32 885 64 q 773 0 819 0 q 694 32 726 0 q 663 111 663 64 q 694 190 663 158 q 773 222 726 222 q 852 190 819 222 q 885 111 885 158 m 583 111 q 583 88 583 111 q 551 32 583 64 q 472 0 518 0 q 393 32 425 0 q 361 111 361 64 q 393 190 361 158 q 472 222 425 222 q 551 190 518 222 q 583 111 583 158 z "},"‰":{"ha":1550,"x_min":50,"x_max":1500,"o":"m 1358 209 q 1358 262 1358 209 q 1280 315 1358 315 q 1201 209 1201 315 q 1280 103 1201 103 q 1358 209 1358 103 m 1281 -14 q 1232 -14 1281 -14 q 1122 45 1183 -14 q 1060 209 1060 104 q 1122 373 1060 314 q 1281 432 1183 432 q 1439 373 1378 432 q 1500 209 1500 314 q 1439 45 1500 104 q 1281 -14 1378 -14 m 869 209 q 869 262 869 209 q 792 315 869 315 q 714 209 714 315 q 792 103 714 103 q 869 209 869 103 m 793 -14 q 744 -14 793 -14 q 634 45 696 -14 q 572 209 572 104 q 634 373 572 314 q 792 432 696 432 q 951 373 889 432 q 1013 209 1013 314 q 951 45 1013 104 q 793 -14 890 -14 m 164 0 l 708 972 l 899 972 l 353 0 l 164 0 m 349 763 q 349 816 349 763 q 270 869 349 869 q 192 763 192 869 q 270 657 192 657 q 349 763 349 657 m 112 600 q 81 630 112 600 q 50 764 50 660 q 112 927 50 868 q 270 986 174 986 q 428 927 367 986 q 490 764 490 868 q 429 600 490 660 q 271 540 368 540 q 112 600 174 540 z "},"‹":{"ha":438,"x_min":63,"x_max":368,"o":"m 242 410 l 368 167 l 186 167 l 63 410 l 186 653 l 368 653 l 242 410 z "},"›":{"ha":438,"x_min":69,"x_max":375,"o":"m 253 167 l 69 167 l 197 410 l 69 653 l 253 653 l 375 410 l 253 167 z "},"⁄":{"ha":804,"x_min":44,"x_max":781,"o":"m 44 0 l 590 972 l 781 972 l 235 0 l 44 0 z "},"₨":{"ha":1632,"x_min":104,"x_max":1522,"o":"m 1197 628 q 1111 606 1142 628 q 1081 544 1081 583 q 1126 483 1081 506 q 1237 449 1172 461 q 1366 417 1301 436 q 1476 351 1431 399 q 1522 224 1522 303 q 1435 54 1522 119 q 1210 -11 1347 -11 q 986 53 1074 -11 q 890 239 899 118 l 1090 239 q 1213 142 1099 142 q 1301 166 1268 142 q 1333 230 1333 190 q 1288 292 1333 269 q 1177 328 1242 315 q 1048 358 1113 340 q 938 423 983 376 q 892 544 892 469 q 976 713 892 644 q 1201 781 1060 781 q 1426 713 1342 781 q 1517 531 1511 646 l 1317 531 q 1197 628 1308 628 m 104 969 l 461 969 q 720 885 629 969 q 811 678 811 801 q 756 507 811 586 q 581 399 700 428 l 828 0 l 596 0 l 364 386 l 300 386 l 300 0 l 104 0 l 104 969 m 300 819 l 300 536 l 461 536 q 574 574 535 536 q 613 678 613 613 q 574 781 613 743 q 461 819 535 819 l 300 819 z "},"€":{"ha":1119,"x_min":32,"x_max":1078,"o":"m 621 311 l 367 311 q 470 207 404 244 q 621 169 536 169 q 843 297 776 169 l 1078 297 q 902 72 1025 151 q 619 -8 779 -8 q 333 78 460 -8 q 154 311 206 165 l 32 311 l 32 436 l 128 436 q 125 487 125 469 q 128 538 125 504 l 32 538 l 32 665 l 156 665 q 335 897 208 810 q 620 983 461 983 q 902 903 779 983 q 1078 676 1025 822 l 843 676 q 613 804 778 804 q 367 665 449 804 l 621 665 l 621 538 l 326 538 q 324 487 324 504 q 326 436 324 469 l 621 436 l 621 311 z "},"₹":{"ha":872,"x_min":67,"x_max":822,"o":"m 822 836 l 682 836 l 682 733 l 822 733 l 822 597 l 674 597 q 565 401 651 463 q 303 340 479 340 l 303 278 q 328 173 303 211 q 422 135 353 135 q 540 274 540 135 l 721 274 q 642 59 719 132 q 420 -14 565 -14 q 198 64 275 -14 q 121 289 121 142 l 121 471 q 406 492 335 471 q 492 597 476 514 l 67 597 l 67 733 l 499 733 l 499 836 l 67 836 l 67 972 l 822 972 l 822 836 z "},"₺":{"ha":1168,"x_min":-4,"x_max":1018,"o":"m 819 613 l 1018 613 q 897 135 1018 286 q 499 -17 775 -17 q 192 21 371 -17 l 192 336 l 0 297 l 0 425 l 192 464 l 192 565 l -4 525 l -4 650 l 192 692 l 192 978 l 390 978 l 390 733 l 599 776 l 599 649 l 390 606 l 390 506 l 594 547 l 594 419 l 390 378 l 390 176 q 514 167 436 167 q 656 198 592 167 q 756 292 721 229 q 819 613 819 404 z "},"₽":{"ha":910,"x_min":32,"x_max":867,"o":"m 517 386 l 356 386 l 356 285 l 603 285 l 603 133 l 356 133 l 356 0 l 160 0 l 160 133 l 32 133 l 32 285 l 160 285 l 160 386 l 32 386 l 32 536 l 160 536 l 160 969 l 517 969 q 776 885 685 969 q 867 678 867 801 q 793 486 867 574 q 684 413 756 440 q 517 386 613 386 m 356 819 l 356 536 l 517 536 q 629 574 590 536 q 668 678 668 613 q 629 781 668 743 q 517 819 590 819 l 356 819 z "},"ℓ":{"ha":404,"x_min":104,"x_max":300,"o":"m 104 0 l 104 1028 l 300 1028 l 300 0 l 104 0 z "},"™":{"ha":1171,"x_min":38,"x_max":1093,"o":"m 1093 978 l 1093 490 l 960 490 l 957 815 l 829 490 l 731 490 l 604 826 l 604 490 l 475 490 l 475 978 l 678 978 l 786 669 l 903 978 l 1093 978 m 38 864 l 38 978 l 399 978 l 399 864 l 289 864 l 292 490 l 142 490 l 146 864 l 38 864 z "},"Ω":{"ha":1092,"x_min":51,"x_max":1042,"o":"m 63 150 l 204 150 q 51 483 51 263 q 194 843 51 703 q 547 983 338 983 q 899 843 756 983 q 1042 483 1042 703 q 889 150 1042 263 l 1031 150 l 1031 0 l 653 0 l 653 156 q 791 280 739 199 q 843 472 843 361 q 761 715 843 626 q 546 804 679 804 q 331 715 413 804 q 250 472 250 626 q 301 280 250 361 q 439 156 353 199 l 439 0 l 63 0 l 63 150 z "},"℮":{"ha":1046,"x_min":56,"x_max":990,"o":"m 290 551 l 750 551 l 750 788 q 521 869 665 869 q 290 775 376 869 l 290 551 m 951 188 q 544 -10 765 -10 q 190 117 324 -10 q 56 467 56 243 q 180 837 56 690 q 521 983 304 983 q 864 849 738 983 q 990 528 990 715 l 990 442 l 290 442 l 290 201 q 535 107 392 107 q 879 269 717 107 l 951 188 z "},"∂":{"ha":833,"x_min":51,"x_max":783,"o":"m 353 -11 q 136 76 221 -11 q 51 342 51 164 q 165 650 51 519 q 432 781 278 781 q 578 729 514 781 q 396 918 554 918 q 288 903 344 918 l 288 1006 q 425 1028 358 1028 q 687 897 590 1028 q 783 567 783 767 q 658 148 783 307 q 353 -11 532 -11 m 569 444 q 536 572 569 528 q 447 615 503 615 q 305 535 360 615 q 250 349 250 454 q 285 199 250 244 q 375 154 319 154 q 515 240 460 154 q 569 444 569 325 z "},"∆":{"ha":992,"x_min":28,"x_max":964,"o":"m 764 150 l 496 750 l 229 150 l 764 150 m 964 0 l 28 0 l 28 150 l 417 972 l 576 972 l 964 150 l 964 0 z "},"∏":{"ha":1033,"x_min":36,"x_max":997,"o":"m 36 822 l 36 972 l 997 972 l 997 822 l 894 822 l 894 0 l 700 0 l 700 822 l 333 822 l 333 0 l 138 0 l 138 822 l 36 822 z "},"∑":{"ha":703,"x_min":56,"x_max":647,"o":"m 647 972 l 647 822 l 226 822 l 579 533 l 579 383 l 222 75 l 647 75 l 647 -74 l 56 -74 l 56 153 l 396 454 l 56 746 l 56 972 l 647 972 z "},"−":{"ha":810,"x_min":110,"x_max":700,"o":"m 110 414 l 110 576 l 700 576 l 700 414 l 110 414 z "},"∕":{"ha":675,"x_min":51,"x_max":617,"o":"m 51 -251 l 426 1315 l 617 1315 l 242 -251 l 51 -251 z "},"∙":{"ha":360,"x_min":69,"x_max":292,"o":"m 292 460 q 292 436 292 460 q 259 381 292 413 q 180 349 226 349 q 101 381 133 349 q 69 460 69 413 q 101 539 69 507 q 180 571 133 571 q 259 539 226 571 q 292 460 292 507 z "},"√":{"ha":1217,"x_min":29,"x_max":1196,"o":"m 1068 1238 l 1196 1238 l 481 -58 l 383 -58 l 189 286 l 85 224 l 29 318 l 303 481 l 476 168 l 1068 1238 z "},"∞":{"ha":1024,"x_min":40,"x_max":983,"o":"m 751 710 q 919 649 856 708 q 983 484 983 589 q 916 317 983 379 q 750 256 849 256 q 506 379 621 256 q 272 256 417 254 q 104 317 168 257 q 40 481 40 376 q 108 648 40 586 q 274 710 175 710 q 515 581 404 710 q 751 710 603 711 m 288 390 q 426 474 369 390 q 353 550 385 525 q 285 575 322 575 q 222 551 247 575 q 197 483 197 526 q 222 415 197 439 q 288 390 247 390 m 736 390 q 801 415 776 390 q 826 483 826 439 q 801 551 826 526 q 736 575 776 575 q 656 551 696 575 q 590 485 617 526 q 736 390 667 390 z "},"∫":{"ha":389,"x_min":-64,"x_max":457,"o":"m 431 1296 l 457 1296 l 442 1132 l 418 1132 q 356 1063 364 1132 l 233 -100 q 151 -280 219 -226 q -36 -333 82 -333 l -64 -333 l -47 -169 l -25 -169 q 19 -153 4 -169 q 38 -100 33 -136 l 161 1063 q 242 1242 174 1189 q 431 1296 311 1296 z "},"≈":{"ha":818,"x_min":46,"x_max":772,"o":"m 289 801 q 428 756 351 801 q 540 711 504 711 q 601 734 576 711 q 632 800 626 757 l 772 800 q 528 538 729 538 q 389 583 465 538 q 276 628 313 628 q 215 605 240 628 q 185 539 190 582 l 46 539 q 289 801 89 801 m 289 475 q 428 430 351 475 q 540 385 504 385 q 601 408 576 385 q 632 474 626 431 l 772 474 q 528 211 729 211 q 389 256 465 211 q 276 301 313 301 q 215 278 240 301 q 185 213 190 256 l 46 213 q 289 475 89 475 z "},"≠":{"ha":1031,"x_min":161,"x_max":918,"o":"m 918 749 l 918 574 l 668 574 l 533 414 l 918 414 l 918 240 l 386 240 l 285 121 l 161 121 l 263 240 l 161 240 l 161 414 l 408 414 l 544 574 l 161 574 l 161 749 l 692 749 l 793 868 l 918 868 l 817 749 l 918 749 z "},"≤":{"ha":763,"x_min":106,"x_max":657,"o":"m 657 806 l 360 546 l 657 285 l 408 285 l 106 546 l 408 806 l 657 806 m 118 50 l 118 199 l 650 199 l 650 50 l 118 50 z "},"≥":{"ha":763,"x_min":106,"x_max":657,"o":"m 113 50 l 113 199 l 643 199 l 643 50 l 113 50 m 354 285 l 106 285 l 403 546 l 106 806 l 354 806 l 657 546 l 354 285 z "},"◊":{"ha":779,"x_min":36,"x_max":743,"o":"m 549 489 l 390 649 l 231 489 l 390 328 l 549 489 m 36 489 l 390 842 l 743 489 l 390 135 l 36 489 z "},"◌":{"ha":917,"x_min":61,"x_max":856,"o":"m 374 733 q 366 742 374 733 q 357 778 357 750 q 374 822 357 806 q 418 839 392 839 q 462 822 444 839 q 479 778 479 806 q 462 733 479 750 q 418 717 444 717 q 374 733 392 717 m 594 696 q 581 696 594 696 q 550 714 568 696 q 532 758 532 732 q 549 801 532 783 q 594 819 567 819 q 638 802 621 819 q 654 758 654 785 q 637 714 654 732 q 594 696 619 696 m 681 619 q 673 627 681 619 q 664 663 664 636 q 681 707 664 689 q 725 725 699 725 q 769 708 751 725 q 786 663 786 690 q 769 619 786 636 q 725 601 751 601 q 681 619 699 601 m 750 455 q 742 464 750 455 q 733 499 733 472 q 750 542 733 525 q 794 560 767 560 q 838 542 821 560 q 856 499 856 525 q 838 455 856 472 q 794 438 821 438 q 750 455 767 438 m 738 269 q 728 277 738 269 q 719 313 719 286 q 738 357 719 339 q 781 375 756 375 q 824 357 807 375 q 842 313 842 339 q 824 269 842 286 q 781 251 807 251 q 738 269 756 251 m 635 133 q 627 141 635 133 q 618 176 618 150 q 635 220 618 203 q 679 238 653 238 q 724 220 706 238 q 742 176 742 203 q 724 133 742 150 q 679 115 706 115 q 635 133 653 115 m 467 58 q 458 67 467 58 q 450 103 450 75 q 467 147 450 131 q 511 164 483 164 q 556 147 539 164 q 574 103 574 129 q 556 59 574 76 q 511 42 539 42 q 467 58 483 42 m 336 61 q 323 61 336 61 q 292 79 310 61 q 274 124 274 97 q 292 168 274 150 q 336 186 310 186 q 380 168 363 186 q 397 124 397 150 q 380 79 397 97 q 336 61 363 61 m 150 185 q 142 194 150 185 q 133 229 133 203 q 151 273 133 256 q 194 290 168 290 q 238 273 221 290 q 256 229 256 256 q 238 185 256 203 q 194 168 221 168 q 150 185 167 168 m 78 347 q 70 356 78 347 q 61 390 61 364 q 78 435 61 417 q 122 453 96 453 q 166 435 149 453 q 183 391 183 418 q 166 347 183 364 q 122 331 149 331 q 78 347 96 331 m 97 522 q 88 530 97 522 q 79 565 79 539 q 97 609 79 592 q 142 626 115 626 q 186 609 168 626 q 204 565 204 592 q 186 522 204 539 q 142 504 168 504 q 97 522 115 504 m 254 656 q 241 656 254 656 q 210 673 228 656 q 193 717 193 690 q 210 762 193 744 q 254 779 228 779 q 298 762 281 779 q 315 717 315 744 q 298 673 315 690 q 254 656 281 656 z "},"":{"ha":213,"x_min":14,"x_max":199,"o":"m 14 -60 l 175 -60 q 199 -219 199 -136 q 155 -351 199 -301 q 25 -400 111 -400 l 25 -322 q 94 -237 94 -322 l 94 -211 l 14 -211 l 14 -60 z "},"ﬁ":{"ha":867,"x_min":33,"x_max":783,"o":"m 311 813 l 311 769 l 763 769 l 763 0 l 568 0 l 568 610 l 311 610 l 311 0 l 117 0 l 117 610 l 33 610 l 33 769 l 117 769 l 117 813 q 190 1015 117 951 q 422 1079 264 1079 l 422 915 q 336 892 361 915 q 311 813 311 868 m 749 881 q 732 863 749 881 q 665 846 715 846 q 581 881 615 846 q 547 965 547 915 q 581 1050 547 1015 q 665 1085 615 1085 q 749 1050 715 1085 q 783 965 783 1015 q 749 881 783 915 z "},"ﬂ":{"ha":867,"x_min":33,"x_max":764,"o":"m 568 1028 l 764 1028 l 764 0 l 568 0 l 568 1028 m 311 813 l 311 769 l 433 769 l 433 610 l 311 610 l 311 0 l 117 0 l 117 610 l 33 610 l 33 769 l 117 769 l 117 813 q 190 1015 117 951 q 422 1079 264 1079 l 422 915 q 336 892 361 915 q 311 813 311 868 z "}}}
